<svg width="48" height="48" viewBox="0 0 48 48" fill="none" xmlns="http://www.w3.org/2000/svg">
<circle cx="24" cy="24" r="24" fill="#25D366"/>
<path fill-rule="evenodd" clip-rule="evenodd" d="M31.8026 15.5969C29.6539 13.4563 26.7964 12.277 23.7521 12.2757C17.479 12.2757 12.3737 17.3558 12.3712 23.5996C12.3703 25.5955 12.8943 27.5439 13.8903 29.2613L12.2757 35.1296L18.3089 33.5548C19.9713 34.4571 21.8428 34.9326 23.7474 34.9332H23.7522C30.0245 34.9332 35.1305 29.8527 35.1328 23.6086C35.1341 20.5826 33.9514 17.7374 31.8026 15.5969ZM23.7523 33.0207H23.7484C22.0511 33.02 20.3865 32.5661 18.9339 31.7086L18.5887 31.5045L15.0085 32.4391L15.9641 28.9657L15.7391 28.6096C14.7922 27.1109 14.2922 25.3787 14.293 23.6003C14.295 18.4106 18.5385 14.1884 23.7561 14.1884C26.2827 14.1892 28.6578 15.1695 30.4437 16.9487C32.2295 18.7279 33.2125 21.0928 33.2116 23.6079C33.2094 28.798 28.9662 33.0207 23.7523 33.0207ZM28.9419 25.9713C28.6576 25.8296 27.2595 25.1453 26.9987 25.0507C26.7383 24.9563 26.5485 24.9093 26.3591 25.1924C26.1694 25.4756 25.6245 26.113 25.4586 26.3018C25.2926 26.4906 25.1269 26.5144 24.8425 26.3726C24.5581 26.2311 23.6418 25.9321 22.5556 24.9681C21.7103 24.2178 21.1396 23.2912 20.9737 23.008C20.808 22.7246 20.9723 22.5862 21.0984 22.4305C21.4063 22.0501 21.7145 21.6513 21.8093 21.4626C21.9042 21.2737 21.8567 21.1085 21.7854 20.9669C21.7145 20.8253 21.1458 19.4325 20.9089 18.8657C20.6779 18.3142 20.4436 18.3887 20.269 18.38C20.1033 18.3718 19.9136 18.3701 19.724 18.3701C19.5344 18.3701 19.2263 18.4409 18.9656 18.7243C18.705 19.0076 17.9704 19.6921 17.9704 21.0849C17.9704 22.4777 18.9894 23.8232 19.1316 24.0121C19.2737 24.2009 21.1368 27.0591 23.9893 28.2846C24.6678 28.5764 25.1974 28.7504 25.6105 28.8808C26.2918 29.0962 26.9115 29.0658 27.4016 28.9929C27.948 28.9116 29.0839 28.3083 29.3211 27.6474C29.558 26.9864 29.558 26.4199 29.4868 26.3018C29.4158 26.1838 29.2262 26.113 28.9419 25.9713Z" fill="white"/>
</svg>
