<svg width="125" height="125" viewBox="0 0 125 125" fill="none" xmlns="http://www.w3.org/2000/svg">
<circle cx="62.5" cy="62.5" r="62.5" fill="#F4F5F6"/>
<path fill-rule="evenodd" clip-rule="evenodd" d="M87.8914 74.9998H82.7126C82.463 77.2463 80.5523 78.9998 78.2408 78.9998C75.9293 78.9998 74.0176 77.2463 73.7679 74.9998H69.5891C69.1205 74.9998 69 74.6102 69 74.1301V48.8695C69 48.3894 69.1205 47.9998 69.5891 47.9998H78.7436C82.2553 47.9998 83.3961 50.2024 84.7154 52.7528L88.6316 60.8662C88.7014 60.9974 88.7402 61.1445 88.7402 61.2936V74.1301C88.7402 74.6102 88.36 74.9998 87.8914 74.9998ZM78.2408 69.9998C80.2917 69.9998 82.0272 71.3796 82.5667 73.2604H87.0426V61.5212L86.3088 59.9961C86.2891 59.9986 86.269 59.9998 86.2488 59.9998H75.232C74.9606 59.9998 74.7402 59.7759 74.7402 59.5V49.7392H70.4379V73.2604H73.9138C74.4536 71.3796 76.1898 69.9998 78.2408 69.9998ZM80.3795 50.0109C81.3013 50.3856 81.8979 51.1571 82.5841 52.383L85.7402 58.9998H75.7402V49.9998H80.1327C80.2179 49.9998 80.3001 50.0034 80.3795 50.0109ZM75.7402 74.4998C75.7402 73.1219 76.8631 71.9998 78.2407 71.9998C79.6174 71.9998 80.7402 73.1219 80.7402 74.4998C80.7402 75.8787 79.6174 76.9998 78.2407 76.9998C76.8631 76.9998 75.7402 75.8787 75.7402 74.4998ZM54.5 71.9996C53.1211 71.9996 52 73.1217 52 74.4996C52 75.8785 53.1211 76.9996 54.5 76.9996C55.8789 76.9996 57 75.8785 57 74.4996C57 73.1217 55.8789 71.9996 54.5 71.9996ZM54.5 78.9996C52.0193 78.9996 50 76.9804 50 74.4996C50 72.0178 52.0193 69.9996 54.5 69.9996C56.9807 69.9996 59 72.0178 59 74.4996C59 76.9804 56.9807 78.9996 54.5 78.9996Z" fill="#393939"/>
<path d="M60 74H74" stroke="#393939" stroke-width="2" stroke-linecap="round"/>
<path d="M58 74H68C69.1046 74 70 73.1046 70 72V47C70 45.8954 69.1046 45 68 45H46C44.8954 45 44 45.8954 44 47V49.5" stroke="#393939" stroke-width="2" stroke-linecap="round"/>
<path d="M51 74H46C44.8954 74 44 73.1046 44 72V66.5" stroke="#393939" stroke-width="2" stroke-linecap="round"/>
<path d="M38 63L49 63" stroke="#83C150" stroke-width="2" stroke-linecap="round"/>
<path d="M31 58L39 58" stroke="#83C150" stroke-width="2" stroke-linecap="round"/>
<path d="M44 56.5V59.5" stroke="#393939" stroke-width="2" stroke-linecap="round"/>
<path d="M35 53L46 53" stroke="#83C150" stroke-width="2" stroke-linecap="round"/>
</svg>
