<svg width="125" height="125" viewBox="0 0 125 125" fill="none" xmlns="http://www.w3.org/2000/svg">
<circle cx="62.5" cy="62.5" r="62.5" fill="#F4F5F6"/>
<path d="M72 73.5L78.5 70" stroke="#83C150" stroke-width="1.7" stroke-linecap="round"/>
<path d="M74.5 68L78.5 66" stroke="#83C150" stroke-width="1.7" stroke-linecap="round"/>
<path d="M63.5 62V84" stroke="#393939" stroke-width="1.8"/>
<path d="M51 55V60.8813C51 60.9545 51.04 61.0218 51.1042 61.0569L56.2042 63.8387C56.3375 63.9114 56.5 63.8149 56.5 63.6631V58.5" stroke="#393939"/>
<path d="M70 43L51.5 54.5" stroke="#393939"/>
<path d="M75.5 46L57 57.5" stroke="#393939"/>
<path d="M44 50.5L63.3997 61.9408C63.4617 61.9774 63.5386 61.9778 63.601 61.9419L83.5 50.5" stroke="#393939" stroke-width="1.8"/>
<path d="M44 50.6142V72.8832C44 72.9554 44.0389 73.0219 44.1017 73.0574L63.4017 83.9446C63.4627 83.979 63.5373 83.979 63.5983 83.9446L82.8983 73.0574C82.9611 73.0219 83 72.9554 83 72.8832V50.6142C83 50.5434 82.9626 50.4779 82.9016 50.442L63.6016 39.0599C63.5389 39.0229 63.4611 39.0229 63.3984 39.0599L44.0984 50.442C44.0374 50.4779 44 50.5434 44 50.6142Z" stroke="#393939" stroke-width="1.8"/>
</svg>
