<svg width="48" height="48" viewBox="0 0 48 48" fill="none" xmlns="http://www.w3.org/2000/svg">
<g clip-path="url(#clip0_3694_22023)">
<path fill-rule="evenodd" clip-rule="evenodd" d="M24.0017 6.19666e-08C37.2563 0.000951851 48.0006 10.7465 48 24.0011C47.9994 37.2558 37.254 48.0003 23.9994 48C10.7448 47.9997 3.41731e-08 37.2546 0 24C-1.64115e-08 17.6345 2.5288 11.5298 7.03005 7.02883C11.5313 2.52791 17.6362 -0.000457032 24.0017 6.19666e-08Z" fill="#7360F2"/>
<path fill-rule="evenodd" clip-rule="evenodd" d="M29.7379 12.8257C25.864 12.0924 21.9353 12.0924 18.0605 12.8257C16.3658 13.2013 14.2337 15.2343 13.8169 16.8696C13.1235 20.0337 13.1235 23.2412 13.8169 26.4053C14.2337 28.0406 16.3658 30.0737 18.0605 30.4493L18.0618 30.4495C18.1373 30.4643 18.1923 30.5293 18.1923 30.6059V35.2411C18.1923 35.4727 18.4765 35.5869 18.6383 35.4191L20.8508 33.1595L22.931 31.0346C22.962 31.003 23.0048 30.9858 23.0491 30.987C25.283 31.0486 27.5193 30.8691 29.7379 30.4494C31.4327 30.0737 33.5656 28.0407 33.9816 26.4054C34.6758 23.2413 34.6758 20.0338 33.9816 16.8697C33.5655 15.2343 31.4335 13.2013 29.7379 12.8257ZM29.7962 26.6415C29.4573 27.3576 28.9641 27.9534 28.2527 28.3336C28.1154 28.4071 27.9597 28.4465 27.8026 28.4863L27.8025 28.4863C27.7299 28.5047 27.657 28.5231 27.5855 28.545C27.5015 28.5197 27.4188 28.497 27.3375 28.4747C27.1667 28.4278 27.0023 28.3828 26.846 28.3182C24.4566 27.3318 22.2576 26.0592 20.5157 24.1083C19.5251 22.999 18.7498 21.7465 18.0945 20.4211C17.8158 19.8575 17.5764 19.2741 17.3375 18.6917L17.2548 18.4904C17.0113 17.8987 17.3699 17.2873 17.7475 16.8414C18.1017 16.423 18.5576 16.1028 19.0513 15.8667C19.4366 15.6825 19.8167 15.7887 20.0982 16.1137C20.7066 16.8164 21.2654 17.555 21.7179 18.3695C21.9962 18.8705 21.9198 19.4828 21.4155 19.8238C21.317 19.8904 21.2256 19.9663 21.1342 20.0421L21.1342 20.0421L21.1342 20.0421C21.1118 20.0606 21.0895 20.0791 21.0671 20.0975C20.9669 20.1795 20.8727 20.2624 20.8041 20.3735C20.6786 20.5766 20.6726 20.8164 20.7534 21.0373C21.3753 22.738 22.4236 24.0604 24.1438 24.7727L24.2177 24.8036C24.4689 24.909 24.7239 25.0161 25.0126 24.9826C25.3563 24.9426 25.5496 24.6858 25.744 24.4275C25.8501 24.2866 25.9565 24.1452 26.0879 24.0383C26.4516 23.7423 26.9165 23.7384 27.3083 23.9852C27.7003 24.232 28.0802 24.4969 28.4578 24.7647L28.5342 24.8189C28.8791 25.0631 29.2211 25.3053 29.5396 25.5843C29.8681 25.8724 29.9814 26.2504 29.7962 26.6415ZM26.6773 21.0977C26.6209 21.0994 26.5626 21.1023 26.711 21.0996C26.7365 21.0979 26.7383 21.0971 26.7291 21.097C26.8422 21.0822 26.954 21.0012 26.9903 20.8454C27.012 20.7526 27.003 20.6505 26.9945 20.5533V20.5532L26.9937 20.5436C26.8701 19.1241 26.004 18.5007 24.7923 18.4137C24.5984 18.3997 24.4258 18.5375 24.3961 18.7141C24.3635 18.9081 24.4784 19.0756 24.6863 19.1262C24.7759 19.1481 24.8673 19.1564 24.9589 19.1647L24.9589 19.1647C25.0627 19.1741 25.1667 19.1835 25.2686 19.2128C25.4196 19.2561 25.5638 19.3234 25.691 19.4156C25.9603 19.6109 26.1306 19.9063 26.2091 20.225C26.2435 20.3643 26.2592 20.5085 26.2749 20.6521L26.2826 20.7217C26.3082 20.9494 26.4383 21.0894 26.6773 21.0977ZM25.958 17.8527C25.5861 17.6715 25.184 17.5589 24.7764 17.4918C24.6655 17.4735 24.5539 17.4598 24.4423 17.446C24.3746 17.4376 24.3069 17.4293 24.2393 17.4199C24.0224 17.3899 23.9067 17.2524 23.9169 17.0397C23.9265 16.8404 24.0729 16.6971 24.2911 16.7093C25.0084 16.7499 25.7012 16.9041 26.3388 17.2401C27.6356 17.9234 28.3763 19.002 28.5925 20.4423C28.596 20.4653 28.6002 20.4883 28.6044 20.5113L28.6044 20.5113C28.6121 20.5533 28.6198 20.5953 28.623 20.6377C28.6316 20.7509 28.6379 20.8643 28.6452 20.9953C28.6484 21.0513 28.6517 21.1106 28.6554 21.1744C28.6541 21.1843 28.653 21.1975 28.6516 21.2131C28.6476 21.2592 28.6418 21.3264 28.6248 21.3906C28.5418 21.7028 28.0661 21.7419 27.9565 21.4268C27.9241 21.3333 27.9192 21.2269 27.9191 21.1262C27.9179 20.4675 27.7741 19.8095 27.4402 19.2363C27.0971 18.6475 26.5728 18.1523 25.958 17.8527ZM29.5844 21.8745C29.6007 22.098 29.7134 22.3066 29.9639 22.3036C30.2065 22.3007 30.3338 22.0882 30.3163 21.8647C30.3112 21.7992 30.3062 21.7336 30.3012 21.6681C30.2655 21.2012 30.2297 20.7328 30.1475 20.2734C29.6001 17.2139 27.0555 15.1553 23.9509 15.0493C24.3252 15.0606 26.774 15.1277 23.905 15.0477C23.8873 15.0476 23.8695 15.0473 23.8518 15.047C23.809 15.0463 23.7662 15.0456 23.7236 15.0479C23.502 15.0598 23.3056 15.2441 23.3471 15.4757C23.3938 15.7367 23.6574 15.7631 23.8747 15.7849C23.8874 15.7862 23.9 15.7874 23.9124 15.7887C24.0222 15.8002 24.1325 15.8097 24.2428 15.8192C24.4869 15.8402 24.731 15.8611 24.9712 15.9038C27.2886 16.3151 29.1451 18.2318 29.4686 20.5485C29.5175 20.8983 29.5416 21.2516 29.5656 21.6047C29.5717 21.6947 29.5779 21.7846 29.5844 21.8745Z" fill="white"/>
</g>
<defs>
<clipPath id="clip0_3694_22023">
<rect width="48" height="48" fill="white"/>
</clipPath>
</defs>
</svg>
