<svg width="125" height="125" viewBox="0 0 125 125" fill="none" xmlns="http://www.w3.org/2000/svg">
<circle cx="62.5" cy="62.5" r="62.5" fill="#F4F5F6"/>
<path d="M63.5 80.5C63.5 80.5 48.5001 80.5 44 80.5C39.9868 80.5 39.9504 76.1257 39.9895 75.1792C39.9938 75.0758 40.0793 75 40.1828 75H54.5001H63.5001" stroke="#393939" stroke-width="2" stroke-linecap="round"/>
<path d="M63.4998 80.5C63.4998 80.5 78.4997 80.5 82.9998 80.5C87.013 80.5 87.0496 76.1257 87.0106 75.1792C87.0063 75.0758 86.9208 75 86.8173 75H72.5H63.5" stroke="#393939" stroke-width="2" stroke-linecap="round"/>
<path d="M43.9999 75V44.7C43.9999 44.5895 44.0894 44.5 44.1999 44.5H82.7999C82.9103 44.5 82.9999 44.5895 82.9999 44.7V75" stroke="#393939" stroke-width="2" stroke-linecap="round"/>
<path d="M54.726 54.5C54.5031 54.4902 54.2934 54.3857 54.1454 54.2119L52.2055 52.5504C51.9059 52.1978 51.9377 51.6567 52.2758 51.3442C52.6148 51.0326 53.1326 51.0648 53.4322 51.4174L54.7587 52.5504L57.6138 49.7378C57.9388 49.4115 58.4585 49.4223 58.7722 49.7622C59.0849 50.1031 59.0746 50.6442 58.7478 50.9714L55.3253 54.2617C55.1726 54.415 54.9704 54.5 54.7587 54.5C54.7475 54.5 54.7372 54.5 54.726 54.5Z" fill="#83C150"/>
<path d="M54.726 61.5C54.5031 61.4902 54.2934 61.3857 54.1454 61.2119L52.2055 59.5504C51.9059 59.1978 51.9377 58.6567 52.2758 58.3442C52.6148 58.0326 53.1326 58.0648 53.4322 58.4174L54.7587 59.5504L57.6138 56.7378C57.9388 56.4115 58.4585 56.4223 58.7722 56.7622C59.0849 57.1031 59.0746 57.6442 58.7478 57.9714L55.3253 61.2617C55.1726 61.415 54.9704 61.5 54.7587 61.5C54.7475 61.5 54.7372 61.5 54.726 61.5Z" fill="#83C150"/>
<path d="M54.726 68.5C54.5031 68.4902 54.2934 68.3857 54.1454 68.2119L52.2055 66.5504C51.9059 66.1978 51.9377 65.6567 52.2758 65.3442C52.6148 65.0326 53.1326 65.0648 53.4322 65.4174L54.7587 66.5504L57.6138 63.7378C57.9388 63.4115 58.4585 63.4223 58.7722 63.7622C59.0849 64.1031 59.0746 64.6442 58.7478 64.9714L55.3253 68.2617C55.1726 68.415 54.9704 68.5 54.7587 68.5C54.7475 68.5 54.7372 68.5 54.726 68.5Z" fill="#83C150"/>
<path d="M63 52.5H74.5" stroke="#393939" stroke-linecap="round"/>
<path d="M63 59.5H74.5" stroke="#393939" stroke-linecap="round"/>
<path d="M63 66.5H74.5" stroke="#393939" stroke-linecap="round"/>
</svg>
