<svg width="125" height="125" viewBox="0 0 125 125" fill="none" xmlns="http://www.w3.org/2000/svg">
<circle cx="62.5" cy="62.5" r="62.5" fill="#F4F5F6"/>
<path d="M53 76V69.2C53 69.0895 53.0895 69 53.2 69H63M73 76V69.2C73 69.0895 72.9105 69 72.8 69H63M63 76V69" stroke="#83C150" stroke-width="2"/>
<path d="M58 69V61.2C58 61.0895 58.0895 61 58.2 61H67.8C67.9105 61 68 61.0895 68 61.2V69" stroke="#83C150" stroke-width="2"/>
<path d="M48 78V57.2C48 57.0895 48.0895 57 48.2 57H77.8C77.9105 57 78 57.0895 78 57.2V78M83 78.8V53.1293C83 53.0506 82.9538 52.9792 82.8821 52.9469L63.0821 44.0369C63.0299 44.0134 62.9701 44.0134 62.9179 44.0369L43.1179 52.9469C43.0462 52.9792 43 53.0506 43 53.1293V78.8C43 78.9105 43.0895 79 43.2 79H82.8C82.9105 79 83 78.9105 83 78.8Z" stroke="#393939" stroke-width="2"/>
<path d="M48 76C47.7239 76 47.5 76.2239 47.5 76.5C47.5 76.7761 47.7239 77 48 77V76ZM78.5 77C78.7761 77 79 76.7761 79 76.5C79 76.2239 78.7761 76 78.5 76V77ZM48 77H78.5V76H48V77Z" fill="#393939"/>
<path d="M59.5 52H66.5" stroke="#393939" stroke-linecap="round"/>
</svg>
