<svg width="288" height="133" viewBox="0 0 288 133" fill="none" xmlns="http://www.w3.org/2000/svg">
<g clip-path="url(#clip0_3793_24563)">
<rect y="5" width="288" height="128" rx="24" fill="#F4F5F6"/>
<path d="M18.16 36.24V31.28H19.152C19.5573 30.192 19.8453 29.056 20.016 27.872C20.1973 26.688 20.288 25.0933 20.288 23.088V22.8H28.816V31.28H30.08L29.728 36.24H27.104V34H21.152L20.944 36.24H18.16ZM22.4 31.28H25.712V25.52H23.28V25.632C23.28 27.6373 22.9867 29.52 22.4 31.28ZM33.6085 34.192C32.7552 34.192 32.0565 33.9573 31.5125 33.488C30.9685 33.008 30.6965 32.3413 30.6965 31.488C30.6965 30.6133 31.0005 29.9413 31.6085 29.472C32.2165 29.0027 33.0432 28.768 34.0885 28.768C34.8458 28.768 35.5392 28.88 36.1685 29.104V28.96C36.1685 28.0213 35.5925 27.552 34.4405 27.552C33.6618 27.552 32.8672 27.712 32.0565 28.032L31.4325 25.888C32.5205 25.44 33.6885 25.216 34.9365 25.216C36.4298 25.216 37.5285 25.568 38.2325 26.272C38.8512 26.88 39.1605 27.7973 39.1605 29.024V34H36.1525V33.104C35.5018 33.8293 34.6538 34.192 33.6085 34.192ZM34.6965 32.288C35.1445 32.288 35.5072 32.16 35.7845 31.904C36.0618 31.6373 36.2005 31.2907 36.2005 30.864V30.464C35.8485 30.3147 35.4538 30.24 35.0165 30.24C34.5792 30.24 34.2378 30.3413 33.9925 30.544C33.7472 30.736 33.6245 31.0027 33.6245 31.344C33.6245 31.632 33.7205 31.8613 33.9125 32.032C34.1152 32.2027 34.3765 32.288 34.6965 32.288ZM40.7066 36.56V25.344H43.7466V26.496C44.4826 25.6 45.3573 25.152 46.3706 25.152C47.4373 25.152 48.344 25.568 49.0906 26.4C49.8373 27.2213 50.2106 28.3093 50.2106 29.664C50.2106 31.0293 49.8373 32.128 49.0906 32.96C48.3546 33.7813 47.4533 34.192 46.3866 34.192C45.3413 34.192 44.4613 33.776 43.7466 32.944V36.56H40.7066ZM45.4426 31.648C45.944 31.648 46.3653 31.4613 46.7066 31.088C47.048 30.7147 47.2186 30.2347 47.2186 29.648C47.2186 29.0827 47.048 28.6187 46.7066 28.256C46.3653 27.8827 45.944 27.696 45.4426 27.696C44.952 27.696 44.536 27.8827 44.1946 28.256C43.8533 28.6293 43.6826 29.104 43.6826 29.68C43.6826 30.2453 43.8533 30.7147 44.1946 31.088C44.536 31.4613 44.952 31.648 45.4426 31.648ZM51.5191 34V25.344H54.4631V29.68L57.3431 25.344H60.1431V34H57.1991V29.664L54.3191 34H51.5191ZM61.7691 34V25.344H64.8571L66.8571 28.336L68.8731 25.344H71.9611V34H68.9211V29.728L66.8091 32.672L64.7611 29.792V34H61.7691ZM82.2108 34.208C80.9201 34.208 79.8428 33.7707 78.9788 32.896C78.1148 32.0107 77.6828 30.9387 77.6828 29.68C77.6828 28.432 78.1201 27.3707 78.9948 26.496C79.8694 25.6107 80.9788 25.168 82.3228 25.168C83.9761 25.168 85.2081 25.8133 86.0188 27.104L83.9868 28.576C83.5814 28.0107 83.0588 27.728 82.4188 27.728C81.8748 27.728 81.4428 27.9147 81.1228 28.288C80.8028 28.6613 80.6428 29.1253 80.6428 29.68C80.6428 30.2453 80.8028 30.7147 81.1228 31.088C81.4428 31.4613 81.8588 31.648 82.3708 31.648C82.7121 31.648 83.0001 31.5733 83.2348 31.424C83.4801 31.2747 83.7361 31.0453 84.0028 30.736L86.0668 32.224C85.1708 33.5467 83.8854 34.208 82.2108 34.208ZM87.1441 34V25.344H90.1841V28.56L92.5361 25.344H95.9761L93.0161 28.896L96.0561 34H92.7121L91.0641 31.232L90.1841 32.288V34H87.1441ZM96.7848 34V25.344H99.7288V29.68L102.609 25.344H105.409V34H102.465V29.664L99.5848 34H96.7848ZM106.379 35.76V31.552H107.179C107.445 30.784 107.637 29.9787 107.755 29.136C107.883 28.2933 107.947 27.168 107.947 25.76V25.344H115.659V31.552H116.667L116.379 35.76H113.787V34H109.259L109.099 35.76H106.379ZM110.283 31.552H112.603V27.76H110.843V27.904C110.811 29.184 110.624 30.4 110.283 31.552ZM117.488 34V25.344H120.528V28.56L122.88 25.344H126.32L123.36 28.896L126.4 34H123.056L121.408 31.232L120.528 32.288V34H117.488ZM129.689 36.608C128.729 36.608 127.801 36.3573 126.905 35.856L127.849 33.728C128.361 34.0373 128.803 34.192 129.177 34.192C129.475 34.192 129.71 34.0747 129.881 33.84L126.489 25.344H129.673L131.401 30.56L133.033 25.344H136.153L132.985 33.792C132.601 34.816 132.169 35.5413 131.689 35.968C131.209 36.3947 130.542 36.608 129.689 36.608Z" fill="#393939"/>
<path d="M18.816 54V45.344H21.856V48.416H24.352V45.344H27.392V54H24.352V50.864H21.856V54H18.816ZM31.4991 54.192C30.6458 54.192 29.9471 53.9573 29.4031 53.488C28.8591 53.008 28.5871 52.3413 28.5871 51.488C28.5871 50.6133 28.8911 49.9413 29.4991 49.472C30.1071 49.0027 30.9338 48.768 31.9791 48.768C32.7365 48.768 33.4298 48.88 34.0591 49.104V48.96C34.0591 48.0213 33.4831 47.552 32.3311 47.552C31.5525 47.552 30.7578 47.712 29.9471 48.032L29.3231 45.888C30.4111 45.44 31.5791 45.216 32.8271 45.216C34.3205 45.216 35.4191 45.568 36.1231 46.272C36.7418 46.88 37.0511 47.7973 37.0511 49.024V54H34.0431V53.104C33.3925 53.8293 32.5445 54.192 31.4991 54.192ZM32.5871 52.288C33.0351 52.288 33.3978 52.16 33.6751 51.904C33.9525 51.6373 34.0911 51.2907 34.0911 50.864V50.464C33.7391 50.3147 33.3445 50.24 32.9071 50.24C32.4698 50.24 32.1285 50.3413 31.8831 50.544C31.6378 50.736 31.5151 51.0027 31.5151 51.344C31.5151 51.632 31.6111 51.8613 31.8031 52.032C32.0058 52.2027 32.2671 52.288 32.5871 52.288ZM43.0348 54V45.344H46.0748V48.416H48.5708V45.344H51.6108V54H48.5708V50.864H46.0748V54H43.0348ZM55.7179 54.192C54.8645 54.192 54.1659 53.9573 53.6219 53.488C53.0779 53.008 52.8059 52.3413 52.8059 51.488C52.8059 50.6133 53.1099 49.9413 53.7179 49.472C54.3259 49.0027 55.1525 48.768 56.1979 48.768C56.9552 48.768 57.6485 48.88 58.2779 49.104V48.96C58.2779 48.0213 57.7019 47.552 56.5499 47.552C55.7712 47.552 54.9765 47.712 54.1659 48.032L53.5419 45.888C54.6299 45.44 55.7979 45.216 57.0459 45.216C58.5392 45.216 59.6379 45.568 60.3419 46.272C60.9605 46.88 61.2699 47.7973 61.2699 49.024V54H58.2619V53.104C57.6112 53.8293 56.7632 54.192 55.7179 54.192ZM56.8059 52.288C57.2539 52.288 57.6165 52.16 57.8939 51.904C58.1712 51.6373 58.3099 51.2907 58.3099 50.864V50.464C57.9579 50.3147 57.5632 50.24 57.1259 50.24C56.6885 50.24 56.3472 50.3413 56.1019 50.544C55.8565 50.736 55.7339 51.0027 55.7339 51.344C55.7339 51.632 55.8299 51.8613 56.0219 52.032C56.2245 52.2027 56.4859 52.288 56.8059 52.288ZM62.816 54V45.344H65.856V51.552H67.984V45.344H71.024V51.552H73.152V45.344H76.192V54H62.816ZM77.8316 54V45.344H80.7756V49.68L83.6556 45.344H86.4556V54H83.5116V49.664L80.6316 54H77.8316ZM95.0791 56.608C94.1191 56.608 93.1911 56.3573 92.2951 55.856L93.2391 53.728C93.7511 54.0373 94.1938 54.192 94.5671 54.192C94.8658 54.192 95.1005 54.0747 95.2711 53.84L91.8791 45.344H95.0631L96.7911 50.56L98.4231 45.344H101.543L98.3751 53.792C97.9911 54.816 97.5591 55.5413 97.0791 55.968C96.5991 56.3947 95.9325 56.608 95.0791 56.608ZM106.711 54.208C105.42 54.208 104.343 53.7707 103.479 52.896C102.615 52.0107 102.183 50.9387 102.183 49.68C102.183 48.432 102.62 47.3707 103.495 46.496C104.369 45.6107 105.479 45.168 106.823 45.168C108.476 45.168 109.708 45.8133 110.519 47.104L108.487 48.576C108.081 48.0107 107.559 47.728 106.919 47.728C106.375 47.728 105.943 47.9147 105.623 48.288C105.303 48.6613 105.143 49.1253 105.143 49.68C105.143 50.2453 105.303 50.7147 105.623 51.088C105.943 51.4613 106.359 51.648 106.871 51.648C107.212 51.648 107.5 51.5733 107.735 51.424C107.98 51.2747 108.236 51.0453 108.503 50.736L110.567 52.224C109.671 53.5467 108.385 54.208 106.711 54.208ZM113.388 53.984C113.089 54.0693 112.737 54.112 112.332 54.112C111.927 54.112 111.479 54.0693 110.988 53.984L111.116 51.632C111.34 51.664 111.505 51.68 111.612 51.68C111.751 51.68 111.863 51.664 111.948 51.632C112.033 51.5893 112.129 51.4827 112.236 51.312C112.353 51.1413 112.444 50.896 112.508 50.576C112.572 50.256 112.625 49.7973 112.668 49.2C112.721 48.592 112.748 47.8613 112.748 47.008V45.344H120.22V54H117.18V47.76H115.58V47.984C115.58 49.008 115.521 49.8933 115.404 50.64C115.297 51.376 115.153 51.968 114.972 52.416C114.791 52.8533 114.556 53.2053 114.268 53.472C113.98 53.728 113.687 53.8987 113.388 53.984ZM124.407 56.608C123.447 56.608 122.519 56.3573 121.623 55.856L122.567 53.728C123.079 54.0373 123.522 54.192 123.895 54.192C124.194 54.192 124.429 54.0747 124.599 53.84L121.207 45.344H124.391L126.119 50.56L127.751 45.344H130.871L127.703 53.792C127.319 54.816 126.887 55.5413 126.407 55.968C125.927 56.3947 125.261 56.608 124.407 56.608ZM131.863 54V45.344H138.391V47.792H134.903V54H131.863ZM139.363 54V45.344H142.307V49.68L145.187 45.344H147.987V54H145.043V49.664L142.163 54H139.363Z" fill="#393939"/>
<path d="M18.816 73V64.344H23.952C25.008 64.344 25.7973 64.6053 26.32 65.128C26.6933 65.48 26.88 65.9493 26.88 66.536C26.88 67.432 26.432 68.0773 25.536 68.472C26.0907 68.6533 26.5013 68.9147 26.768 69.256C27.0453 69.5867 27.184 70.04 27.184 70.616C27.184 71.3627 26.896 71.9493 26.32 72.376C25.744 72.792 24.9387 73 23.904 73H18.816ZM21.776 71.032H23.024C23.376 71.032 23.648 70.9627 23.84 70.824C24.0427 70.6747 24.144 70.472 24.144 70.216C24.144 69.9813 24.0427 69.7893 23.84 69.64C23.648 69.4907 23.3653 69.416 22.992 69.416H21.776V71.032ZM21.776 67.784H22.8C23.1413 67.784 23.408 67.7147 23.6 67.576C23.792 67.4373 23.888 67.2507 23.888 67.016C23.888 66.792 23.7973 66.616 23.616 66.488C23.4347 66.3493 23.1787 66.28 22.848 66.28H21.776V67.784ZM35.4835 73.192C34.6302 73.192 33.9315 72.9573 33.3875 72.488C32.8435 72.008 32.5715 71.3413 32.5715 70.488C32.5715 69.6133 32.8755 68.9413 33.4835 68.472C34.0915 68.0027 34.9182 67.768 35.9635 67.768C36.7208 67.768 37.4142 67.88 38.0435 68.104V67.96C38.0435 67.0213 37.4675 66.552 36.3155 66.552C35.5368 66.552 34.7422 66.712 33.9315 67.032L33.3075 64.888C34.3955 64.44 35.5635 64.216 36.8115 64.216C38.3048 64.216 39.4035 64.568 40.1075 65.272C40.7262 65.88 41.0355 66.7973 41.0355 68.024V73H38.0275V72.104C37.3768 72.8293 36.5288 73.192 35.4835 73.192ZM36.5715 71.288C37.0195 71.288 37.3822 71.16 37.6595 70.904C37.9368 70.6373 38.0755 70.2907 38.0755 69.864V69.464C37.7235 69.3147 37.3288 69.24 36.8915 69.24C36.4542 69.24 36.1128 69.3413 35.8675 69.544C35.6222 69.736 35.4995 70.0027 35.4995 70.344C35.4995 70.632 35.5955 70.8613 35.7875 71.032C35.9902 71.2027 36.2515 71.288 36.5715 71.288ZM42.5816 73V64.344H47.7176C48.7736 64.344 49.563 64.6053 50.0856 65.128C50.459 65.48 50.6456 65.9493 50.6456 66.536C50.6456 67.432 50.1976 68.0773 49.3016 68.472C49.8563 68.6533 50.267 68.9147 50.5336 69.256C50.811 69.5867 50.9496 70.04 50.9496 70.616C50.9496 71.3627 50.6616 71.9493 50.0856 72.376C49.5096 72.792 48.7043 73 47.6696 73H42.5816ZM45.5416 71.032H46.7896C47.1416 71.032 47.4136 70.9627 47.6056 70.824C47.8083 70.6747 47.9096 70.472 47.9096 70.216C47.9096 69.9813 47.8083 69.7893 47.6056 69.64C47.4136 69.4907 47.131 69.416 46.7576 69.416H45.5416V71.032ZM45.5416 67.784H46.5656C46.907 67.784 47.1736 67.7147 47.3656 67.576C47.5576 67.4373 47.6536 67.2507 47.6536 67.016C47.6536 66.792 47.563 66.616 47.3816 66.488C47.2003 66.3493 46.9443 66.28 46.6136 66.28H45.5416V67.784ZM52.3316 73V64.344H58.8596V66.792H55.3716V73H52.3316ZM62.3916 75.608C61.4316 75.608 60.5036 75.3573 59.6076 74.856L60.5516 72.728C61.0636 73.0373 61.5063 73.192 61.8796 73.192C62.1783 73.192 62.413 73.0747 62.5836 72.84L59.1916 64.344H62.3756L64.1036 69.56L65.7356 64.344H68.8556L65.6876 72.792C65.3036 73.816 64.8716 74.5413 64.3916 74.968C63.9116 75.3947 63.245 75.608 62.3916 75.608ZM74.0233 73.208C72.7326 73.208 71.6553 72.7707 70.7913 71.896C69.9273 71.0107 69.4953 69.9387 69.4953 68.68C69.4953 67.432 69.9326 66.3707 70.8073 65.496C71.6819 64.6107 72.7913 64.168 74.1353 64.168C75.7886 64.168 77.0206 64.8133 77.8313 66.104L75.7993 67.576C75.3939 67.0107 74.8713 66.728 74.2313 66.728C73.6873 66.728 73.2553 66.9147 72.9353 67.288C72.6153 67.6613 72.4553 68.1253 72.4553 68.68C72.4553 69.2453 72.6153 69.7147 72.9353 70.088C73.2553 70.4613 73.6713 70.648 74.1833 70.648C74.5246 70.648 74.8126 70.5733 75.0473 70.424C75.2926 70.2747 75.5486 70.0453 75.8153 69.736L77.8793 71.224C76.9833 72.5467 75.6979 73.208 74.0233 73.208ZM80.8286 73V66.792H78.3006V64.344H86.3966V66.792H83.8686V73H80.8286ZM91.6665 73.208C90.3012 73.208 89.1865 72.792 88.3225 71.96C87.4585 71.128 87.0265 70.0347 87.0265 68.68C87.0265 67.4 87.4372 66.328 88.2585 65.464C89.0798 64.5893 90.1252 64.152 91.3945 64.152C92.8132 64.152 93.8958 64.6 94.6425 65.496C95.3892 66.392 95.7625 67.5227 95.7625 68.888C95.7625 69.1653 95.7572 69.3733 95.7465 69.512H89.9545C90.1998 70.4613 90.8238 70.936 91.8265 70.936C92.5092 70.936 93.1492 70.6427 93.7465 70.056L95.4265 71.448C94.4985 72.6213 93.2452 73.208 91.6665 73.208ZM89.9065 67.96H92.9145C92.8612 67.48 92.7012 67.1013 92.4345 66.824C92.1678 66.536 91.8265 66.392 91.4105 66.392C91.0158 66.392 90.6852 66.536 90.4185 66.824C90.1625 67.1013 89.9918 67.48 89.9065 67.96Z" fill="#83C150"/>
<rect x="143" y="15" width="59" height="28" rx="14" fill="#83C150"/>
<path d="M155.528 34V31.664L159.72 28.464C160.243 28.0693 160.611 27.7227 160.824 27.424C161.048 27.1147 161.16 26.7893 161.16 26.448C161.16 26.096 161.043 25.8187 160.808 25.616C160.584 25.4133 160.285 25.312 159.912 25.312C159.549 25.312 159.197 25.424 158.856 25.648C158.525 25.8613 158.136 26.2293 157.688 26.752L155.592 25.008C156.232 24.176 156.893 23.568 157.576 23.184C158.259 22.8 159.117 22.608 160.152 22.608C161.379 22.608 162.371 22.944 163.128 23.616C163.896 24.2773 164.28 25.1413 164.28 26.208C164.28 27.0507 164.077 27.7547 163.672 28.32C163.267 28.8747 162.605 29.4773 161.688 30.128L159.768 31.472H164.392V34H155.528ZM169.832 34.224C168.072 34.224 166.558 33.632 165.288 32.448L167.064 30.368C168.024 31.1787 168.931 31.584 169.784 31.584C170.296 31.584 170.696 31.4667 170.984 31.232C171.283 30.9867 171.432 30.656 171.432 30.24C171.432 29.8453 171.278 29.5307 170.968 29.296C170.67 29.0613 170.275 28.944 169.784 28.944C169.208 28.944 168.611 29.1307 167.992 29.504L166.152 28.48L166.472 22.8H173.96V25.36H168.92L168.824 27.056C169.39 26.7893 169.987 26.656 170.616 26.656C171.704 26.656 172.616 26.9653 173.352 27.584C174.088 28.192 174.456 29.0773 174.456 30.24C174.456 31.4667 174.03 32.4373 173.176 33.152C172.334 33.8667 171.219 34.224 169.832 34.224ZM176.855 34L185.495 22.8H187.655L179.015 34H176.855ZM188.071 33.28C187.527 33.8667 186.833 34.16 185.991 34.16C185.148 34.16 184.455 33.872 183.911 33.296C183.377 32.7093 183.111 31.9893 183.111 31.136C183.111 30.2933 183.377 29.584 183.911 29.008C184.444 28.4213 185.143 28.128 186.007 28.128C186.86 28.128 187.553 28.4213 188.087 29.008C188.62 29.584 188.887 30.2987 188.887 31.152C188.887 31.984 188.615 32.6933 188.071 33.28ZM185.335 32.048C185.516 32.2827 185.74 32.4 186.007 32.4C186.273 32.4 186.492 32.2827 186.663 32.048C186.844 31.8133 186.935 31.5093 186.935 31.136C186.935 30.7733 186.844 30.4747 186.663 30.24C186.492 30.0053 186.268 29.888 185.991 29.888C185.703 29.888 185.473 30.0053 185.303 30.24C185.143 30.464 185.062 30.768 185.062 31.152C185.062 31.504 185.153 31.8027 185.335 32.048ZM178.503 28.672C177.649 28.672 176.956 28.384 176.423 27.808C175.889 27.2213 175.623 26.5013 175.623 25.648C175.623 24.8053 175.889 24.096 176.423 23.52C176.956 22.9333 177.655 22.64 178.519 22.64C179.372 22.64 180.065 22.9333 180.599 23.52C181.132 24.096 181.399 24.8107 181.399 25.664C181.399 26.5067 181.127 27.2213 180.583 27.808C180.039 28.384 179.345 28.672 178.503 28.672ZM177.847 26.56C178.028 26.7947 178.252 26.912 178.519 26.912C178.785 26.912 179.004 26.7947 179.174 26.56C179.356 26.3253 179.447 26.0213 179.447 25.648C179.447 25.296 179.356 25.0027 179.174 24.768C178.993 24.5227 178.769 24.4 178.503 24.4C178.225 24.4 178.001 24.5173 177.831 24.752C177.66 24.9867 177.575 25.2907 177.575 25.664C177.575 26.0267 177.665 26.3253 177.847 26.56Z" fill="white"/>
<path d="M16.693 94V89.1H17.246V91.277H20.074V89.1H20.627V94H20.074V91.795H17.246V94H16.693ZM21.6614 94L23.8944 89.065H24.4124L26.6454 94H26.0504L25.4764 92.705H22.8094L22.2284 94H21.6614ZM23.0264 92.208H25.2594L24.1464 89.709L23.0264 92.208ZM30.6076 94V91.907C30.393 92.033 30.1386 92.145 29.8446 92.243C29.5553 92.341 29.301 92.39 29.0816 92.39C28.5963 92.39 28.2113 92.2663 27.9266 92.019C27.642 91.7717 27.4996 91.4147 27.4996 90.948V89.1H28.0526V90.857C28.0526 91.1697 28.146 91.417 28.3326 91.599C28.5193 91.781 28.783 91.872 29.1236 91.872C29.5763 91.872 30.071 91.7133 30.6076 91.396V89.1H31.1606V94H30.6076ZM32.6188 94V89.1H33.1718V91.277H35.9998V89.1H36.5528V94H35.9998V91.795H33.1718V94H32.6188ZM38.0072 94V89.1H38.5602V93.167L41.4862 89.1H42.0112V94H41.4652V89.933L38.5462 94H38.0072ZM44.7589 94V89.604H43.1139V89.1H46.9639V89.604H45.3189V94H44.7589ZM48.073 94V89.1H51.615V89.604H48.626V91.277H51.3V91.781H48.626V93.496H51.65V94H48.073ZM57.241 94.084C56.5364 94.084 55.9507 93.8413 55.484 93.356C55.0174 92.866 54.784 92.264 54.784 91.55C54.784 90.8453 55.0197 90.248 55.491 89.758C55.9624 89.2633 56.5527 89.016 57.262 89.016C57.6727 89.016 58.0227 89.0837 58.312 89.219C58.6014 89.3497 58.8837 89.5457 59.159 89.807L58.795 90.199C58.3237 89.751 57.8104 89.527 57.255 89.527C56.7137 89.527 56.261 89.7207 55.897 90.108C55.5377 90.4953 55.358 90.976 55.358 91.55C55.358 92.1193 55.54 92.6 55.904 92.992C56.268 93.3793 56.7184 93.573 57.255 93.573C57.5724 93.573 57.8524 93.5147 58.095 93.398C58.3377 93.2813 58.585 93.104 58.837 92.866L59.201 93.251C58.9257 93.5263 58.6364 93.734 58.333 93.874C58.0297 94.014 57.6657 94.084 57.241 94.084ZM64.313 93.342C63.8417 93.8367 63.242 94.084 62.514 94.084C61.786 94.084 61.1887 93.8367 60.722 93.342C60.2554 92.8473 60.022 92.25 60.022 91.55C60.022 90.8547 60.2577 90.2597 60.729 89.765C61.2004 89.2657 61.8 89.016 62.528 89.016C63.256 89.016 63.8534 89.2633 64.32 89.758C64.7867 90.2527 65.02 90.85 65.02 91.55C65.02 92.2453 64.7844 92.8427 64.313 93.342ZM61.142 92.985C61.5107 93.377 61.9727 93.573 62.528 93.573C63.0834 93.573 63.5407 93.3793 63.9 92.992C64.264 92.6 64.446 92.1193 64.446 91.55C64.446 90.9853 64.2617 90.507 63.893 90.115C63.529 89.723 63.0694 89.527 62.514 89.527C61.9587 89.527 61.499 89.723 61.135 90.115C60.7757 90.5023 60.596 90.9807 60.596 91.55C60.596 92.1147 60.778 92.593 61.142 92.985ZM67.5513 94V89.604H65.9063V89.1H69.7563V89.604H68.1113V94H67.5513ZM70.8653 94V89.1H72.6993C73.2593 89.1 73.705 89.24 74.0363 89.52C74.3677 89.8 74.5333 90.1827 74.5333 90.668C74.5333 91.1767 74.349 91.571 73.9803 91.851C73.6163 92.131 73.159 92.271 72.6083 92.271H71.4183V94H70.8653ZM71.4183 91.767H72.6293C73.0353 91.767 73.3597 91.669 73.6023 91.473C73.8497 91.2723 73.9733 91.0063 73.9733 90.675C73.9733 90.3343 73.8543 90.073 73.6163 89.891C73.383 89.7043 73.0633 89.611 72.6573 89.611H71.4183V91.767ZM76.3321 94.084C76.0428 94.084 75.7675 94.0163 75.5061 93.881L75.7231 93.44C75.9051 93.538 76.1128 93.587 76.3461 93.587C76.7428 93.587 77.0695 93.342 77.3261 92.852L75.1701 89.1H75.8001L77.6061 92.299L79.1671 89.1H79.7691L77.8301 92.971C77.4615 93.713 76.9621 94.084 76.3321 94.084ZM80.1577 95.092V93.496H80.6617C81.1564 92.7073 81.4037 91.5267 81.4037 89.954V89.1H84.6097V93.496H85.2467L85.1627 95.092H84.7007V94H80.7247L80.6267 95.092H80.1577ZM81.2847 93.496H84.0567V89.604H81.9357V90.241C81.9357 90.885 81.8774 91.5057 81.7607 92.103C81.6441 92.7003 81.4854 93.1647 81.2847 93.496ZM86.1281 94V89.1H86.6811V91.277H89.5091V89.1H90.0621V94H89.5091V91.795H86.6811V94H86.1281ZM91.5164 94V89.1H92.0694V93.167L94.9954 89.1H95.5204V94H94.9744V89.933L92.0554 94H91.5164ZM99.8992 94V91.907C99.6845 92.033 99.4302 92.145 99.1362 92.243C98.8468 92.341 98.5925 92.39 98.3732 92.39C97.8878 92.39 97.5028 92.2663 97.2182 92.019C96.9335 91.7717 96.7912 91.4147 96.7912 90.948V89.1H97.3442V90.857C97.3442 91.1697 97.4375 91.417 97.6242 91.599C97.8108 91.781 98.0745 91.872 98.4152 91.872C98.8678 91.872 99.3625 91.7133 99.8992 91.396V89.1H100.452V94H99.8992ZM101.91 94V89.1H105.452V89.604H102.463V91.277H105.137V91.781H102.463V93.496H105.487V94H101.91ZM108.91 94.084C108.205 94.084 107.619 93.8413 107.153 93.356C106.686 92.866 106.453 92.264 106.453 91.55C106.453 90.8453 106.688 90.248 107.16 89.758C107.631 89.2633 108.221 89.016 108.931 89.016C109.341 89.016 109.691 89.0837 109.981 89.219C110.27 89.3497 110.552 89.5457 110.828 89.807L110.464 90.199C109.992 89.751 109.479 89.527 108.924 89.527C108.382 89.527 107.93 89.7207 107.566 90.108C107.206 90.4953 107.027 90.976 107.027 91.55C107.027 92.1193 107.209 92.6 107.573 92.992C107.937 93.3793 108.387 93.573 108.924 93.573C109.241 93.573 109.521 93.5147 109.764 93.398C110.006 93.2813 110.254 93.104 110.506 92.866L110.87 93.251C110.594 93.5263 110.305 93.734 110.002 93.874C109.698 94.014 109.334 94.084 108.91 94.084ZM113.203 94V89.604H111.558V89.1H115.408V89.604H113.763V94H113.203ZM116.517 94V89.1H118.603C119.177 89.1 119.604 89.2447 119.884 89.534C120.094 89.7533 120.199 90.0193 120.199 90.332C120.199 90.864 119.94 91.242 119.422 91.466C120.122 91.676 120.472 92.075 120.472 92.663C120.472 93.0783 120.311 93.405 119.989 93.643C119.667 93.881 119.235 94 118.694 94H116.517ZM117.063 93.503H118.708C119.081 93.503 119.375 93.426 119.59 93.272C119.804 93.1133 119.912 92.894 119.912 92.614C119.912 92.3433 119.8 92.1357 119.576 91.991C119.356 91.8463 119.034 91.774 118.61 91.774H117.063V93.503ZM117.063 91.284H118.512C118.852 91.284 119.125 91.207 119.331 91.053C119.536 90.899 119.639 90.6797 119.639 90.395C119.639 90.1477 119.543 89.954 119.352 89.814C119.165 89.6693 118.899 89.597 118.554 89.597H117.063V91.284ZM125.713 93.342C125.241 93.8367 124.642 94.084 123.914 94.084C123.186 94.084 122.588 93.8367 122.122 93.342C121.655 92.8473 121.422 92.25 121.422 91.55C121.422 90.8547 121.657 90.2597 122.129 89.765C122.6 89.2657 123.2 89.016 123.928 89.016C124.656 89.016 125.253 89.2633 125.72 89.758C126.186 90.2527 126.42 90.85 126.42 91.55C126.42 92.2453 126.184 92.8427 125.713 93.342ZM122.542 92.985C122.91 93.377 123.372 93.573 123.928 93.573C124.483 93.573 124.94 93.3793 125.3 92.992C125.664 92.6 125.846 92.1193 125.846 91.55C125.846 90.9853 125.661 90.507 125.293 90.115C124.929 89.723 124.469 89.527 123.914 89.527C123.358 89.527 122.899 89.723 122.535 90.115C122.175 90.5023 121.996 90.9807 121.996 91.55C121.996 92.1147 122.178 92.593 122.542 92.985ZM130.545 94.084C130.256 94.084 129.981 94.0163 129.719 93.881L129.936 93.44C130.118 93.538 130.326 93.587 130.559 93.587C130.956 93.587 131.283 93.342 131.539 92.852L129.383 89.1H130.013L131.819 92.299L133.38 89.1H133.982L132.043 92.971C131.675 93.713 131.175 94.084 130.545 94.084ZM134.469 94L136.485 91.2L134.595 89.1H135.281L137.836 91.991V89.1H138.389V91.991L140.944 89.1H141.63L139.74 91.2L141.756 94H141.07L139.355 91.613L138.389 92.684V94H137.836V92.684L136.863 91.613L135.155 94H134.469ZM142.686 94V89.1H146.228V89.604H143.239V91.277H145.913V91.781H143.239V93.496H146.263V94H142.686ZM151.854 94.084C151.15 94.084 150.564 93.8413 150.097 93.356C149.631 92.866 149.397 92.264 149.397 91.55C149.397 90.8453 149.633 90.248 150.104 89.758C150.576 89.2633 151.166 89.016 151.875 89.016C152.286 89.016 152.636 89.0837 152.925 89.219C153.215 89.3497 153.497 89.5457 153.772 89.807L153.408 90.199C152.937 89.751 152.424 89.527 151.868 89.527C151.327 89.527 150.874 89.7207 150.51 90.108C150.151 90.4953 149.971 90.976 149.971 91.55C149.971 92.1193 150.153 92.6 150.517 92.992C150.881 93.3793 151.332 93.573 151.868 93.573C152.186 93.573 152.466 93.5147 152.708 93.398C152.951 93.2813 153.198 93.104 153.45 92.866L153.814 93.251C153.539 93.5263 153.25 93.734 152.946 93.874C152.643 94.014 152.279 94.084 151.854 94.084ZM154.852 94V89.1H158.394V89.604H155.405V91.277H158.079V91.781H155.405V93.496H158.429V94H154.852ZM159.612 94V89.1H160.165V93.167L163.091 89.1H163.616V94H163.07V89.933L160.151 94H159.612ZM162.314 88.456C162.132 88.6147 161.91 88.694 161.649 88.694C161.387 88.694 161.166 88.6147 160.984 88.456C160.802 88.2927 160.69 88.085 160.648 87.833L161.026 87.756C161.119 88.0827 161.327 88.246 161.649 88.246C161.971 88.246 162.178 88.0827 162.272 87.756L162.65 87.833C162.608 88.085 162.496 88.2927 162.314 88.456ZM167.994 94V91.907C167.78 92.033 167.525 92.145 167.231 92.243C166.942 92.341 166.688 92.39 166.468 92.39C165.983 92.39 165.598 92.2663 165.313 92.019C165.029 91.7717 164.886 91.4147 164.886 90.948V89.1H165.439V90.857C165.439 91.1697 165.533 91.417 165.719 91.599C165.906 91.781 166.17 91.872 166.51 91.872C166.963 91.872 167.458 91.7133 167.994 91.396V89.1H168.547V94H167.994ZM169.586 94L171.819 89.065H172.337L174.57 94H173.975L173.401 92.705H170.734L170.153 94H169.586ZM170.951 92.208H173.184L172.071 89.709L170.951 92.208ZM177.846 94.084C177.141 94.084 176.556 93.8413 176.089 93.356C175.622 92.866 175.389 92.264 175.389 91.55C175.389 90.8453 175.625 90.248 176.096 89.758C176.567 89.2633 177.158 89.016 177.867 89.016C178.278 89.016 178.628 89.0837 178.917 89.219C179.206 89.3497 179.489 89.5457 179.764 89.807L179.4 90.199C178.929 89.751 178.415 89.527 177.86 89.527C177.319 89.527 176.866 89.7207 176.502 90.108C176.143 90.4953 175.963 90.976 175.963 91.55C175.963 92.1193 176.145 92.6 176.509 92.992C176.873 93.3793 177.323 93.573 177.86 93.573C178.177 93.573 178.457 93.5147 178.7 93.398C178.943 93.2813 179.19 93.104 179.442 92.866L179.806 93.251C179.531 93.5263 179.241 93.734 178.938 93.874C178.635 94.014 178.271 94.084 177.846 94.084ZM16.693 106V101.1H17.246V105.167L20.172 101.1H20.697V106H20.151V101.933L17.232 106H16.693ZM25.8584 106.084C25.4384 106.084 25.072 106.012 24.7594 105.867C24.4514 105.718 24.1597 105.503 23.8844 105.223L24.2904 104.859C24.547 105.106 24.792 105.288 25.0254 105.405C25.2587 105.522 25.5317 105.58 25.8444 105.58C26.339 105.58 26.7637 105.41 27.1184 105.069C27.473 104.724 27.676 104.294 27.7274 103.781H25.2564V103.277H27.7204C27.6597 102.768 27.4544 102.348 27.1044 102.017C26.759 101.686 26.339 101.52 25.8444 101.52C25.2937 101.52 24.7804 101.746 24.3044 102.199L23.9544 101.821C24.2344 101.555 24.5144 101.354 24.7944 101.219C25.079 101.084 25.4267 101.016 25.8374 101.016C26.5467 101.016 27.137 101.263 27.6084 101.758C28.0797 102.248 28.3154 102.845 28.3154 103.55C28.3154 104.264 28.082 104.866 27.6154 105.356C27.1487 105.841 26.563 106.084 25.8584 106.084ZM29.5632 106V101.1H30.1162V104.026L32.9302 101.1H33.6442L31.5442 103.242L33.7352 106H33.0422L31.1592 103.627L30.1162 104.684V106H29.5632ZM38.7384 105.342C38.2671 105.837 37.6674 106.084 36.9394 106.084C36.2114 106.084 35.6141 105.837 35.1474 105.342C34.6807 104.847 34.4474 104.25 34.4474 103.55C34.4474 102.855 34.6831 102.26 35.1544 101.765C35.6257 101.266 36.2254 101.016 36.9534 101.016C37.6814 101.016 38.2787 101.263 38.7454 101.758C39.2121 102.253 39.4454 102.85 39.4454 103.55C39.4454 104.245 39.2097 104.843 38.7384 105.342ZM35.5674 104.985C35.9361 105.377 36.3981 105.573 36.9534 105.573C37.5087 105.573 37.9661 105.379 38.3254 104.992C38.6894 104.6 38.8714 104.119 38.8714 103.55C38.8714 102.985 38.6871 102.507 38.3184 102.115C37.9544 101.723 37.4947 101.527 36.9394 101.527C36.3841 101.527 35.9244 101.723 35.5604 102.115C35.2011 102.502 35.0214 102.981 35.0214 103.55C35.0214 104.115 35.2034 104.593 35.5674 104.985ZM40.6817 106V101.1H41.2347V103.277H44.0627V101.1H44.6157V106H44.0627V103.795H41.2347V106H40.6817ZM50.144 105.342C49.6727 105.837 49.073 106.084 48.345 106.084C47.617 106.084 47.0197 105.837 46.553 105.342C46.0864 104.847 45.853 104.25 45.853 103.55C45.853 102.855 46.0887 102.26 46.56 101.765C47.0314 101.266 47.631 101.016 48.359 101.016C49.087 101.016 49.6844 101.263 50.151 101.758C50.6177 102.253 50.851 102.85 50.851 103.55C50.851 104.245 50.6154 104.843 50.144 105.342ZM46.973 104.985C47.3417 105.377 47.8037 105.573 48.359 105.573C48.9144 105.573 49.3717 105.379 49.731 104.992C50.095 104.6 50.277 104.119 50.277 103.55C50.277 102.985 50.0927 102.507 49.724 102.115C49.36 101.723 48.9004 101.527 48.345 101.527C47.7897 101.527 47.33 101.723 46.966 102.115C46.6067 102.502 46.427 102.981 46.427 103.55C46.427 104.115 46.609 104.593 46.973 104.985ZM52.0873 106V101.1H52.6473L54.4323 103.774L56.2173 101.1H56.7773V106H56.2243V102.031L54.4393 104.656H54.4113L52.6263 102.038V106H52.0873ZM58.2344 106V101.1H58.7874V102.997H60.0264C60.5911 102.997 61.0484 103.116 61.3984 103.354C61.7531 103.592 61.9304 103.954 61.9304 104.439C61.9304 104.92 61.7648 105.3 61.4334 105.58C61.1068 105.86 60.6658 106 60.1104 106H58.2344ZM58.7874 105.496H60.0964C60.4978 105.496 60.8104 105.407 61.0344 105.23C61.2631 105.053 61.3774 104.794 61.3774 104.453C61.3774 104.14 61.2608 103.902 61.0274 103.739C60.7988 103.576 60.4768 103.494 60.0614 103.494H58.7874V105.496ZM64.3026 106V101.604H62.6576V101.1H66.5076V101.604H64.8626V106H64.3026ZM67.6166 106V101.1H71.1586V101.604H68.1696V103.277H70.8436V103.781H68.1696V105.496H71.1936V106H67.6166ZM74.1877 106V105.573L75.9657 104.005C76.3484 103.669 76.6144 103.389 76.7637 103.165C76.9131 102.941 76.9877 102.708 76.9877 102.465C76.9877 102.185 76.8921 101.959 76.7007 101.786C76.5094 101.613 76.2761 101.527 76.0007 101.527C75.7347 101.527 75.4991 101.595 75.2937 101.73C75.0931 101.865 74.8901 102.078 74.6847 102.367L74.2787 102.073C74.5167 101.718 74.7687 101.457 75.0347 101.289C75.3007 101.116 75.6367 101.03 76.0427 101.03C76.4814 101.03 76.8431 101.163 77.1277 101.429C77.4171 101.69 77.5617 102.024 77.5617 102.43C77.5617 102.766 77.4707 103.065 77.2887 103.326C77.1067 103.587 76.7847 103.923 76.3227 104.334L75.0137 105.496H77.6107V106H74.1877ZM80.2331 106.084C79.5845 106.084 79.0011 105.825 78.4831 105.307L78.8471 104.908C79.3091 105.356 79.7735 105.58 80.2401 105.58C80.5901 105.58 80.8748 105.477 81.0941 105.272C81.3135 105.067 81.4231 104.803 81.4231 104.481C81.4231 104.178 81.3088 103.93 81.0801 103.739C80.8561 103.548 80.5645 103.452 80.2051 103.452C79.8691 103.452 79.5261 103.545 79.1761 103.732L78.8051 103.487L78.9451 101.1H81.7661V101.611H79.4281L79.3231 103.179C79.6545 103.034 79.9765 102.962 80.2891 102.962C80.7791 102.962 81.1828 103.1 81.5001 103.375C81.8221 103.646 81.9831 104.012 81.9831 104.474C81.9831 104.95 81.8198 105.337 81.4931 105.636C81.1665 105.935 80.7465 106.084 80.2331 106.084ZM84.7363 103.179C84.5263 103.426 84.2603 103.55 83.9383 103.55C83.6163 103.55 83.3503 103.429 83.1403 103.186C82.935 102.939 82.8323 102.642 82.8323 102.297C82.8323 101.956 82.9373 101.662 83.1473 101.415C83.3573 101.168 83.6256 101.044 83.9523 101.044C84.2743 101.044 84.538 101.168 84.7433 101.415C84.9486 101.658 85.0513 101.952 85.0513 102.297C85.0513 102.638 84.9463 102.932 84.7363 103.179ZM83.3363 106L86.9343 101.1H87.4313L83.8403 106H83.3363ZM86.8223 106.056C86.5003 106.056 86.2366 105.935 86.0313 105.692C85.826 105.445 85.7233 105.148 85.7233 104.803C85.7233 104.462 85.8283 104.168 86.0383 103.921C86.2483 103.674 86.5143 103.55 86.8363 103.55C87.1583 103.55 87.422 103.674 87.6273 103.921C87.8326 104.164 87.9353 104.458 87.9353 104.803C87.9353 105.148 87.8303 105.445 87.6203 105.692C87.415 105.935 87.149 106.056 86.8223 106.056ZM83.9523 103.158C84.139 103.158 84.2906 103.076 84.4073 102.913C84.5286 102.745 84.5893 102.54 84.5893 102.297C84.5893 102.054 84.5263 101.851 84.4003 101.688C84.2743 101.52 84.1203 101.436 83.9383 101.436C83.7516 101.436 83.5976 101.52 83.4763 101.688C83.3596 101.851 83.3013 102.054 83.3013 102.297C83.3013 102.54 83.3643 102.745 83.4903 102.913C83.6163 103.076 83.7703 103.158 83.9523 103.158ZM86.8363 105.664C87.0276 105.664 87.1816 105.582 87.2983 105.419C87.415 105.256 87.4733 105.05 87.4733 104.803C87.4733 104.56 87.4103 104.357 87.2843 104.194C87.1583 104.026 87.0043 103.942 86.8223 103.942C86.6356 103.942 86.4816 104.026 86.3603 104.194C86.2436 104.357 86.1853 104.56 86.1853 104.803C86.1853 105.046 86.2483 105.251 86.3743 105.419C86.5003 105.582 86.6543 105.664 86.8363 105.664ZM91.2378 106V101.1H91.7908V103.277H94.6188V101.1H95.1718V106H94.6188V103.795H91.7908V106H91.2378ZM96.2062 106L98.4392 101.065H98.9572L101.19 106H100.595L100.021 104.705H97.3542L96.7732 106H96.2062ZM97.5712 104.208H99.8042L98.6912 101.709L97.5712 104.208ZM104.024 106L105.907 103.501L104.094 101.1H104.745L106.25 103.102L107.741 101.1H108.385L106.572 103.494L108.455 106H107.797L106.229 103.893L104.661 106H104.024ZM109.537 106V101.1H111.371C111.931 101.1 112.377 101.24 112.708 101.52C113.04 101.8 113.205 102.183 113.205 102.668C113.205 103.177 113.021 103.571 112.652 103.851C112.288 104.131 111.831 104.271 111.28 104.271H110.09V106H109.537ZM110.09 103.767H111.301C111.707 103.767 112.032 103.669 112.274 103.473C112.522 103.272 112.645 103.006 112.645 102.675C112.645 102.334 112.526 102.073 112.288 101.891C112.055 101.704 111.735 101.611 111.329 101.611H110.09V103.767ZM113.863 106L116.096 101.065H116.614L118.847 106H118.252L117.678 104.705H115.011L114.43 106H113.863ZM115.228 104.208H117.461L116.348 101.709L115.228 104.208ZM119.883 106V101.1H120.436V103.277H123.264V101.1H123.817V106H123.264V103.795H120.436V106H119.883ZM125.272 106V101.1H128.814V101.604H125.825V103.277H128.499V103.781H125.825V105.496H128.849V106H125.272ZM130.031 106V101.1H130.584V103.277H133.412V101.1H133.965V106H133.412V103.795H130.584V106H130.031ZM135.42 106V101.1H135.973V105.167L138.899 101.1H139.424V106H138.878V101.933L135.959 106H135.42ZM140.876 106V101.1H141.429V105.167L144.355 101.1H144.88V106H144.334V101.933L141.415 106H140.876ZM146.046 106.854L145.962 106.609C146.275 106.492 146.431 106.313 146.431 106.07V106H146.179V105.265H146.823V105.895C146.823 106.175 146.76 106.39 146.634 106.539C146.513 106.688 146.317 106.793 146.046 106.854ZM17.414 118.084C17.1247 118.084 16.8493 118.016 16.588 117.881L16.805 117.44C16.987 117.538 17.1947 117.587 17.428 117.587C17.8247 117.587 18.1513 117.342 18.408 116.852L16.252 113.1H16.882L18.688 116.299L20.249 113.1H20.851L18.912 116.971C18.5433 117.713 18.044 118.084 17.414 118.084ZM21.8626 118V113.1H25.7266V118H25.1736V113.604H22.4156V118H21.8626ZM26.7626 118L28.9956 113.065H29.5136L31.7466 118H31.1516L30.5776 116.705H27.9106L27.3296 118H26.7626ZM28.1276 116.208H30.3606L29.2476 113.709L28.1276 116.208ZM32.7829 118V113.1H33.3359V116.026L36.1499 113.1H36.8639L34.7639 115.242L36.9549 118H36.2619L34.3789 115.627L33.3359 116.684V118H32.7829ZM41.9581 117.342C41.4868 117.837 40.8871 118.084 40.1591 118.084C39.4311 118.084 38.8338 117.837 38.3671 117.342C37.9005 116.847 37.6671 116.25 37.6671 115.55C37.6671 114.855 37.9028 114.26 38.3741 113.765C38.8455 113.266 39.4451 113.016 40.1731 113.016C40.9011 113.016 41.4985 113.263 41.9651 113.758C42.4318 114.253 42.6651 114.85 42.6651 115.55C42.6651 116.245 42.4295 116.843 41.9581 117.342ZM38.7871 116.985C39.1558 117.377 39.6178 117.573 40.1731 117.573C40.7285 117.573 41.1858 117.379 41.5451 116.992C41.9091 116.6 42.0911 116.119 42.0911 115.55C42.0911 114.985 41.9068 114.507 41.5381 114.115C41.1741 113.723 40.7145 113.527 40.1591 113.527C39.6038 113.527 39.1441 113.723 38.7801 114.115C38.4208 114.502 38.2411 114.981 38.2411 115.55C38.2411 116.115 38.4231 116.593 38.7871 116.985ZM43.9014 118V113.1H45.9874C46.5614 113.1 46.9884 113.245 47.2684 113.534C47.4784 113.753 47.5834 114.019 47.5834 114.332C47.5834 114.864 47.3244 115.242 46.8064 115.466C47.5064 115.676 47.8564 116.075 47.8564 116.663C47.8564 117.078 47.6954 117.405 47.3734 117.643C47.0514 117.881 46.6197 118 46.0784 118H43.9014ZM44.4474 117.503H46.0924C46.4657 117.503 46.7597 117.426 46.9744 117.272C47.1891 117.113 47.2964 116.894 47.2964 116.614C47.2964 116.343 47.1844 116.136 46.9604 115.991C46.7411 115.846 46.4191 115.774 45.9944 115.774H44.4474V117.503ZM44.4474 115.284H45.8964C46.2371 115.284 46.5101 115.207 46.7154 115.053C46.9207 114.899 47.0234 114.68 47.0234 114.395C47.0234 114.148 46.9277 113.954 46.7364 113.814C46.5497 113.669 46.2837 113.597 45.9384 113.597H44.4474V115.284ZM49.0232 118V113.1H49.5762V116.026L52.3902 113.1H53.1042L51.0042 115.242L53.1952 118H52.5022L50.6192 115.627L49.5762 116.684V118H49.0232ZM54.1244 118V113.1H57.6664V113.604H54.6774V115.277H57.3514V115.781H54.6774V117.496H57.7014V118H54.1244ZM61.0525 118V113.1H61.6055V117.167L64.5315 113.1H65.0565V118H64.5105V113.933L61.5915 118H61.0525ZM68.0548 119.092V117.496H68.5588C69.0535 116.707 69.3008 115.527 69.3008 113.954V113.1H72.5068V117.496H73.1438L73.0598 119.092H72.5978V118H68.6218L68.5238 119.092H68.0548ZM69.1818 117.496H71.9538V113.604H69.8328V114.241C69.8328 114.885 69.7745 115.506 69.6578 116.103C69.5412 116.7 69.3825 117.165 69.1818 117.496ZM78.0992 117.342C77.6279 117.837 77.0282 118.084 76.3002 118.084C75.5722 118.084 74.9749 117.837 74.5082 117.342C74.0415 116.847 73.8082 116.25 73.8082 115.55C73.8082 114.855 74.0439 114.26 74.5152 113.765C74.9865 113.266 75.5862 113.016 76.3142 113.016C77.0422 113.016 77.6395 113.263 78.1062 113.758C78.5729 114.253 78.8062 114.85 78.8062 115.55C78.8062 116.245 78.5705 116.843 78.0992 117.342ZM74.9282 116.985C75.2969 117.377 75.7589 117.573 76.3142 117.573C76.8695 117.573 77.3269 117.379 77.6862 116.992C78.0502 116.6 78.2322 116.119 78.2322 115.55C78.2322 114.985 78.0479 114.507 77.6792 114.115C77.3152 113.723 76.8555 113.527 76.3002 113.527C75.7449 113.527 75.2852 113.723 74.9212 114.115C74.5619 114.502 74.3822 114.981 74.3822 115.55C74.3822 116.115 74.5642 116.593 74.9282 116.985ZM82.2825 118.084C81.5778 118.084 80.9921 117.841 80.5255 117.356C80.0588 116.866 79.8255 116.264 79.8255 115.55C79.8255 114.845 80.0611 114.248 80.5325 113.758C81.0038 113.263 81.5941 113.016 82.3035 113.016C82.7141 113.016 83.0641 113.084 83.3535 113.219C83.6428 113.35 83.9251 113.546 84.2005 113.807L83.8365 114.199C83.3651 113.751 82.8518 113.527 82.2965 113.527C81.7551 113.527 81.3025 113.721 80.9385 114.108C80.5791 114.495 80.3995 114.976 80.3995 115.55C80.3995 116.119 80.5815 116.6 80.9455 116.992C81.3095 117.379 81.7598 117.573 82.2965 117.573C82.6138 117.573 82.8938 117.515 83.1365 117.398C83.3791 117.281 83.6265 117.104 83.8785 116.866L84.2425 117.251C83.9671 117.526 83.6778 117.734 83.3745 117.874C83.0711 118.014 82.7071 118.084 82.2825 118.084ZM86.5754 118V113.604H84.9304V113.1H88.7804V113.604H87.1354V118H86.5754ZM89.4695 118L91.7025 113.065H92.2205L94.4535 118H93.8585L93.2845 116.705H90.6175L90.0365 118H89.4695ZM90.8345 116.208H93.0675L91.9545 113.709L90.8345 116.208ZM95.4898 118V113.1H97.5758C98.1498 113.1 98.5768 113.245 98.8568 113.534C99.0668 113.753 99.1718 114.019 99.1718 114.332C99.1718 114.864 98.9128 115.242 98.3948 115.466C99.0948 115.676 99.4448 116.075 99.4448 116.663C99.4448 117.078 99.2838 117.405 98.9618 117.643C98.6398 117.881 98.2081 118 97.6668 118H95.4898ZM96.0358 117.503H97.6808C98.0541 117.503 98.3481 117.426 98.5628 117.272C98.7774 117.113 98.8848 116.894 98.8848 116.614C98.8848 116.343 98.7728 116.136 98.5488 115.991C98.3294 115.846 98.0074 115.774 97.5828 115.774H96.0358V117.503ZM96.0358 115.284H97.4848C97.8254 115.284 98.0984 115.207 98.3038 115.053C98.5091 114.899 98.6118 114.68 98.6118 114.395C98.6118 114.148 98.5161 113.954 98.3248 113.814C98.1381 113.669 97.8721 113.597 97.5268 113.597H96.0358V115.284ZM100.612 118V113.1H101.165V116.026L103.979 113.1H104.693L102.593 115.242L104.784 118H104.091L102.208 115.627L101.165 116.684V118H100.612ZM105.713 118V113.1H109.255V113.604H106.266V115.277H108.94V115.781H106.266V117.496H109.29V118H105.713ZM112.641 118V113.1H114.727C115.301 113.1 115.728 113.245 116.008 113.534C116.218 113.753 116.323 114.019 116.323 114.332C116.323 114.864 116.064 115.242 115.546 115.466C116.246 115.676 116.596 116.075 116.596 116.663C116.596 117.078 116.435 117.405 116.113 117.643C115.791 117.881 115.359 118 114.818 118H112.641ZM113.187 117.503H114.832C115.205 117.503 115.499 117.426 115.714 117.272C115.929 117.113 116.036 116.894 116.036 116.614C116.036 116.343 115.924 116.136 115.7 115.991C115.481 115.846 115.159 115.774 114.734 115.774H113.187V117.503ZM113.187 115.284H114.636C114.977 115.284 115.25 115.207 115.455 115.053C115.66 114.899 115.763 114.68 115.763 114.395C115.763 114.148 115.667 113.954 115.476 113.814C115.289 113.669 115.023 113.597 114.678 113.597H113.187V115.284ZM119.511 118L121.744 113.065H122.262L124.495 118H123.9L123.326 116.705H120.659L120.078 118H119.511ZM120.876 116.208H123.109L121.996 113.709L120.876 116.208ZM125.532 118V113.1H127.618C128.192 113.1 128.619 113.245 128.899 113.534C129.109 113.753 129.214 114.019 129.214 114.332C129.214 114.864 128.955 115.242 128.437 115.466C129.137 115.676 129.487 116.075 129.487 116.663C129.487 117.078 129.326 117.405 129.004 117.643C128.682 117.881 128.25 118 127.709 118H125.532ZM126.078 117.503H127.723C128.096 117.503 128.39 117.426 128.605 117.272C128.819 117.113 128.927 116.894 128.927 116.614C128.927 116.343 128.815 116.136 128.591 115.991C128.371 115.846 128.049 115.774 127.625 115.774H126.078V117.503ZM126.078 115.284H127.527C127.867 115.284 128.14 115.207 128.346 115.053C128.551 114.899 128.654 114.68 128.654 114.395C128.654 114.148 128.558 113.954 128.367 113.814C128.18 113.669 127.914 113.597 127.569 113.597H126.078V115.284ZM130.653 118V113.1H133.782V113.604H131.206V118H130.653ZM135.566 118.084C135.277 118.084 135.002 118.016 134.74 117.881L134.957 117.44C135.139 117.538 135.347 117.587 135.58 117.587C135.977 117.587 136.304 117.342 136.56 116.852L134.404 113.1H135.034L136.84 116.299L138.401 113.1H139.003L137.064 116.971C136.696 117.713 136.196 118.084 135.566 118.084ZM142.255 118.084C141.55 118.084 140.965 117.841 140.498 117.356C140.031 116.866 139.798 116.264 139.798 115.55C139.798 114.845 140.034 114.248 140.505 113.758C140.976 113.263 141.567 113.016 142.276 113.016C142.687 113.016 143.037 113.084 143.326 113.219C143.615 113.35 143.898 113.546 144.173 113.807L143.809 114.199C143.338 113.751 142.824 113.527 142.269 113.527C141.728 113.527 141.275 113.721 140.911 114.108C140.552 114.495 140.372 114.976 140.372 115.55C140.372 116.119 140.554 116.6 140.918 116.992C141.282 117.379 141.732 117.573 142.269 117.573C142.586 117.573 142.866 117.515 143.109 117.398C143.352 117.281 143.599 117.104 143.851 116.866L144.215 117.251C143.94 117.526 143.65 117.734 143.347 117.874C143.044 118.014 142.68 118.084 142.255 118.084ZM146.548 118V113.604H144.903V113.1H148.753V113.604H147.108V118H146.548ZM149.862 118V113.1H153.404V113.604H150.415V115.277H153.089V115.781H150.415V117.496H153.439V118H149.862ZM154.726 116.614L154.565 113.499V113.1H155.195V113.499L155.027 116.614H154.726ZM154.558 118V117.265H155.202V118H154.558Z" fill="#393939"/>
<path d="M219.541 145.036C216.075 132.524 206.974 122.262 199.863 117.527C192.752 112.792 183.335 110.664 178.307 114.367C173.595 117.842 176.364 124.593 184.22 127.158C192.076 129.722 206.295 135.004 212.183 140.554C216.108 144.193 218.459 146.676 218.459 146.676L219.541 145.036Z" fill="#83C150"/>
<path opacity="0.15" d="M219.541 145.036C216.075 132.524 206.974 122.262 199.863 117.527C192.752 112.792 183.335 110.664 178.307 114.367C173.595 117.842 176.364 124.593 184.22 127.158C192.076 129.722 206.295 135.004 212.183 140.554C216.108 144.193 218.459 146.676 218.459 146.676L219.541 145.036Z" fill="black"/>
<path d="M217.748 142.749C217.668 142.768 217.584 142.76 217.508 142.726C217.433 142.692 217.371 142.633 217.333 142.56C208.765 126.889 190.968 117.594 181.925 117.153C181.826 117.147 181.733 117.102 181.667 117.028C181.6 116.955 181.565 116.858 181.569 116.759C181.571 116.709 181.583 116.661 181.604 116.616C181.625 116.571 181.655 116.531 181.691 116.498C181.728 116.465 181.771 116.439 181.818 116.423C181.864 116.406 181.914 116.399 181.963 116.402C191.173 116.853 209.32 126.286 217.988 142.204C218.012 142.247 218.029 142.294 218.035 142.343C218.041 142.392 218.037 142.441 218.024 142.489C218.01 142.536 217.987 142.58 217.956 142.618C217.925 142.657 217.887 142.688 217.843 142.711L217.748 142.749Z" fill="white"/>
<path d="M206.56 130.672C206.397 127.676 203.206 123.966 198.518 118.874C193.325 113.238 185.99 109.559 184.942 105.818C183.685 101.362 187.876 98.374 194.016 100.586C200.156 102.798 209.307 113.929 208.143 127.311L206.56 130.672Z" fill="#83C150"/>
<path d="M207.646 129.702C207.578 129.68 207.518 129.639 207.473 129.584C207.427 129.529 207.399 129.462 207.39 129.392C205.465 113.565 195.46 105.896 190.438 104.056C190.391 104.039 190.349 104.013 190.312 103.98C190.276 103.947 190.246 103.907 190.226 103.862C190.205 103.817 190.193 103.769 190.191 103.72C190.188 103.67 190.196 103.621 190.213 103.575C190.229 103.528 190.255 103.486 190.289 103.449C190.322 103.413 190.362 103.383 190.407 103.363C190.451 103.342 190.5 103.33 190.549 103.328C190.598 103.325 190.648 103.333 190.694 103.35C196.244 105.391 206.164 113.145 208.135 129.298C208.146 129.398 208.117 129.498 208.055 129.577C207.992 129.655 207.901 129.706 207.802 129.718C207.749 129.724 207.696 129.719 207.646 129.702Z" fill="white"/>
<path d="M202.797 111.872L231.682 95.1663L264.487 114.149L235.596 130.861L202.797 111.872Z" fill="#83C150"/>
<g opacity="0.7">
<path opacity="0.7" d="M202.799 111.872L231.684 95.1661L264.489 114.149L235.598 130.861L202.799 111.872Z" fill="white"/>
</g>
<path opacity="0.1" d="M261.11 112.192L233.073 128.415L203.653 111.383L231.684 95.1663L261.11 112.192Z" fill="black"/>
<path d="M235.596 152.551L202.797 133.569V111.872L235.596 130.861V152.551Z" fill="#83C150"/>
<g opacity="0.6">
<path opacity="0.6" d="M235.598 152.551L202.799 133.569V111.872L235.598 130.861V152.551Z" fill="white"/>
</g>
<path d="M235.598 152.558L264.489 135.845V114.149L235.598 130.861V152.558Z" fill="#83C150"/>
<g opacity="0.4">
<path opacity="0.4" d="M235.597 152.558L264.488 135.845V114.149L235.597 130.861V152.558Z" fill="white"/>
</g>
<path d="M251.456 124.971L249.336 126.197V122.896L251.456 121.67V124.971Z" fill="#37474F"/>
<path d="M249.334 122.897L216.529 103.914L218.656 102.688L251.455 121.67L249.334 122.897Z" fill="#393939"/>
<path d="M248.089 119.726L245.969 120.952L244.762 120.267L246.896 119.034L248.089 119.726Z" fill="#37474F"/>
<path d="M260.353 127.802L252.845 132.14C252.746 132.203 252.663 132.29 252.604 132.392C252.545 132.494 252.511 132.609 252.506 132.727V137.945C252.506 138.376 252.813 138.552 253.158 138.337L260.667 133.999C260.764 133.933 260.845 133.846 260.904 133.745C260.963 133.643 260.998 133.529 261.006 133.412V128.193C261.032 127.763 260.725 127.587 260.353 127.802Z" fill="#FAFAFA"/>
<path d="M260.542 128.61L260.287 128.76V133.366L260.542 133.222V128.61Z" fill="#393939"/>
<path d="M259.498 129.211L259.061 129.472V134.077L259.498 133.823V129.211Z" fill="#393939"/>
<path d="M258.461 129.811L258.206 129.961V134.566L258.461 134.423V129.811Z" fill="#393939"/>
<path d="M257.678 130.261L257.162 130.561V135.166L257.678 134.866V130.261Z" fill="#393939"/>
<path d="M256.38 131.011L256.126 131.161V135.767L256.38 135.623V131.011Z" fill="#393939"/>
<path d="M255.63 131.435L255.082 131.761V136.367L255.63 136.047V131.435Z" fill="#393939"/>
<path d="M254.299 132.212L254.045 132.362V136.967L254.299 136.824V132.212Z" fill="#393939"/>
<path d="M253.705 132.551L253.575 132.622V137.234L253.705 137.156V132.551Z" fill="#393939"/>
<path d="M254.777 131.964L254.646 132.035V136.647L254.777 136.569V131.964Z" fill="#393939"/>
<path d="M256.868 130.738L256.738 130.809V135.421L256.868 135.343V130.738Z" fill="#393939"/>
<path d="M258.017 130.078L257.887 130.15V134.756L258.017 134.684V130.078Z" fill="#393939"/>
<path d="M258.838 129.622L258.707 129.7V134.305L258.838 134.227V129.622Z" fill="#393939"/>
<path d="M259.954 128.943L259.83 129.015V133.627L259.954 133.549V128.943Z" fill="#393939"/>
<path d="M253.262 132.811L253.001 132.961V137.567L253.262 137.423V132.811Z" fill="#393939"/>
<path d="M199.973 86.523L228.858 69.8171L261.657 88.7996L232.772 105.506L199.973 86.523Z" fill="#83C150"/>
<g opacity="0.8">
<path opacity="0.8" d="M199.973 86.5228L228.858 69.8168L261.657 88.7994L232.772 105.505L199.973 86.5228Z" fill="white"/>
</g>
<path d="M232.772 127.202L199.973 108.219V86.523L232.772 105.506V127.202Z" fill="#83C150"/>
<g opacity="0.7">
<path opacity="0.7" d="M232.772 127.201L199.973 108.219V86.5226L232.772 105.505V127.201Z" fill="white"/>
</g>
<path d="M228.754 119.889C228.483 119.699 228.261 119.448 228.107 119.155C227.953 118.862 227.87 118.537 227.867 118.206V115.643L229.667 116.699H229.785V116.869V119.165C229.8 119.314 229.775 119.464 229.713 119.601C229.651 119.737 229.554 119.855 229.432 119.941C229.348 119.993 229.251 120.02 229.152 120.02C229.01 120.012 228.873 119.967 228.754 119.889ZM228.956 117.117L228.819 118.023H228.167V118.206C228.172 118.486 228.242 118.76 228.371 119.008C228.5 119.256 228.685 119.47 228.911 119.635C228.966 119.677 229.031 119.703 229.1 119.711C229.169 119.719 229.239 119.709 229.302 119.68C229.378 119.617 229.437 119.535 229.474 119.443C229.51 119.35 229.523 119.25 229.511 119.152V117.006L228.956 117.117ZM228.695 116.869L229.23 116.778L228.154 116.125V117.71H228.571L228.695 116.869Z" fill="#393939"/>
<path d="M228.826 121.839C228.864 121.839 228.9 121.824 228.927 121.797C228.954 121.771 228.969 121.734 228.969 121.696V119.739C228.969 119.701 228.954 119.664 228.927 119.638C228.9 119.611 228.864 119.596 228.826 119.596C228.788 119.596 228.751 119.611 228.724 119.638C228.697 119.664 228.682 119.701 228.682 119.739V121.696C228.682 121.734 228.697 121.771 228.724 121.797C228.751 121.824 228.788 121.839 228.826 121.839Z" fill="#393939"/>
<path d="M229.667 122.322C229.697 122.321 229.726 122.312 229.751 122.294C229.775 122.277 229.794 122.252 229.804 122.224C229.823 122.191 229.828 122.152 229.818 122.116C229.809 122.079 229.785 122.048 229.752 122.029L228.069 121.057C228.036 121.038 227.997 121.032 227.96 121.042C227.924 121.052 227.892 121.076 227.873 121.109C227.854 121.142 227.849 121.181 227.859 121.217C227.869 121.254 227.893 121.285 227.925 121.304L229.608 122.276C229.623 122.297 229.644 122.313 229.667 122.322Z" fill="#393939"/>
<path d="M223.685 118.995C223.74 118.996 223.794 118.982 223.842 118.956C223.899 118.919 223.946 118.868 223.977 118.807C224.008 118.746 224.022 118.678 224.018 118.61V118.213C224.018 118.193 224.014 118.174 224.007 118.156C223.999 118.138 223.988 118.122 223.974 118.109C223.96 118.095 223.943 118.085 223.925 118.078C223.907 118.071 223.887 118.068 223.868 118.069C223.83 118.069 223.794 118.084 223.767 118.111C223.74 118.138 223.725 118.174 223.725 118.213V118.61C223.725 118.669 223.725 118.702 223.725 118.708C223.695 118.717 223.663 118.717 223.633 118.708C223.543 118.626 223.472 118.525 223.425 118.412C223.378 118.299 223.355 118.178 223.359 118.056V115.486C223.359 115.448 223.344 115.411 223.317 115.384C223.29 115.357 223.254 115.342 223.216 115.342C223.178 115.342 223.141 115.357 223.114 115.384C223.087 115.411 223.072 115.448 223.072 115.486V118.056C223.066 118.228 223.1 118.398 223.171 118.555C223.242 118.711 223.349 118.849 223.483 118.956C223.547 118.985 223.616 118.998 223.685 118.995Z" fill="#393939"/>
<path d="M221.363 114.534V114.449C221.332 114.198 221.371 113.943 221.476 113.713C221.581 113.482 221.747 113.286 221.957 113.144C222.181 113.038 222.429 112.993 222.675 113.015C222.922 113.037 223.158 113.124 223.359 113.268C223.897 113.619 224.344 114.093 224.665 114.649C224.986 115.205 225.171 115.83 225.206 116.471V116.719L221.363 114.534ZM222.1 113.425C221.951 113.529 221.832 113.671 221.754 113.836C221.677 114 221.643 114.182 221.657 114.364L224.919 116.243C224.845 115.699 224.656 115.178 224.365 114.713C224.074 114.248 223.686 113.851 223.229 113.549C223.011 113.412 222.762 113.336 222.505 113.327C222.364 113.323 222.224 113.356 222.1 113.425Z" fill="#393939"/>
<path d="M218.494 116.04C218.513 116.04 218.532 116.036 218.55 116.029C218.568 116.021 218.584 116.01 218.597 115.996C218.611 115.982 218.621 115.965 218.628 115.947C218.635 115.929 218.638 115.91 218.637 115.89V110.972C218.637 110.934 218.622 110.897 218.595 110.87C218.568 110.843 218.532 110.828 218.494 110.828C218.456 110.828 218.419 110.843 218.392 110.87C218.365 110.897 218.35 110.934 218.35 110.972V115.89C218.349 115.91 218.352 115.929 218.359 115.947C218.366 115.965 218.376 115.982 218.39 115.996C218.403 116.01 218.419 116.021 218.437 116.029C218.455 116.036 218.474 116.04 218.494 116.04Z" fill="#393939"/>
<path d="M218.917 112.094H218.976C219.011 112.077 219.038 112.047 219.051 112.01C219.064 111.974 219.063 111.934 219.047 111.898L218.532 110.711L217.958 111.363C217.944 111.376 217.933 111.392 217.925 111.409C217.917 111.426 217.913 111.445 217.913 111.464C217.913 111.483 217.917 111.502 217.925 111.52C217.933 111.537 217.944 111.553 217.958 111.565C217.985 111.592 218.021 111.607 218.059 111.607C218.097 111.607 218.133 111.592 218.16 111.565L218.434 111.252L218.767 112.016C218.78 112.044 218.801 112.066 218.828 112.081C218.856 112.095 218.887 112.099 218.917 112.094Z" fill="#393939"/>
<path d="M217.156 115.278C217.194 115.278 217.23 115.263 217.257 115.236C217.284 115.209 217.299 115.172 217.299 115.134V110.216C217.299 110.178 217.284 110.141 217.257 110.114C217.23 110.087 217.194 110.072 217.156 110.072C217.118 110.072 217.081 110.087 217.054 110.114C217.027 110.141 217.012 110.178 217.012 110.216V115.134C217.012 115.172 217.027 115.209 217.054 115.236C217.081 115.263 217.118 115.278 217.156 115.278Z" fill="#393939"/>
<path d="M217.581 111.337H217.64C217.674 111.322 217.701 111.293 217.715 111.258C217.728 111.222 217.727 111.183 217.711 111.148L217.203 109.954L216.628 110.607C216.606 110.636 216.595 110.672 216.599 110.709C216.602 110.745 216.619 110.779 216.647 110.803C216.674 110.827 216.71 110.84 216.747 110.839C216.783 110.837 216.818 110.822 216.844 110.796L217.118 110.483L217.45 111.246C217.461 111.272 217.479 111.294 217.503 111.31C217.526 111.327 217.553 111.336 217.581 111.337Z" fill="#393939"/>
<path d="M232.773 127.202L261.658 110.496V88.7996L232.773 105.506V127.202Z" fill="#83C150"/>
<g opacity="0.6">
<path opacity="0.6" d="M232.771 127.202L261.656 110.496V88.7997L232.771 105.506V127.202Z" fill="#B0D78F"/>
</g>
<path d="M248.631 99.6149L246.504 100.841V97.547L248.631 96.3207V99.6149Z" fill="#37474F"/>
<path d="M246.503 97.5465L213.705 78.564L215.825 77.3376L248.63 96.3201L246.503 97.5465Z" fill="#393939"/>
<path d="M257.522 102.446L250.027 106.784C249.929 106.85 249.848 106.937 249.789 107.038C249.73 107.14 249.696 107.254 249.688 107.371V112.59C249.688 113.014 249.994 113.19 250.34 112.975L257.855 108.65C257.953 108.585 258.035 108.499 258.094 108.397C258.153 108.295 258.187 108.18 258.194 108.063V102.844C258.2 102.407 257.9 102.237 257.522 102.446Z" fill="#FAFAFA"/>
<path d="M257.71 103.262L257.456 103.412V108.017L257.71 107.867V103.262Z" fill="#393939"/>
<path d="M256.674 103.861L256.231 104.122V108.728L256.674 108.467V103.861Z" fill="#393939"/>
<path d="M255.629 104.462L255.375 104.612V109.217L255.629 109.067V104.462Z" fill="#393939"/>
<path d="M254.847 104.905L254.338 105.212V109.817L254.847 109.511V104.905Z" fill="#393939"/>
<path d="M253.548 105.662L253.294 105.812V110.417L253.548 110.267V105.662Z" fill="#393939"/>
<path d="M252.806 106.086L252.258 106.413V111.018L252.806 110.692V106.086Z" fill="#393939"/>
<path d="M251.468 106.862L251.214 107.012V111.617L251.468 111.467V106.862Z" fill="#393939"/>
<path d="M250.881 107.201L250.75 107.273V111.879L250.881 111.807V107.201Z" fill="#393939"/>
<path d="M251.945 106.608L251.821 106.686V111.292L251.945 111.22V106.608Z" fill="#393939"/>
<path d="M254.038 105.388L253.914 105.46V110.065L254.038 109.993V105.388Z" fill="#393939"/>
<path d="M255.187 104.729L255.063 104.801V109.406L255.187 109.334V104.729Z" fill="#393939"/>
<path d="M256.014 104.273L255.884 104.344V108.95L256.014 108.878V104.273Z" fill="#393939"/>
<path d="M257.13 103.594L257 103.666V108.271L257.13 108.2V103.594Z" fill="#393939"/>
<path d="M250.431 107.462L250.176 107.612V112.218L250.431 112.068V107.462Z" fill="#393939"/>
<path d="M242.981 126.321L271.866 109.615L304.665 128.597L275.78 145.303L242.981 126.321Z" fill="#83C150"/>
<g opacity="0.8">
<path opacity="0.8" d="M242.982 126.321L271.867 109.615L304.665 128.598L275.78 145.304L242.982 126.321Z" fill="white"/>
</g>
<path opacity="0.1" d="M301.286 126.64L273.386 142.818L243.966 125.792L271.866 109.615L301.286 126.64Z" fill="black"/>
<path d="M275.78 167L242.981 148.017V126.321L275.78 145.304V167Z" fill="#83C150"/>
<g opacity="0.7">
<path opacity="0.7" d="M275.78 167L242.982 148.017V126.321L275.78 145.304V167Z" fill="white"/>
</g>
<path d="M275.78 167L304.665 150.294V128.598L275.78 145.304V167Z" fill="#83C150"/>
<g opacity="0.6">
<path opacity="0.6" d="M275.78 167L304.665 150.294V128.598L275.78 145.304V167Z" fill="white"/>
</g>
<path d="M289.511 137.345L256.712 118.363L258.839 117.136L291.637 136.119L289.511 137.345Z" fill="#393939"/>
<path d="M240.157 100.972L269.042 84.2596L301.841 103.249L272.956 119.955L240.157 100.972Z" fill="#83C150"/>
<g opacity="0.7">
<path opacity="0.7" d="M240.157 100.972L269.042 84.2596L301.841 103.249L272.956 119.955L240.157 100.972Z" fill="white"/>
</g>
<path opacity="0.1" d="M301.84 103.248L275.049 118.741L245.199 101.467L271.997 85.9682L301.84 103.248Z" fill="black"/>
<path d="M272.956 141.651L240.157 122.668V100.972L272.956 119.955V141.651Z" fill="#83C150"/>
<g opacity="0.6">
<path opacity="0.6" d="M272.956 141.651L240.157 122.668V100.972L272.956 119.955V141.651Z" fill="white"/>
</g>
<path d="M268.944 134.337C268.674 134.147 268.453 133.895 268.299 133.602C268.145 133.31 268.062 132.985 268.057 132.654V130.091L269.857 131.148H269.975V131.317V133.62C269.988 133.769 269.963 133.919 269.901 134.055C269.84 134.191 269.743 134.308 269.622 134.396C269.538 134.448 269.441 134.475 269.342 134.474C269.199 134.465 269.062 134.418 268.944 134.337ZM269.146 131.565L269.009 132.465H268.357V132.661C268.363 132.94 268.433 133.214 268.562 133.462C268.691 133.71 268.875 133.924 269.101 134.09C269.157 134.129 269.222 134.153 269.29 134.161C269.359 134.169 269.428 134.16 269.492 134.135C269.568 134.072 269.627 133.99 269.664 133.898C269.7 133.805 269.713 133.705 269.701 133.607V131.474L269.146 131.565ZM268.885 131.317L269.42 131.226L268.344 130.574V132.159H268.761L268.885 131.317Z" fill="#393939"/>
<path d="M263.868 133.444C263.923 133.444 263.976 133.431 264.024 133.405C264.083 133.367 264.13 133.315 264.161 133.253C264.192 133.191 264.206 133.122 264.201 133.052V132.661C264.201 132.642 264.197 132.622 264.189 132.605C264.181 132.587 264.17 132.571 264.156 132.557C264.142 132.544 264.126 132.533 264.107 132.526C264.089 132.52 264.07 132.517 264.051 132.517C264.032 132.517 264.013 132.521 263.996 132.528C263.978 132.536 263.962 132.546 263.949 132.56C263.936 132.573 263.925 132.589 263.918 132.606C263.911 132.623 263.907 132.642 263.907 132.661V133.052C263.907 133.118 263.907 133.144 263.907 133.15C263.893 133.157 263.877 133.16 263.861 133.16C263.846 133.16 263.83 133.157 263.816 133.15C263.726 133.067 263.655 132.966 263.608 132.854C263.561 132.741 263.538 132.62 263.542 132.498V129.934C263.542 129.896 263.527 129.86 263.5 129.833C263.473 129.806 263.436 129.791 263.398 129.791C263.36 129.791 263.324 129.806 263.297 129.833C263.27 129.86 263.255 129.896 263.255 129.934V132.498C263.247 132.671 263.281 132.843 263.352 133C263.423 133.158 263.531 133.296 263.666 133.405C263.729 133.433 263.798 133.447 263.868 133.444Z" fill="#393939"/>
<path d="M261.546 128.982V128.897C261.517 128.647 261.557 128.393 261.662 128.163C261.766 127.933 261.932 127.736 262.14 127.593C262.364 127.488 262.611 127.444 262.858 127.466C263.104 127.488 263.34 127.574 263.542 127.717C264.079 128.069 264.525 128.543 264.846 129.099C265.166 129.655 265.352 130.279 265.388 130.92V131.174L261.546 128.982ZM262.283 127.873C262.134 127.978 262.015 128.12 261.937 128.284C261.859 128.449 261.826 128.631 261.84 128.813L265.101 130.691C265.029 130.148 264.84 129.626 264.549 129.161C264.257 128.696 263.87 128.299 263.412 127.997C263.194 127.861 262.944 127.785 262.688 127.775C262.547 127.771 262.407 127.805 262.283 127.873Z" fill="#393939"/>
<path d="M258.677 130.483C258.715 130.483 258.751 130.468 258.778 130.441C258.805 130.414 258.82 130.378 258.82 130.34V125.421C258.82 125.383 258.805 125.347 258.778 125.32C258.751 125.293 258.715 125.278 258.677 125.278C258.638 125.278 258.602 125.293 258.575 125.32C258.548 125.347 258.533 125.383 258.533 125.421V130.34C258.533 130.378 258.548 130.414 258.575 130.441C258.602 130.468 258.638 130.483 258.677 130.483Z" fill="#393939"/>
<path d="M259.1 126.543C259.119 126.549 259.14 126.549 259.159 126.543C259.193 126.527 259.22 126.498 259.234 126.463C259.247 126.428 259.246 126.388 259.23 126.354L258.715 125.166L258.141 125.819C258.127 125.832 258.116 125.847 258.108 125.865C258.1 125.882 258.096 125.901 258.096 125.92C258.096 125.939 258.1 125.958 258.108 125.975C258.116 125.992 258.127 126.008 258.141 126.021C258.168 126.048 258.204 126.063 258.242 126.063C258.28 126.063 258.316 126.048 258.343 126.021L258.617 125.701L258.95 126.471C258.964 126.498 258.986 126.519 259.013 126.532C259.04 126.545 259.071 126.549 259.1 126.543Z" fill="#393939"/>
<path d="M257.338 129.726C257.357 129.726 257.377 129.722 257.394 129.714C257.412 129.707 257.428 129.695 257.442 129.681C257.455 129.667 257.466 129.651 257.472 129.633C257.479 129.614 257.482 129.595 257.481 129.576V124.657C257.481 124.619 257.466 124.583 257.439 124.556C257.412 124.529 257.376 124.514 257.338 124.514C257.3 124.514 257.263 124.529 257.236 124.556C257.21 124.583 257.194 124.619 257.194 124.657V129.576C257.194 129.595 257.197 129.614 257.203 129.633C257.21 129.651 257.221 129.667 257.234 129.681C257.247 129.695 257.264 129.707 257.281 129.714C257.299 129.722 257.319 129.726 257.338 129.726Z" fill="#393939"/>
<path d="M257.763 125.779C257.782 125.785 257.803 125.785 257.822 125.779C257.84 125.772 257.856 125.761 257.869 125.748C257.883 125.734 257.893 125.718 257.9 125.7C257.906 125.682 257.909 125.663 257.908 125.644C257.907 125.625 257.902 125.607 257.894 125.59L257.385 124.402L256.811 125.055C256.797 125.068 256.786 125.083 256.778 125.101C256.77 125.118 256.766 125.137 256.766 125.156C256.766 125.175 256.77 125.194 256.778 125.211C256.786 125.229 256.797 125.244 256.811 125.257C256.838 125.284 256.874 125.299 256.912 125.299C256.95 125.299 256.986 125.284 257.013 125.257L257.287 124.944L257.62 125.707C257.633 125.733 257.654 125.753 257.68 125.766C257.706 125.779 257.735 125.784 257.763 125.779Z" fill="#393939"/>
<path d="M272.955 141.65L301.839 124.938V103.248L272.955 119.954V141.65Z" fill="#83C150"/>
<g opacity="0.4">
<path opacity="0.4" d="M272.956 141.65L301.84 124.938V103.248L272.956 119.954V141.65Z" fill="white"/>
</g>
<path opacity="0.1" d="M301.841 110.495L275.05 125.995V118.741L301.841 103.248V110.495Z" fill="black"/>
<path d="M288.806 114.064L286.686 115.29V111.996L288.806 110.769V114.064Z" fill="#37474F"/>
<path d="M286.687 111.996L253.888 93.0134L256.008 91.787L288.807 110.77L286.687 111.996Z" fill="#393939"/>
<path d="M246.961 79.7059L275.845 63L308.644 81.9825L279.759 98.6885L246.961 79.7059Z" fill="#83C150"/>
<g opacity="0.8">
<path opacity="0.8" d="M246.96 79.7061L275.845 63.0001L308.643 81.9827L279.759 98.6886L246.96 79.7061Z" fill="white"/>
</g>
<path d="M279.759 120.385L246.961 101.402V79.7059L279.759 98.6885V120.385Z" fill="#83C150"/>
<g opacity="0.7">
<path opacity="0.7" d="M279.759 120.385L246.96 101.402V79.7059L279.759 98.6885V120.385Z" fill="white"/>
</g>
<path d="M275.742 113.092C275.471 112.902 275.25 112.652 275.096 112.36C274.942 112.069 274.859 111.745 274.854 111.415V108.845L276.655 109.902H276.772V110.071V112.368C276.789 112.517 276.765 112.667 276.703 112.804C276.641 112.941 276.543 113.058 276.42 113.144C276.336 113.196 276.239 113.223 276.139 113.222C275.998 113.214 275.861 113.169 275.742 113.092ZM275.944 110.326L275.813 111.226H275.161V111.415C275.168 111.693 275.238 111.966 275.367 112.213C275.496 112.459 275.68 112.673 275.905 112.837C275.96 112.879 276.025 112.906 276.094 112.914C276.163 112.922 276.233 112.911 276.296 112.883C276.372 112.819 276.431 112.738 276.468 112.645C276.504 112.553 276.517 112.453 276.505 112.354V110.228L275.944 110.326ZM275.689 110.071L276.218 109.98L275.141 109.328V110.913H275.559L275.689 110.071Z" fill="#393939"/>
<path d="M275.813 115.049C275.851 115.049 275.887 115.034 275.914 115.007C275.941 114.98 275.956 114.943 275.956 114.905V112.948C275.957 112.929 275.954 112.91 275.947 112.892C275.94 112.873 275.93 112.857 275.917 112.843C275.903 112.829 275.887 112.818 275.869 112.81C275.851 112.802 275.832 112.798 275.813 112.798C275.793 112.798 275.774 112.802 275.756 112.81C275.738 112.818 275.722 112.829 275.709 112.843C275.695 112.857 275.685 112.873 275.678 112.892C275.671 112.91 275.668 112.929 275.669 112.948V114.905C275.669 114.943 275.684 114.98 275.711 115.007C275.738 115.034 275.775 115.049 275.813 115.049Z" fill="#393939"/>
<path d="M276.654 115.505C276.686 115.505 276.716 115.495 276.741 115.475C276.766 115.456 276.784 115.429 276.792 115.399C276.8 115.368 276.798 115.336 276.786 115.307C276.774 115.278 276.753 115.254 276.726 115.238L275.049 114.266C275.015 114.247 274.975 114.241 274.938 114.251C274.9 114.261 274.867 114.285 274.847 114.318C274.838 114.335 274.832 114.353 274.83 114.372C274.828 114.391 274.83 114.41 274.836 114.428C274.841 114.446 274.85 114.463 274.862 114.478C274.874 114.493 274.889 114.505 274.906 114.514L276.582 115.486C276.604 115.499 276.629 115.506 276.654 115.505Z" fill="#393939"/>
<path d="M270.671 112.179C270.725 112.18 270.779 112.166 270.827 112.14C270.885 112.103 270.931 112.051 270.962 111.991C270.993 111.93 271.007 111.862 271.003 111.794V111.396C271.003 111.358 270.988 111.322 270.961 111.295C270.934 111.268 270.898 111.253 270.86 111.253C270.822 111.253 270.785 111.268 270.758 111.295C270.732 111.322 270.716 111.358 270.716 111.396V111.787C270.716 111.846 270.716 111.879 270.684 111.885C270.654 111.893 270.622 111.893 270.592 111.885C270.504 111.802 270.434 111.701 270.388 111.588C270.342 111.476 270.32 111.355 270.325 111.233V108.663C270.325 108.625 270.31 108.588 270.283 108.561C270.256 108.534 270.22 108.519 270.181 108.519C270.162 108.518 270.143 108.522 270.125 108.528C270.106 108.535 270.09 108.546 270.076 108.559C270.062 108.572 270.051 108.589 270.043 108.606C270.035 108.624 270.031 108.643 270.031 108.663V111.233C270.025 111.405 270.059 111.576 270.13 111.732C270.202 111.888 270.308 112.026 270.442 112.133C270.513 112.168 270.592 112.184 270.671 112.179Z" fill="#393939"/>
<path d="M268.357 107.717V107.632C268.319 107.39 268.355 107.143 268.46 106.922C268.565 106.701 268.734 106.517 268.945 106.393C269.156 106.269 269.399 106.211 269.643 106.228C269.887 106.244 270.121 106.333 270.314 106.484C270.852 106.835 271.3 107.308 271.622 107.864C271.944 108.421 272.13 109.045 272.166 109.687V109.935L268.357 107.717ZM269.094 106.608C268.945 106.713 268.825 106.855 268.747 107.019C268.668 107.184 268.632 107.365 268.644 107.547L271.905 109.426C271.834 108.882 271.647 108.359 271.355 107.894C271.063 107.429 270.675 107.033 270.216 106.732C269.998 106.595 269.748 106.519 269.492 106.51C269.353 106.505 269.215 106.539 269.094 106.608Z" fill="#393939"/>
<path d="M265.487 109.223C265.506 109.223 265.525 109.22 265.543 109.212C265.561 109.204 265.577 109.193 265.59 109.179C265.604 109.165 265.614 109.148 265.621 109.13C265.628 109.112 265.631 109.093 265.63 109.073V104.155C265.63 104.117 265.615 104.08 265.588 104.053C265.561 104.026 265.525 104.011 265.487 104.011C265.467 104.01 265.448 104.014 265.43 104.02C265.411 104.027 265.395 104.038 265.381 104.051C265.367 104.064 265.356 104.081 265.348 104.098C265.34 104.116 265.337 104.135 265.337 104.155V109.073C265.337 109.093 265.34 109.113 265.348 109.131C265.356 109.149 265.367 109.166 265.38 109.179C265.394 109.193 265.411 109.204 265.429 109.212C265.447 109.22 265.467 109.223 265.487 109.223Z" fill="#393939"/>
<path d="M265.904 105.263H265.962C265.997 105.246 266.025 105.217 266.039 105.181C266.054 105.145 266.054 105.104 266.041 105.068L265.525 103.881L264.951 104.533C264.929 104.562 264.918 104.598 264.921 104.635C264.925 104.671 264.942 104.705 264.969 104.729C264.997 104.753 265.033 104.766 265.069 104.765C265.106 104.764 265.141 104.748 265.167 104.722L265.44 104.409L265.773 105.172C265.784 105.198 265.802 105.22 265.825 105.237C265.848 105.253 265.875 105.262 265.904 105.263Z" fill="#393939"/>
<path d="M264.149 108.46C264.187 108.46 264.223 108.445 264.25 108.418C264.277 108.392 264.292 108.355 264.292 108.317V103.398C264.297 103.377 264.296 103.354 264.291 103.332C264.286 103.311 264.276 103.29 264.262 103.273C264.248 103.256 264.23 103.242 264.21 103.232C264.19 103.222 264.168 103.217 264.145 103.217C264.123 103.217 264.101 103.222 264.081 103.232C264.061 103.242 264.043 103.256 264.029 103.273C264.015 103.29 264.005 103.311 263.999 103.332C263.994 103.354 263.994 103.377 263.999 103.398V108.317C263.999 108.336 264.002 108.356 264.01 108.373C264.018 108.391 264.029 108.407 264.043 108.421C264.057 108.434 264.073 108.445 264.092 108.451C264.11 108.458 264.129 108.461 264.149 108.46Z" fill="#393939"/>
<path d="M264.566 104.521H264.624C264.642 104.514 264.658 104.503 264.672 104.49C264.685 104.476 264.696 104.46 264.703 104.442C264.711 104.425 264.714 104.406 264.714 104.387C264.714 104.368 264.71 104.349 264.703 104.332L264.187 103.138L263.613 103.79C263.591 103.819 263.58 103.855 263.583 103.892C263.587 103.928 263.604 103.962 263.632 103.986C263.659 104.011 263.695 104.023 263.732 104.022C263.768 104.021 263.803 104.005 263.829 103.979L264.103 103.666L264.435 104.429C264.446 104.456 264.463 104.479 264.487 104.495C264.51 104.511 264.537 104.52 264.566 104.521Z" fill="#393939"/>
<path d="M279.76 120.385L308.645 103.679V81.9826L279.76 98.6886V120.385Z" fill="#83C150"/>
<g opacity="0.6">
<path opacity="0.6" d="M279.758 120.385L308.643 103.679V81.9826L279.758 98.6886V120.385Z" fill="white"/>
</g>
<path d="M293.49 90.7295L260.691 71.747L262.818 70.5206L295.617 89.5032L293.49 90.7295Z" fill="#393939"/>
<path d="M235.758 63.0198L239.097 54.3694L236.411 46.6221V41.8691L244.634 46.6221V51.3751L241.069 59.871C241.015 59.9659 240.931 60.0408 240.831 60.0849L235.758 63.0198Z" fill="#83C150"/>
<path opacity="0.2" d="M235.758 63.0198L239.097 54.3694L236.411 46.6221V41.8691L244.634 46.6221V51.3751L241.069 59.871C241.015 59.9659 240.931 60.0408 240.831 60.0849L235.758 63.0198Z" fill="black"/>
<path d="M221.048 7.04159C221.085 6.19478 221.319 5.36835 221.732 4.62787C222.144 3.8874 222.724 3.25326 223.424 2.7758L225.432 1.58756C226.195 1.20129 227.037 1 227.892 1C228.747 1 229.589 1.20129 230.352 1.58756L255.305 15.9772C256.047 16.4356 256.669 17.0654 257.118 17.8139C257.566 18.5624 257.829 19.4076 257.883 20.2786V54.1078C257.836 54.9619 257.589 55.793 257.162 56.5341C256.735 57.2751 256.139 57.9052 255.423 58.3736L253.415 59.5618C252.653 59.9481 251.81 60.1494 250.956 60.1494C250.101 60.1494 249.258 59.9481 248.496 59.5618L239.489 54.393L235.924 62.8651C235.875 62.9532 235.802 63.0252 235.713 63.0725C235.623 63.1197 235.523 63.1402 235.422 63.1314C235.322 63.1226 235.226 63.0849 235.146 63.0229C235.067 62.9609 235.007 62.8772 234.974 62.782L231.243 49.7113L223.46 45.2316C222.744 44.7633 222.148 44.1332 221.721 43.3921C221.294 42.6511 221.047 41.82 221 40.9659L221.048 7.04159Z" fill="#83C150"/>
<path opacity="0.2" d="M257.883 54.1079C257.836 54.962 257.589 55.7931 257.162 56.5341C256.735 57.2752 256.139 57.9053 255.423 58.3736L253.415 59.5619C252.721 59.9117 251.961 60.1105 251.185 60.1453C250.409 60.1801 249.634 60.0501 248.912 59.7639C250.1 60.2035 250.955 59.55 250.955 58.1479V24.283C250.917 23.4426 250.668 22.6254 250.231 21.9066L257.158 17.9141C257.597 18.632 257.846 19.4498 257.883 20.2905V54.1079Z" fill="black"/>
<path opacity="0.5" d="M221.047 6.34041C221.333 5.29476 222.236 4.96205 223.424 5.61558L248.377 20.0171C249.106 20.4688 249.704 21.1038 250.112 21.8588L257.039 17.8545C256.628 17.102 256.031 16.4678 255.304 16.0127L230.351 1.62309C229.587 1.23671 228.742 1.0354 227.886 1.0354C227.029 1.0354 226.185 1.23671 225.42 1.62309L223.412 2.81133C222.801 3.21047 222.277 3.7287 221.87 4.33505C221.464 4.94141 221.184 5.62345 221.047 6.34041Z" fill="white"/>
<path d="M232.161 19.4378C232.071 19.212 231.964 18.9936 231.84 18.7842C231.726 18.6006 231.566 18.4493 231.377 18.3446L229.095 17.0256C228.929 16.9306 228.798 16.9306 228.703 17.0256C228.65 17.0771 228.609 17.1405 228.584 17.2107C228.559 17.2808 228.551 17.3558 228.561 17.4296C228.557 17.493 228.557 17.5564 228.561 17.6198C228.561 17.6911 228.561 17.7742 228.632 17.8574L239.457 46.0425C239.547 46.2682 239.654 46.4867 239.778 46.696C239.892 46.8796 240.052 47.0309 240.241 47.1357L242.558 48.419C242.725 48.514 242.855 48.5259 242.938 48.419C243.022 48.312 243.081 48.217 243.081 48.015C243.086 47.9517 243.086 47.8881 243.081 47.8248C243.081 47.7535 243.081 47.6704 243.01 47.5872L232.161 19.4378Z" fill="#FAFAFA"/>
<path d="M225.266 33.5675C225.226 33.0749 225.296 32.5795 225.47 32.1172C225.645 31.6549 225.92 31.2371 226.276 30.8939C226.894 30.4543 227.737 30.5375 228.819 31.1672C229.903 31.793 230.786 32.7168 231.362 33.8289C231.986 35.0147 232.331 36.3274 232.372 37.6669C232.372 38.3204 232.372 38.8552 232.372 39.3661C232.372 39.877 232.372 40.3761 232.372 40.9465C232.407 41.4334 232.329 41.922 232.144 42.3737C231.958 42.8253 231.67 43.2276 231.302 43.5487C230.911 43.7591 230.466 43.8487 230.024 43.8064C229.582 43.7641 229.163 43.5917 228.819 43.3111C227.758 42.6891 226.897 41.7783 226.335 40.685C225.69 39.5044 225.324 38.1913 225.266 36.847C225.266 36.241 225.266 35.6588 225.266 35.2191C225.266 34.7795 225.242 34.1854 225.266 33.5675ZM228.07 38.6888C228.087 39.052 228.151 39.4115 228.26 39.7582C228.347 40.043 228.538 40.2847 228.795 40.4355C229.044 40.59 229.223 40.5662 229.33 40.3761C229.453 40.1078 229.518 39.8161 229.52 39.5206C229.579 38.3323 229.579 37.049 229.52 35.8251C229.503 35.4619 229.439 35.1024 229.33 34.7557C229.239 34.4696 229.05 34.2253 228.795 34.0665C228.549 33.924 228.371 33.9477 228.26 34.1378C228.136 34.4062 228.072 34.6979 228.07 34.9934C228.07 36.146 228.07 37.3817 228.07 38.6888Z" fill="#FAFAFA"/>
<path d="M239.108 24.0031C239.067 23.5087 239.137 23.0113 239.311 22.5469C239.486 22.0825 239.762 21.6626 240.118 21.3177C240.724 20.8781 241.58 20.9731 242.661 21.591C243.743 22.2218 244.621 23.1497 245.192 24.2646C245.818 25.4499 246.163 26.7629 246.202 28.1026C246.202 28.7442 246.202 29.2908 246.202 29.7899C246.202 30.2889 246.202 30.7999 246.202 31.3702C246.235 31.8576 246.157 32.346 245.973 32.7987C245.79 33.2515 245.507 33.6569 245.144 33.9844C244.751 34.19 244.307 34.276 243.865 34.2316C243.424 34.1873 243.005 34.0146 242.661 33.7348C241.597 33.1137 240.732 32.2029 240.166 31.1088C239.529 29.9253 239.168 28.6134 239.108 27.2708C239.108 26.6648 239.108 26.0826 239.108 25.6429C239.108 25.2033 239.049 24.6092 239.108 24.0031ZM241.936 29.1126C241.945 29.4767 242.009 29.8373 242.126 30.182C242.211 30.4712 242.402 30.7175 242.661 30.8712C242.907 31.0138 243.085 30.99 243.196 30.7999C243.32 30.5316 243.384 30.2398 243.386 29.9444C243.386 28.7561 243.386 27.4728 243.386 26.2489C243.37 25.8895 243.306 25.5337 243.196 25.1914C243.111 24.9022 242.92 24.6558 242.661 24.5022C242.4 24.3596 242.221 24.3834 242.126 24.5735C241.998 24.8361 241.933 25.125 241.936 25.4171C241.853 26.5697 241.853 27.8055 241.912 29.1126H241.936Z" fill="#FAFAFA"/>
</g>
<defs>
<clipPath id="clip0_3793_24563">
<rect width="288" height="133" fill="white"/>
</clipPath>
</defs>
</svg>
