<svg width="320" height="220" viewBox="0 0 320 220" fill="none" xmlns="http://www.w3.org/2000/svg">
<g clip-path="url(#clip0_3612_22832)">
<rect width="320" height="220" fill="#F4F5F6"/>
<g clip-path="url(#clip1_3612_22832)">
<path d="M170.129 7.10178L160.985 28.1667L93.5183 17.8591L90.6532 19.2834L79.9546 27.2696L67.1409 32.0482L65.1292 32.2805L63.2725 31.8904L58.3932 29.678L56.3158 27.3789L54.4702 -34.1892L89.8682 -83.0191L201.844 -66.225L170.129 7.10178Z" fill="#F4F5F6"/>
<path d="M170.129 7.10178L160.985 28.1667L93.5183 17.8591L90.6532 19.2834L79.9546 27.2696L67.1408 32.0482L65.1292 32.2805L63.2725 31.8904L58.3932 29.678L56.3158 27.3789L54.4702 -34.1892L89.8682 -83.0191L201.844 -66.225L170.129 7.10178" stroke="white" stroke-width="2.08982" stroke-linejoin="bevel"/>
<path d="M283.741 21.1376L168.991 8.90496L218.448 -92.5622L222.981 -102.172L253.428 -112.919L258.668 -112.248L272.789 -107.964L280.097 -104.224L289.878 -99.6217L294.976 -98.2931L300.659 -97.3564L309.71 -97.8876L312.427 -98.8623L339.661 -121.133L367.394 -117.624L297.848 22.6992L283.741 21.1376Z" fill="#F4F5F6"/>
<path d="M283.741 21.1376L168.991 8.90496L218.448 -92.5622L222.981 -102.172L253.428 -112.919L258.668 -112.248L272.789 -107.964L280.097 -104.224L289.878 -99.6217L294.976 -98.2931L300.659 -97.3564L309.71 -97.8876L312.427 -98.8623L339.661 -121.133L367.394 -117.624L297.848 22.6992L283.741 21.1376" stroke="white" stroke-width="2.08982" stroke-linejoin="bevel"/>
<path d="M295.513 26.4033L337.818 -70.7125L475.17 -51.9963L450.611 5.13821L441.822 25.9102L428.915 24.0598L423.844 25.1094L416.529 43.7042L295.513 26.4033Z" fill="#F4F5F6" stroke="white" stroke-width="2.08982" stroke-linejoin="bevel"/>
<path d="M322.957 136.393L308.076 136.79C307.743 136.799 307.425 136.763 307.135 136.686L294.058 133.174C293.904 133.133 293.758 133.079 293.622 133.014L289.361 130.977C288.843 130.73 288.497 130.327 288.378 129.833L283.712 110.454C283.678 110.31 283.623 110.172 283.55 110.044L270.922 87.8613C270.629 87.3467 270.049 86.9996 269.307 86.8948L225.249 80.6713L280.131 25.9675C281.042 25.0597 282.461 24.5648 283.666 24.7346L295.513 26.4037L414.317 43.3883C415.617 43.5741 416.344 44.4858 416.081 45.5981L397.488 124.177C397.193 125.421 395.757 126.533 394.166 126.748L322.957 136.393Z" fill="#F4F5F6"/>
<path d="M225.249 80.6713L269.307 86.8948C270.049 86.9996 270.629 87.3467 270.922 87.8613L283.55 110.044C283.623 110.172 283.678 110.31 283.712 110.454L288.378 129.833C288.497 130.327 288.843 130.73 289.361 130.977L293.622 133.014C293.758 133.079 293.904 133.133 294.058 133.174L307.135 136.686C307.425 136.763 307.743 136.799 308.076 136.79L322.957 136.393L394.166 126.748C395.757 126.533 397.193 125.421 397.488 124.177L416.081 45.5981C416.344 44.4858 415.617 43.5741 414.317 43.3883L295.513 26.4037L283.666 24.7346C282.461 24.5648 281.042 25.0597 280.131 25.9675L225.249 80.6713ZM225.249 80.6713L219.164 87.6242" stroke="white" stroke-width="2.08982" stroke-linejoin="bevel"/>
<path d="M115.049 151.966L115.757 130.456L122.219 129.62L131.691 109.54L134.692 100.908L164.522 101.359L193.626 101.188L212.339 85.313L217.657 80.3204L218.5 78.5L270.464 87.0577L283.66 110.236L288.561 130.595L293.826 133.111L307.573 136.803L322.957 136.393L274.613 184.241L259.493 172.506L257.176 171.392L115.049 151.966Z" fill="#F4F5F6" stroke="white" stroke-width="2.08982" stroke-linejoin="bevel"/>
<path d="M167.852 247.877L169.136 244.603L108.326 215.238L91.2884 212.892L98.2068 192.451L115.049 151.967L257.177 171.392L259.493 172.506L274.613 184.241L295.06 222.867L241.796 233.119L211.881 229.144L189.381 247.349L167.852 247.877Z" fill="#F4F5F6"/>
<path d="M167.852 247.877L169.136 244.603L108.326 215.238L91.2883 212.892L98.2068 192.451L115.049 151.967L257.177 171.392L259.493 172.506L274.613 184.241L295.06 222.867L241.796 233.119L211.881 229.144L189.381 247.349L167.852 247.877" stroke="white" stroke-width="2.08982" stroke-linejoin="bevel"/>
<path d="M426.135 239.383L366.938 253.343L363.437 252.333L359.275 250.382L357.351 248.861L348.01 236.029L350.445 234.857L326.577 226.669L304.834 220.867L295.06 222.867L274.613 184.241L322.957 136.393L396.969 126.368L434.426 131.399L426.233 151.494L460.938 156.318L461.593 228.542L426.135 239.383Z" fill="#F4F5F6"/>
<path d="M426.135 239.383L366.938 253.343L363.437 252.333L359.275 250.382L357.351 248.861L348.01 236.029L350.445 234.857L326.577 226.669L304.834 220.867L295.06 222.867L274.613 184.241L322.957 136.393L396.969 126.368L434.426 131.399L426.233 151.494L460.938 156.318L461.593 228.542L426.135 239.383" stroke="white" stroke-width="2.08982" stroke-linejoin="bevel"/>
<path d="M256.36 299.473L215.06 293.438L214.273 293.018L215.459 289.899L222.575 283.992L242.396 235.986L242.471 233.985L241.796 233.119L295.06 222.867L304.834 220.867L326.577 226.669L350.445 234.857L348.01 236.029L357.351 248.861L359.275 250.382L363.437 252.333L366.938 253.343L426.135 239.383L396.73 308.13L379.966 317.239L256.36 299.473Z" fill="#F4F5F6"/>
<path d="M256.36 299.473L215.06 293.438L214.273 293.018L215.459 289.899L222.575 283.992L242.396 235.986L242.471 233.985L241.796 233.119L295.06 222.867L304.834 220.867L326.577 226.669L350.445 234.857L348.01 236.029L357.351 248.861L359.275 250.382L363.437 252.333L366.938 253.343L426.135 239.383L396.73 308.13L379.966 317.239L256.36 299.473" stroke="white" stroke-width="2.08982" stroke-linejoin="bevel"/>
<path d="M103.643 364.028L83.4584 361.295L120.535 273.655L167.852 247.877L189.381 247.349L211.881 229.144L241.796 233.119L242.471 233.985L242.396 235.987L222.575 283.992L215.459 289.899L214.273 293.018L215.059 293.438L256.36 299.473L223.652 377.063L103.643 364.028Z" fill="#F4F5F6" stroke="white" stroke-width="2.08982" stroke-linejoin="bevel"/>
<path d="M120.535 273.655L17.1325 259.722L3.43579 261.329L-34.032 256.531L-38.6517 221.955L-57.0785 195.562L-33.8493 189.594L29.3716 192.812L63.2299 187.844L98.2065 192.451L91.2881 212.892L108.326 215.238L169.136 244.603L167.852 247.877L120.535 273.655Z" fill="#F4F5F6"/>
<path d="M120.535 273.655L17.1325 259.722L3.43579 261.329L-34.032 256.531L-38.6517 221.955L-57.0785 195.562L-33.8492 189.594L29.3716 192.812L63.2299 187.844L98.2065 192.451L91.2881 212.892L108.326 215.238L169.136 244.603L167.852 247.877L120.535 273.655" stroke="white" stroke-width="2.08982" stroke-linejoin="bevel"/>
<path d="M-46.6562 162.894L-38.0176 155.701L-37.518 153.671L-38.7258 151.929L-58.0633 144.086L-63.6087 138.574L-64.4989 134.176L-57.3773 127.722L-56.1953 127.245L4.1412 94.5877L48.0096 100.261L49.9177 101.269L58.1795 112.209L58.1318 114.49L64.1077 123.677L115.757 130.456L115.049 151.967L98.2064 192.451L63.2298 187.844L29.3715 192.812L-33.8494 189.594L-57.0787 195.563L-46.6562 162.894Z" fill="#F4F5F6"/>
<path d="M-46.6562 162.894L-38.0176 155.701L-37.518 153.671L-38.7258 151.929L-58.0633 144.086L-63.6087 138.574L-64.4989 134.176L-57.3773 127.722L-56.1953 127.245L4.1412 94.5877L48.0096 100.261L49.9177 101.269L58.1795 112.209L58.1318 114.49L64.1077 123.677L115.757 130.456L115.049 151.967L98.2064 192.451L63.2298 187.844L29.3715 192.812L-33.8494 189.594L-57.0787 195.563L-46.6562 162.894" stroke="white" stroke-width="2.08982" stroke-linejoin="bevel"/>
<path d="M4.14167 94.5877L13.7532 77.7288L59.1849 33.0484L56.2424 27.4952L58.3648 29.7232L63.2726 31.8902L65.1293 32.2804L67.1252 32.0731L79.759 27.5798L90.2113 19.9843L93.0276 18.6373L160.401 29.0927L168.991 8.9054L281.653 24.4507L234 75L217.5 81L212.5 85.5L193.627 101.189C182.261 101.256 175.889 101.293 164.523 101.36L134.692 100.908L131.691 109.54L122.219 129.621L115.758 130.456L64.1082 123.677L58.1322 114.49L58.18 112.209L49.9181 101.269L48.0101 100.261L4.14167 94.5877Z" fill="#F4F5F6" stroke="white" stroke-width="2.08982" stroke-linejoin="bevel"/>
<path d="M219.5 79.4999L195.622 99.9668C195.233 100.3 194.701 100.5 194.203 100.5L135.882 100.5C135.101 100.5 134.291 100.985 134.02 101.614L122.392 128.589C122.16 129.128 121.524 129.573 120.832 129.679L115.789 130.456C115.598 130.485 115.411 130.487 115.237 130.462L91.5 127" stroke="url(#paint0_linear_3612_22832)" stroke-width="2.08982" stroke-linecap="round" stroke-linejoin="round"/>
<path d="M51.0001 39.5L57.3672 35.1226C58.294 34.4854 58.6172 33.5128 58.1147 32.8732V32.8732C57.0583 31.5287 59.2895 29.7849 60.9803 30.6412C61.9259 31.1201 62.9009 31.5942 63.9525 32.0558C64.6114 32.345 65.4884 32.3372 66.3395 32.0535L80.689 27.2702C81.2204 27.0931 81.7184 26.8194 82.1339 26.4761L91.4491 18.781C92.3925 18.0017 93.7069 17.6213 94.805 17.8098L156.924 28.4719C158.571 28.7546 160.56 27.761 161.206 26.333L169.5 8.00004" stroke="#FFB82E" stroke-width="2.08982"/>
<path d="M235.98 70.4443L280.626 25.4572C281.031 25.0498 280.796 24.3555 280.228 24.2766L169.702 8.92571C169.234 8.86083 168.965 8.36025 169.169 7.93489L219.958 -98.1345" stroke="url(#paint1_linear_3612_22832)" stroke-width="2.08982"/>
<rect y="221" width="82" height="320" transform="rotate(-90 0 221)" fill="url(#paint2_linear_3612_22832)"/>
<ellipse cx="225.183" cy="81.5896" rx="27.516" ry="10.7974" fill="#83C150" fill-opacity="0.2"/>
<path d="M246.429 81.2409C246.429 85.8576 236.917 89.6002 225.183 89.6002C213.449 89.6002 203.936 85.8576 203.936 81.2409C203.936 76.6242 213.449 72.8816 225.183 72.8816C236.917 72.8816 246.429 76.6242 246.429 81.2409Z" fill="#83C150" fill-opacity="0.6"/>
<mask id="path-27-outside-1_3612_22832" maskUnits="userSpaceOnUse" x="207.902" y="48.2188" width="35" height="36" fill="black">
<rect fill="white" x="207.902" y="48.2188" width="35" height="36"/>
<path d="M240.16 60.4352V76.3644C240.16 78.3151 240.16 79.2904 239.78 80.0355C239.446 80.6908 238.913 81.2237 238.258 81.5576C237.513 81.9372 236.538 81.9372 234.587 81.9372H229.818C229.739 81.9372 229.7 81.9372 229.671 81.922C229.644 81.9087 229.623 81.8874 229.61 81.8612C229.595 81.8314 229.595 81.7923 229.595 81.7143V75.4355C229.595 74.2461 229.595 73.6514 229.416 73.1769C229.133 72.4259 228.541 71.8332 227.79 71.5506C227.315 71.372 226.72 71.372 225.531 71.372C224.342 71.372 223.747 71.372 223.272 71.5506C222.521 71.8332 221.929 72.4259 221.646 73.1769C221.468 73.6514 221.468 74.2461 221.468 75.4355V81.7143C221.468 81.7923 221.468 81.8313 221.452 81.8611C221.439 81.8873 221.418 81.9086 221.391 81.922C221.362 81.9372 221.323 81.9372 221.245 81.9372L216.475 81.9372H216.475C214.524 81.9372 213.549 81.9372 212.804 81.5576C212.149 81.2237 211.616 80.6908 211.282 80.0355C210.902 79.2904 210.902 78.315 210.902 76.3644L210.902 60.4352C210.902 59.6851 210.902 59.31 211.017 58.9788C211.118 58.686 211.282 58.4193 211.499 58.198C211.744 57.9477 212.08 57.78 212.751 57.4445L224.534 51.5528C224.9 51.37 225.083 51.2786 225.274 51.2426C225.444 51.2108 225.618 51.2108 225.788 51.2426C225.98 51.2786 226.162 51.37 226.528 51.5528L238.311 57.4445C238.982 57.78 239.318 57.9477 239.563 58.198C239.78 58.4193 239.945 58.686 240.046 58.9788C240.16 59.31 240.16 59.685 240.16 60.4352Z"/>
</mask>
<path d="M240.16 60.4352V76.3644C240.16 78.3151 240.16 79.2904 239.78 80.0355C239.446 80.6908 238.913 81.2237 238.258 81.5576C237.513 81.9372 236.538 81.9372 234.587 81.9372H229.818C229.739 81.9372 229.7 81.9372 229.671 81.922C229.644 81.9087 229.623 81.8874 229.61 81.8612C229.595 81.8314 229.595 81.7923 229.595 81.7143V75.4355C229.595 74.2461 229.595 73.6514 229.416 73.1769C229.133 72.4259 228.541 71.8332 227.79 71.5506C227.315 71.372 226.72 71.372 225.531 71.372C224.342 71.372 223.747 71.372 223.272 71.5506C222.521 71.8332 221.929 72.4259 221.646 73.1769C221.468 73.6514 221.468 74.2461 221.468 75.4355V81.7143C221.468 81.7923 221.468 81.8313 221.452 81.8611C221.439 81.8873 221.418 81.9086 221.391 81.922C221.362 81.9372 221.323 81.9372 221.245 81.9372L216.475 81.9372H216.475C214.524 81.9372 213.549 81.9372 212.804 81.5576C212.149 81.2237 211.616 80.6908 211.282 80.0355C210.902 79.2904 210.902 78.315 210.902 76.3644L210.902 60.4352C210.902 59.6851 210.902 59.31 211.017 58.9788C211.118 58.686 211.282 58.4193 211.499 58.198C211.744 57.9477 212.08 57.78 212.751 57.4445L224.534 51.5528C224.9 51.37 225.083 51.2786 225.274 51.2426C225.444 51.2108 225.618 51.2108 225.788 51.2426C225.98 51.2786 226.162 51.37 226.528 51.5528L238.311 57.4445C238.982 57.78 239.318 57.9477 239.563 58.198C239.78 58.4193 239.945 58.686 240.046 58.9788C240.16 59.31 240.16 59.685 240.16 60.4352Z" fill="#83C150"/>
<path d="M212.751 57.4445L213.685 59.3137H213.685L212.751 57.4445ZM224.534 51.5528L225.469 53.4219L225.469 53.4219L224.534 51.5528ZM210.902 60.4352H208.812V60.4352L210.902 60.4352ZM210.902 76.3644L212.992 76.3644L210.902 76.3644ZM238.311 57.4445L237.377 59.3137L238.311 57.4445ZM226.528 51.5528L225.593 53.4219L226.528 51.5528ZM216.475 81.9372V84.027H216.475L216.475 81.9372ZM221.245 81.9372V79.8474H221.245L221.245 81.9372ZM229.416 73.1769L227.46 73.913V73.9131L229.416 73.1769ZM227.79 71.5506L228.526 69.5947L228.526 69.5947L227.79 71.5506ZM221.646 73.1769L219.69 72.4408L221.646 73.1769ZM223.272 71.5506L224.009 73.5065H224.009L223.272 71.5506ZM221.391 81.922L220.443 80.0599L220.443 80.06L221.391 81.922ZM221.452 81.8611L219.59 80.9123L219.59 80.9123L221.452 81.8611ZM229.671 81.922L228.722 83.7841L228.722 83.7841L229.671 81.922ZM229.61 81.8612L231.472 80.9124L231.472 80.9124L229.61 81.8612ZM211.499 58.198L212.992 59.6603H212.992L211.499 58.198ZM211.017 58.9788L212.992 59.6603L212.992 59.6603L211.017 58.9788ZM225.274 51.2426L224.889 49.1887L224.889 49.1887L225.274 51.2426ZM225.788 51.2426L225.403 53.2966L225.403 53.2966L225.788 51.2426ZM240.046 58.9788L238.07 59.6602L238.07 59.6603L240.046 58.9788ZM239.563 58.198L241.056 56.7357L241.056 56.7357L239.563 58.198ZM239.78 80.0355L237.918 79.0867L237.918 79.0867L239.78 80.0355ZM238.258 81.5576L239.207 83.4197L239.207 83.4196L238.258 81.5576ZM211.282 80.0355L209.42 80.9842H209.42L211.282 80.0355ZM216.475 81.9372V79.8474H216.475L216.475 81.9372ZM212.804 81.5576L213.753 79.6955L213.753 79.6955L212.804 81.5576ZM242.25 76.3644V60.4352H238.07V76.3644H242.25ZM213.685 59.3137L225.469 53.4219L223.6 49.6836L211.816 55.5753L213.685 59.3137ZM208.812 60.4352L208.812 76.3644L212.992 76.3644L212.992 60.4352L208.812 60.4352ZM239.246 55.5753L227.463 49.6836L225.593 53.4219L237.377 59.3137L239.246 55.5753ZM229.818 84.0271H234.587V79.8474H229.818V84.0271ZM216.475 84.027L221.245 84.027L221.245 79.8474L216.475 79.8474L216.475 84.027ZM223.557 81.7143V75.4355H219.378V81.7143H223.557ZM227.505 75.4355V81.7143H231.684V75.4355H227.505ZM231.684 75.4355C231.684 74.867 231.685 74.3447 231.658 73.9076C231.63 73.4538 231.565 72.9539 231.372 72.4408L227.46 73.9131C227.446 73.8744 227.47 73.9091 227.487 74.1687C227.504 74.4449 227.505 74.8147 227.505 75.4355H231.684ZM225.531 73.4618C226.152 73.4618 226.522 73.4628 226.798 73.4801C227.057 73.4963 227.092 73.521 227.054 73.5065L228.526 69.5947C228.013 69.4016 227.513 69.337 227.059 69.3086C226.622 69.2812 226.1 69.2822 225.531 69.2822V73.4618ZM231.372 72.4408C230.877 71.1265 229.84 70.0894 228.526 69.5947L227.054 73.5065C227.241 73.5771 227.389 73.7253 227.46 73.913L231.372 72.4408ZM223.557 75.4355C223.557 74.8147 223.558 74.4449 223.576 74.1687C223.592 73.9091 223.617 73.8744 223.602 73.9131L219.69 72.4408C219.497 72.9539 219.432 73.4538 219.404 73.9076C219.377 74.3447 219.378 74.867 219.378 75.4355H223.557ZM225.531 69.2822C224.963 69.2822 224.44 69.2812 224.003 69.3086C223.549 69.337 223.049 69.4016 222.536 69.5947L224.009 73.5065C223.97 73.521 224.005 73.4963 224.264 73.4801C224.54 73.4628 224.91 73.4618 225.531 73.4618V69.2822ZM223.602 73.9131C223.673 73.7253 223.821 73.5771 224.009 73.5065L222.536 69.5947C221.222 70.0894 220.185 71.1265 219.69 72.4408L223.602 73.9131ZM221.245 84.027C221.249 84.027 221.378 84.0286 221.506 84.0182C221.659 84.0057 221.982 83.9668 222.34 83.784L220.443 80.06C220.771 79.8924 221.06 79.8611 221.166 79.8524C221.22 79.848 221.259 79.8475 221.263 79.8474C221.268 79.8473 221.269 79.8474 221.245 79.8474V84.027ZM219.378 81.7143C219.378 81.7386 219.378 81.7378 219.378 81.7331C219.378 81.7285 219.378 81.6899 219.383 81.6356C219.391 81.5296 219.423 81.2412 219.59 80.9123L223.314 82.8099C223.497 82.4513 223.536 82.1284 223.548 81.976C223.559 81.8479 223.557 81.7188 223.557 81.7143H219.378ZM222.34 83.784C222.76 83.5703 223.101 83.2293 223.314 82.8099L219.59 80.9123C219.777 80.5453 220.076 80.2469 220.443 80.0599L222.34 83.784ZM229.818 79.8474C229.793 79.8474 229.794 79.8474 229.799 79.8474C229.803 79.8475 229.842 79.848 229.896 79.8525C230.002 79.8611 230.291 79.8925 230.619 80.06L228.722 83.7841C229.081 83.9668 229.403 84.0058 229.556 84.0182C229.684 84.0287 229.813 84.0271 229.818 84.0271V79.8474ZM227.505 81.7143C227.505 81.7188 227.503 81.8479 227.514 81.976C227.526 82.1285 227.565 82.4513 227.748 82.8099L231.472 80.9124C231.639 81.2412 231.671 81.5297 231.679 81.6357C231.684 81.6899 231.684 81.7285 231.684 81.7331C231.684 81.7378 231.684 81.7386 231.684 81.7143H227.505ZM230.619 80.06C230.986 80.247 231.285 80.5454 231.472 80.9124L227.748 82.8099C227.961 83.2294 228.303 83.5704 228.722 83.7841L230.619 80.06ZM211.816 55.5753C211.281 55.843 210.555 56.1754 210.006 56.7357L212.992 59.6603C212.935 59.7185 212.907 59.7231 213.014 59.6606C213.143 59.5857 213.327 59.4927 213.685 59.3137L211.816 55.5753ZM212.992 60.4352C212.992 60.0348 212.993 59.829 213.002 59.68C213.01 59.5556 213.019 59.5832 212.992 59.6603L209.041 58.2974C208.785 59.0387 208.812 59.8366 208.812 60.4352H212.992ZM210.006 56.7357C209.573 57.1783 209.243 57.7117 209.041 58.2974L212.992 59.6603H212.992L210.006 56.7357ZM225.469 53.4219C225.563 53.3748 225.632 53.3402 225.692 53.3112C225.751 53.2823 225.784 53.2671 225.803 53.2589C225.836 53.2448 225.772 53.2756 225.66 53.2966L224.889 49.1887C224.342 49.2912 223.857 49.555 223.6 49.6836L225.469 53.4219ZM227.463 49.6836C227.205 49.555 226.72 49.2913 226.173 49.1887L225.403 53.2966C225.29 53.2756 225.227 53.2448 225.259 53.2589C225.278 53.2671 225.311 53.2823 225.37 53.3112C225.43 53.3402 225.499 53.3748 225.593 53.4219L227.463 49.6836ZM225.66 53.2966C225.575 53.3126 225.488 53.3126 225.403 53.2966L226.173 49.1887C225.749 49.109 225.313 49.109 224.889 49.1887L225.66 53.2966ZM242.25 60.4352C242.25 59.8365 242.277 59.0387 242.021 58.2974L238.07 59.6603C238.043 59.5832 238.052 59.5556 238.06 59.68C238.069 59.8289 238.07 60.0348 238.07 60.4352H242.25ZM237.377 59.3137C237.735 59.4927 237.919 59.5856 238.048 59.6606C238.156 59.7231 238.127 59.7185 238.07 59.6603L241.056 56.7357C240.507 56.1754 239.781 55.843 239.246 55.5753L237.377 59.3137ZM242.021 58.2974C241.819 57.7117 241.489 57.1783 241.056 56.7357L238.07 59.6602V59.6602L242.021 58.2974ZM238.07 76.3644C238.07 77.3742 238.068 78.0059 238.029 78.4818C237.993 78.9334 237.933 79.0579 237.918 79.0867L241.642 80.9842C242.007 80.268 242.137 79.5322 242.195 78.8222C242.251 78.1366 242.25 77.3052 242.25 76.3644H238.07ZM234.587 84.0271C235.528 84.0271 236.359 84.0287 237.045 83.9727C237.755 83.9146 238.491 83.7846 239.207 83.4197L237.309 79.6956C237.28 79.7102 237.156 79.77 236.704 79.8069C236.228 79.8458 235.597 79.8474 234.587 79.8474V84.0271ZM237.918 79.0867C237.785 79.3489 237.571 79.562 237.309 79.6956L239.207 83.4196C240.255 82.8854 241.108 82.0328 241.642 80.9842L237.918 79.0867ZM208.812 76.3644C208.812 77.3052 208.811 78.1365 208.867 78.8222C208.925 79.5322 209.055 80.268 209.42 80.9842L213.144 79.0867C213.129 79.0579 213.07 78.9334 213.033 78.4818C212.994 78.0059 212.992 77.3742 212.992 76.3644L208.812 76.3644ZM216.475 79.8474H216.475V84.027H216.475V79.8474ZM216.475 79.8474C215.465 79.8474 214.834 79.8458 214.358 79.8069C213.906 79.77 213.782 79.7102 213.753 79.6955L211.855 83.4196C212.572 83.7846 213.307 83.9146 214.017 83.9726C214.703 84.0287 215.534 84.027 216.475 84.027L216.475 79.8474ZM209.42 80.9842C209.954 82.0328 210.807 82.8854 211.855 83.4196L213.753 79.6955C213.491 79.562 213.278 79.3488 213.144 79.0867L209.42 80.9842Z" fill="white" mask="url(#path-27-outside-1_3612_22832)"/>
<ellipse cx="37.8534" cy="61.0099" rx="16.3703" ry="6.26946" fill="#FFB82E" fill-opacity="0.5"/>
<mask id="path-30-outside-2_3612_22832" maskUnits="userSpaceOnUse" x="19.8763" y="22.251" width="35" height="38" fill="black">
<rect fill="white" x="19.8763" y="22.251" width="35" height="38"/>
<path fill-rule="evenodd" clip-rule="evenodd" d="M22.8763 39.067C22.8763 31.7526 29.378 25.251 37.5051 25.251C45.6322 25.251 52.1338 31.7526 52.1338 39.067C52.1338 49.6322 39.1305 57.759 37.5051 57.759C35.8797 57.759 22.8763 49.6322 22.8763 39.067ZM37.5052 44.756C40.1982 44.756 42.3814 42.5729 42.3814 39.8798C42.3814 37.1867 40.1982 35.0035 37.5052 35.0035C34.8121 35.0035 32.6289 37.1867 32.6289 39.8798C32.6289 42.5729 34.8121 44.756 37.5052 44.756Z"/>
</mask>
<path fill-rule="evenodd" clip-rule="evenodd" d="M22.8763 39.067C22.8763 31.7526 29.378 25.251 37.5051 25.251C45.6322 25.251 52.1338 31.7526 52.1338 39.067C52.1338 49.6322 39.1305 57.759 37.5051 57.759C35.8797 57.759 22.8763 49.6322 22.8763 39.067ZM37.5052 44.756C40.1982 44.756 42.3814 42.5729 42.3814 39.8798C42.3814 37.1867 40.1982 35.0035 37.5052 35.0035C34.8121 35.0035 32.6289 37.1867 32.6289 39.8798C32.6289 42.5729 34.8121 44.756 37.5052 44.756Z" fill="#FFB82E"/>
<path d="M37.5051 23.1612C28.3018 23.1612 20.7865 30.522 20.7865 39.067H24.9662C24.9662 32.9833 30.4542 27.3408 37.5051 27.3408V23.1612ZM54.2237 39.067C54.2237 30.522 46.7083 23.1612 37.5051 23.1612V27.3408C44.556 27.3408 50.044 32.9833 50.044 39.067H54.2237ZM37.5051 59.8488C37.956 59.8488 38.3642 59.7265 38.6038 59.6458C38.891 59.5492 39.194 59.4208 39.4972 59.2767C40.1068 58.9871 40.8261 58.5818 41.6035 58.084C43.161 57.0867 45.0503 55.6548 46.8845 53.8746C50.4868 50.3783 54.2237 45.1935 54.2237 39.067H50.044C50.044 43.5057 47.2792 47.667 43.9735 50.8753C42.3537 52.4475 40.6874 53.7075 39.3496 54.5642C38.6793 54.9934 38.1161 55.3055 37.7035 55.5016C37.4956 55.6003 37.3525 55.6569 37.2706 55.6845C37.1412 55.728 37.2574 55.6692 37.5051 55.6692V59.8488ZM20.7865 39.067C20.7865 45.1935 24.5233 50.3783 28.1257 53.8746C29.9599 55.6548 31.8492 57.0867 33.4067 58.084C34.184 58.5818 34.9033 58.9871 35.513 59.2767C35.8162 59.4208 36.1192 59.5492 36.4064 59.6458C36.646 59.7265 37.0542 59.8488 37.5051 59.8488V55.6692C37.7528 55.6692 37.8689 55.728 37.7395 55.6845C37.6577 55.6569 37.5146 55.6003 37.3067 55.5016C36.8941 55.3055 36.3309 54.9934 35.6606 54.5642C34.3228 53.7075 32.6565 52.4475 31.0367 50.8753C27.731 47.667 24.9662 43.5057 24.9662 39.067H20.7865ZM40.2916 39.8798C40.2916 41.4187 39.0441 42.6662 37.5052 42.6662V46.8459C41.3524 46.8459 44.4712 43.727 44.4712 39.8798H40.2916ZM37.5052 37.0934C39.0441 37.0934 40.2916 38.3409 40.2916 39.8798H44.4712C44.4712 36.0325 41.3524 32.9137 37.5052 32.9137V37.0934ZM34.7187 39.8798C34.7187 38.3409 35.9663 37.0934 37.5052 37.0934V32.9137C33.6579 32.9137 30.5391 36.0325 30.5391 39.8798H34.7187ZM37.5052 42.6662C35.9663 42.6662 34.7187 41.4187 34.7187 39.8798H30.5391C30.5391 43.727 33.6579 46.8459 37.5052 46.8459V42.6662Z" fill="white" mask="url(#path-30-outside-2_3612_22832)"/>
<ellipse cx="90.8535" cy="133.01" rx="16.3703" ry="6.26946" fill="#FFB82E" fill-opacity="0.5"/>
<mask id="path-33-outside-3_3612_22832" maskUnits="userSpaceOnUse" x="72.8763" y="94.2512" width="35" height="38" fill="black">
<rect fill="white" x="72.8763" y="94.2512" width="35" height="38"/>
<path fill-rule="evenodd" clip-rule="evenodd" d="M75.8763 111.067C75.8763 103.753 82.378 97.2512 90.5051 97.2512C98.6322 97.2512 105.134 103.753 105.134 111.067C105.134 121.632 92.1305 129.759 90.5051 129.759C88.8797 129.759 75.8763 121.632 75.8763 111.067ZM90.505 116.756C93.198 116.756 95.3812 114.573 95.3812 111.88C95.3812 109.187 93.198 107.004 90.505 107.004C87.8119 107.004 85.6287 109.187 85.6287 111.88C85.6287 114.573 87.8119 116.756 90.505 116.756Z"/>
</mask>
<path fill-rule="evenodd" clip-rule="evenodd" d="M75.8763 111.067C75.8763 103.753 82.378 97.2512 90.5051 97.2512C98.6322 97.2512 105.134 103.753 105.134 111.067C105.134 121.632 92.1305 129.759 90.5051 129.759C88.8797 129.759 75.8763 121.632 75.8763 111.067ZM90.505 116.756C93.198 116.756 95.3812 114.573 95.3812 111.88C95.3812 109.187 93.198 107.004 90.505 107.004C87.8119 107.004 85.6287 109.187 85.6287 111.88C85.6287 114.573 87.8119 116.756 90.505 116.756Z" fill="#FFB82E"/>
<path d="M90.5051 95.1614C81.3018 95.1614 73.7865 102.522 73.7865 111.067H77.9662C77.9662 104.984 83.4542 99.341 90.5051 99.341V95.1614ZM107.224 111.067C107.224 102.522 99.7083 95.1614 90.5051 95.1614V99.341C97.556 99.341 103.044 104.984 103.044 111.067H107.224ZM90.5051 131.849C90.956 131.849 91.3642 131.727 91.6038 131.646C91.891 131.549 92.194 131.421 92.4972 131.277C93.1068 130.987 93.8261 130.582 94.6035 130.084C96.161 129.087 98.0503 127.655 99.8845 125.875C103.487 122.379 107.224 117.194 107.224 111.067H103.044C103.044 115.506 100.279 119.667 96.9735 122.876C95.3537 124.448 93.6874 125.708 92.3496 126.564C91.6793 126.994 91.1161 127.306 90.7035 127.502C90.4956 127.601 90.3525 127.657 90.2706 127.685C90.1412 127.728 90.2574 127.669 90.5051 127.669V131.849ZM73.7865 111.067C73.7865 117.194 77.5233 122.379 81.1257 125.875C82.9599 127.655 84.8492 129.087 86.4067 130.084C87.184 130.582 87.9033 130.987 88.513 131.277C88.8162 131.421 89.1192 131.549 89.4064 131.646C89.646 131.727 90.0542 131.849 90.5051 131.849V127.669C90.7528 127.669 90.8689 127.728 90.7395 127.685C90.6577 127.657 90.5146 127.601 90.3067 127.502C89.8941 127.306 89.3309 126.994 88.6606 126.564C87.3228 125.708 85.6565 124.448 84.0367 122.876C80.731 119.667 77.9662 115.506 77.9662 111.067H73.7865ZM93.2914 111.88C93.2914 113.419 92.0439 114.666 90.505 114.666V118.846C94.3522 118.846 97.471 115.727 97.471 111.88H93.2914ZM90.505 109.094C92.0439 109.094 93.2914 110.341 93.2914 111.88H97.471C97.471 108.033 94.3522 104.914 90.505 104.914V109.094ZM87.7185 111.88C87.7185 110.341 88.9661 109.094 90.505 109.094V104.914C86.6577 104.914 83.5389 108.033 83.5389 111.88H87.7185ZM90.505 114.666C88.9661 114.666 87.7185 113.419 87.7185 111.88H83.5389C83.5389 115.727 86.6577 118.846 90.505 118.846V114.666Z" fill="white" mask="url(#path-33-outside-3_3612_22832)"/>
<path d="M244 82L270 86L283 109L288.5 130L306 135.5H322" stroke="url(#paint3_linear_3612_22832)" stroke-width="2.09"/>
</g>
</g>
<defs>
<linearGradient id="paint0_linear_3612_22832" x1="189" y1="92" x2="116.543" y2="86.6078" gradientUnits="userSpaceOnUse">
<stop stop-color="#83C150"/>
<stop offset="0.530156" stop-color="#F3B800"/>
</linearGradient>
<linearGradient id="paint1_linear_3612_22832" x1="235.98" y1="70.7926" x2="200.5" y2="3.00004" gradientUnits="userSpaceOnUse">
<stop stop-color="#83C150"/>
<stop offset="1" stop-color="#F3B800"/>
</linearGradient>
<linearGradient id="paint2_linear_3612_22832" x1="6.54471e-07" y1="365.503" x2="82" y2="365.503" gradientUnits="userSpaceOnUse">
<stop offset="0.327223" stop-color="white"/>
<stop offset="1" stop-color="white" stop-opacity="0"/>
</linearGradient>
<linearGradient id="paint3_linear_3612_22832" x1="283" y1="82" x2="283" y2="135.5" gradientUnits="userSpaceOnUse">
<stop stop-color="#83C150"/>
<stop offset="1" stop-color="#F3B800"/>
</linearGradient>
<clipPath id="clip0_3612_22832">
<rect width="320" height="220" fill="white"/>
</clipPath>
<clipPath id="clip1_3612_22832">
<rect width="630.429" height="349" fill="white" transform="translate(-35 -95)"/>
</clipPath>
</defs>
</svg>
