<svg width="40" height="40" viewBox="0 0 40 40" fill="none" xmlns="http://www.w3.org/2000/svg">
<path fill-rule="evenodd" clip-rule="evenodd" d="M12 16C12 14.3431 13.3431 13 15 13H25C26.6569 13 28 14.3431 28 16V23C28 24.6569 26.6569 26 25 26H24V29L20 26H15C13.3431 26 12 24.6569 12 23V16ZM25 15H15L14.8834 15.0067C14.386 15.0645 14 15.4872 14 16V23L14.0067 23.1166C14.0645 23.614 14.4872 24 15 24H20.6667L22 25V24H25L25.1166 23.9933C25.614 23.9355 26 23.5128 26 23V16L25.9933 15.8834C25.9355 15.386 25.5128 15 25 15Z" fill="#A1A1A1"/>
</svg>
