<svg width="105" height="105" viewBox="0 0 105 105" fill="none" xmlns="http://www.w3.org/2000/svg">
    <circle cx="52.5" cy="52.5" r="52.5" fill="white"/>
    <path fill-rule="evenodd" clip-rule="evenodd"
          d="M59.1299 35.27C59.6102 35.27 60 35.6566 60 36.1353V39.269L68.0033 39.2698C71.515 39.2698 72.6558 41.4723 73.9751 44.0227L77.8913 52.1361C77.9612 52.2673 78 52.4144 78 52.5635V65.4001C78 65.8801 77.6197 66.2698 77.1512 66.2698L71.9724 66.2697C71.7229 68.5162 69.8121 70.2698 67.5005 70.2698C65.189 70.2698 63.2773 68.5162 63.0276 66.2697L42.9723 66.2707C42.7223 68.5167 40.8115 70.2698 38.5 70.2698C36.1885 70.2698 34.2777 68.5167 34.0277 66.2707L27.8701 66.27C27.3898 66.27 27 65.8823 27 65.4046V36.1353C27 35.6566 27.3898 35.27 27.8701 35.27H59.1299ZM67.5005 63.2698C66.1228 63.2698 65 64.3918 65 65.7698C65 67.1487 66.1228 68.2698 67.5005 68.2698C68.8772 68.2698 70 67.1487 70 65.7698C70 64.3918 68.8772 63.2698 67.5005 63.2698ZM36 65.7698C36 64.3918 37.1211 63.2698 38.5 63.2698C39.8789 63.2698 41 64.3918 41 65.7698C41 67.1487 39.8789 68.2698 38.5 68.2698C37.1211 68.2698 36 67.1487 36 65.7698ZM58.259 63.401L42.3247 63.4009C42.5425 63.7513 42.7135 64.1336 42.829 64.5391L58.2598 64.5393L58.259 63.401ZM28.74 63.401L34.6753 63.4009L34.5503 63.6149C34.3913 63.9051 34.2634 64.2147 34.171 64.5391L28.7402 64.5393L28.74 63.401ZM64 41.009H60V64.53L63.1737 64.53C63.6949 62.7144 65.3311 61.3657 67.2891 61.2747L67.5005 61.2698C69.5514 61.2698 71.2868 62.6494 71.8264 64.53L76.3024 64.5304V52.7911L75.5677 51.2662L75.5086 51.2698H64.4918C64.2203 51.2698 64 51.0458 64 50.7699V41.009ZM28.7402 37.0006H58.2598L58.259 62.401L41.4804 62.401C40.686 61.6974 39.6419 61.2698 38.5 61.2698L38.2885 61.2747C37.2295 61.3239 36.2647 61.741 35.5196 62.401L28.74 62.401L28.7402 37.0006ZM66.5502 52.2698C66.7985 52.2698 67 52.4938 67 52.7698C67 53.0458 66.7985 53.2698 66.5502 53.2698H65.4498C65.2024 53.2698 65 53.0458 65 52.7698C65 52.4938 65.2024 52.2698 65.4498 52.2698H66.5502ZM65 41.2698H69.3925C69.4788 41.2698 69.5621 41.2735 69.6419 41.2819C70.5626 41.6572 71.1588 42.4289 71.8448 43.6546L75 50.2698H65V41.2698Z"
          fill="black"/>
</svg>
