<svg width="106" height="105" viewBox="0 0 106 105" fill="none" xmlns="http://www.w3.org/2000/svg">
    <circle cx="53" cy="52.5" r="52.5" fill="#F4F5F6"/>
    <path fill-rule="evenodd" clip-rule="evenodd"
          d="M50.4835 60.8789V55.4529H49.3945V54.7109C49.7015 54.6809 49.9935 54.5839 50.2705 54.4209C50.5475 54.2579 50.7475 54.0609 50.8685 53.8279H51.7615V60.8789H50.4835ZM52.5768 37.208C47.1228 37.208 46.5838 39.354 46.5568 42.91C48.5628 42.507 50.7798 42.303 53.1618 42.303C55.0738 42.303 56.8958 42.437 58.5948 42.703C58.5468 39.271 57.9238 37.208 52.5768 37.208M55.6095 55.4024C55.6095 55.2334 55.5375 55.0904 55.3925 54.9694C55.2485 54.8494 55.0745 54.7894 54.8725 54.7894C54.6695 54.7894 54.4965 54.8494 54.3545 54.9694C54.2135 55.0904 54.1415 55.2334 54.1415 55.4024V59.2544C54.1415 59.4234 54.2135 59.5674 54.3545 59.6864C54.4965 59.8064 54.6695 59.8674 54.8725 59.8674C55.0745 59.8674 55.2485 59.8064 55.3925 59.6864C55.5375 59.5674 55.6095 59.4234 55.6095 59.2544V55.4024ZM56.9345 59.2704C56.9345 59.7394 56.7365 60.1364 56.3395 60.4634C55.9425 60.7894 55.4675 60.9524 54.9125 60.9524C54.3495 60.9524 53.8705 60.7884 53.4755 60.4604C53.0815 60.1314 52.8835 59.7354 52.8835 59.2704V55.4244C52.8835 54.9564 53.0825 54.5584 53.4795 54.2304C53.8755 53.9024 54.3535 53.7384 54.9125 53.7384C55.4765 53.7384 55.9545 53.9034 56.3465 54.2324C56.7385 54.5624 56.9345 54.9604 56.9345 55.4244V59.2704ZM45.7318 44.864C45.5548 44.864 45.3788 44.81 45.2308 44.706C45.0238 44.562 44.8898 44.336 44.8628 44.085C44.8308 43.802 44.8058 43.518 44.8058 43.229C44.8058 39.134 45.3998 35.458 52.5768 35.458C59.7538 35.458 60.3478 39.134 60.3478 43.229C60.3478 43.374 60.3358 43.517 60.3238 43.659L60.3108 43.801C60.2938 44.051 60.1698 44.28 59.9708 44.433C59.7728 44.585 59.5188 44.645 59.2728 44.598C57.4038 44.236 55.3478 44.053 53.1618 44.053C50.5028 44.053 48.0728 44.317 45.9398 44.839C45.8708 44.856 45.8018 44.864 45.7318 44.864M53.1593 50.8125C49.3473 50.8125 46.2453 53.9145 46.2453 57.7265C46.2453 61.5385 49.3473 64.6395 53.1593 64.6395C56.9713 64.6395 60.0733 61.5385 60.0733 57.7265C60.0733 53.9145 56.9713 50.8125 53.1593 50.8125ZM53.1593 65.6395C48.7953 65.6395 45.2453 62.0895 45.2453 57.7265C45.2453 53.3625 48.7953 49.8125 53.1593 49.8125C57.5233 49.8125 61.0733 53.3625 61.0733 57.7265C61.0733 62.0895 57.5233 65.6395 53.1593 65.6395ZM52.5768 31.75C44.8528 31.75 41.0978 35.505 41.0978 43.229C41.0978 44.076 41.2068 44.947 41.4328 45.894C41.5188 46.255 41.3678 46.631 41.0558 46.832C37.8668 48.887 36.2498 52.099 36.2498 56.379C36.2498 65.704 43.8368 73.29 53.1618 73.29C62.4868 73.29 70.0728 65.704 70.0728 56.379C70.0728 51.693 68.1258 48.293 64.2868 46.273C63.9478 46.095 63.7638 45.716 63.8348 45.338C63.9858 44.53 64.0558 43.86 64.0558 43.229C64.0558 35.505 60.3008 31.75 52.5768 31.75M53.1618 75.04C42.8718 75.04 34.4998 66.669 34.4998 56.379C34.4998 51.693 36.2158 48.105 39.6008 45.704C39.4308 44.846 39.3478 44.031 39.3478 43.229C39.3478 34.574 43.9228 30 52.5768 30C61.2308 30 65.8058 34.574 65.8058 43.229C65.8058 43.796 65.7598 44.38 65.6608 45.033C69.7508 47.408 71.8228 51.222 71.8228 56.379C71.8228 66.669 63.4518 75.04 53.1618 75.04"
          fill="black"/>
</svg>
