<svg width="105" height="105" viewBox="0 0 105 105" fill="none" xmlns="http://www.w3.org/2000/svg">
    <circle cx="52.5" cy="52.5" r="52.5" fill="white"/>
    <path fill-rule="evenodd" clip-rule="evenodd"
          d="M77.9724 64.9998H83.1512C83.6197 64.9998 84 64.6102 84 64.1301V51.2936C84 51.1445 83.9612 50.9974 83.8913 50.8662L79.9751 42.7528C78.6558 40.2024 77.515 37.9998 74.0033 37.9998H64.8488C64.3803 37.9998 64.2598 38.3894 64.2598 38.8695V61.1312H47.4806C46.6862 60.4275 45.642 59.9998 44.5 59.9998C43.358 59.9998 42.3138 60.4275 41.5194 61.1312H33.9367C33.6267 61.1312 33.375 61.3552 33.375 61.6312C33.375 61.9072 33.6267 62.1312 33.9367 62.1312H40.6751C40.2473 62.8196 40 63.6313 40 64.4998C40 66.9806 42.0193 68.9998 44.5 68.9998C46.9807 68.9998 49 66.9806 49 64.4998C49 63.6313 48.7527 62.8196 48.3249 62.1312H64.2598V64.1301C64.2598 64.6102 64.3803 64.9998 64.8488 64.9998H69.0276C69.2773 67.2463 71.189 68.9998 73.5005 68.9998C75.812 68.9998 77.7228 67.2463 77.9724 64.9998ZM77.8265 63.2604C77.287 61.3796 75.5515 59.9998 73.5005 59.9998C71.4496 59.9998 69.7133 61.3796 69.1736 63.2604H65.6976V61.9473C65.7679 61.8612 65.81 61.7511 65.81 61.6312C65.81 61.5113 65.7679 61.4013 65.6976 61.3151V39.7392H70V49.5C70 49.7759 70.2203 49.9998 70.4918 49.9998H81.5086C81.5288 49.9998 81.5488 49.9986 81.5686 49.9961L82.3024 51.5212V63.2604H77.8265ZM77.8439 42.3831C77.1577 41.1572 76.5611 40.3856 75.6393 40.0109C75.5598 40.0034 75.4776 39.9998 75.3925 39.9998H71V48.9998H81L77.8439 42.3831ZM73.5005 61.9998C72.1228 61.9998 71 63.1219 71 64.4998C71 65.8787 72.1228 66.9998 73.5005 66.9998C74.8772 66.9998 76 65.8787 76 64.4998C76 63.1219 74.8772 61.9998 73.5005 61.9998ZM42 64.4998C42 63.1219 43.1211 61.9998 44.5 61.9998C45.8789 61.9998 47 63.1219 47 64.4998C47 65.8787 45.8789 66.9998 44.5 66.9998C43.1211 66.9998 42 65.8787 42 64.4998ZM71 51.4998C71 51.7758 71.2024 51.9998 71.4498 51.9998H72.5502C72.7985 51.9998 73 51.7758 73 51.4998C73 51.2238 72.7985 50.9998 72.5502 50.9998H71.4498C71.2024 50.9998 71 51.2238 71 51.4998Z"
          fill="black"/>
    <path d="M48 64H63C64.1046 64 65 63.1046 65 62V37C65 35.8954 64.1046 35 63 35H36C34.8954 35 34 35.8954 34 37V39.5"
          stroke="black" stroke-width="2" stroke-linecap="round"/>
    <path d="M41 64H36C34.8954 64 34 63.1046 34 62V56.5" stroke="black" stroke-width="2" stroke-linecap="round"/>
    <path d="M34 46.5V49.5" stroke="black" stroke-width="2" stroke-linecap="round"/>
    <path d="M25 43L36 43" stroke="black" stroke-width="2" stroke-linecap="round"/>
    <path d="M28 53L39 53" stroke="black" stroke-width="2" stroke-linecap="round"/>
    <path d="M21 48L29 48" stroke="black" stroke-width="2" stroke-linecap="round"/>
    <path d="M48 64H65" stroke="black" stroke-width="2" stroke-linecap="round"/>
</svg>
