<svg width="106" height="105" viewBox="0 0 106 105" fill="none" xmlns="http://www.w3.org/2000/svg">
    <circle cx="53" cy="52.5" r="52.5" fill="#F4F5F6"/>
    <path fill-rule="evenodd" clip-rule="evenodd"
          d="M34.8308 47.181C33.2952 47.141 32.2268 46.55 31.4944 45.587V34.0029H39.0571V45.2879C38.9588 45.3433 38.8717 45.4187 38.8036 45.514C38.0313 46.586 36.5315 47.227 34.8308 47.181ZM40.0571 45.3526V34.0029H48.1392V45.2399C48.0124 45.3023 47.9008 45.3956 47.816 45.514C47.0766 46.541 45.6206 47.18 44.0164 47.18C42.4112 47.18 40.9542 46.542 40.2138 45.514C40.1688 45.4516 40.1159 45.3978 40.0571 45.3526ZM49.1392 45.4098C49.1709 45.4419 49.2004 45.4767 49.2272 45.514C49.9657 46.541 51.4216 47.18 53.0269 47.18C54.6311 47.18 56.0881 46.542 56.8285 45.514C56.9253 45.3786 57.0605 45.2834 57.2114 45.2286V34.0029H49.1392V45.4098ZM58.2387 45.514C58.2299 45.5018 58.2208 45.4899 58.2114 45.4783V34.0029H66.1694V45.2739C66.0325 45.329 65.9099 45.4184 65.8191 45.542C65.0727 46.554 63.6267 47.179 62.0393 47.179H62.0045C60.3913 47.17 58.9841 46.547 58.2387 45.514ZM67.1694 45.4832C67.1862 45.5019 67.2022 45.5215 67.2173 45.542C68.0026 46.605 69.5222 47.253 71.2031 47.18C72.7237 47.131 73.8065 46.541 74.532 45.587V34.0029H67.1694V45.4832ZM29.6398 46.338C30.2913 47.3503 31.3267 48.1137 32.5761 48.5423C32.5271 48.646 32.5 48.7597 32.5 48.879V70H30.5C29.8926 70 29.5 70.4125 29.5 71V74C29.5 74.5875 29.8926 75 30.5 75H75.5C76.1085 75 76.5 74.5875 76.5 74V71C76.5 70.4125 76.1085 70 75.5 70H73.5V48.879C73.5 48.7593 73.4728 48.6452 73.4234 48.5412C74.6728 48.1122 75.7085 47.3488 76.3592 46.338C76.4507 46.196 76.4995 46.031 76.4995 45.863V32.875C76.4995 32.392 76.1094 32 75.6287 32H30.3703C29.8896 32 29.4995 32.392 29.4995 32.875V45.863C29.4995 46.031 29.5483 46.196 29.6398 46.338ZM71.5 70V48.9176C71.42 48.9226 71.3396 48.9264 71.2588 48.929C69.4068 48.983 67.697 48.41 66.5177 47.351C65.3872 48.362 63.7202 48.922 61.9956 48.929C60.245 48.92 58.6457 48.334 57.5341 47.326C56.4115 48.344 54.7973 48.93 53.0269 48.93C51.2554 48.93 49.6432 48.344 48.5216 47.327C47.3991 48.344 45.7859 48.93 44.0164 48.93C42.2459 48.93 40.6327 48.344 39.5092 47.327C38.3856 48.351 36.7764 48.933 35.0009 48.933C34.9293 48.933 34.8586 48.933 34.786 48.931C34.6901 48.9285 34.5948 48.9243 34.5 48.9184V70H38.5V58.5069C38.5 58.2271 38.7264 58 39.0099 58H46.9902C47.2726 58 47.5 58.2271 47.5 58.5069V70H71.5ZM46.5 70L46.4803 59.0139H39.5197L39.5 70H46.5ZM33.5 72H31.5V73H74.5V72H72.5H33.5ZM50.5 63H66.5V53H50.5V63ZM49.7631 63.929L49.7631 63.929C49.5699 63.894 49.5 63.8814 49.5 64V52C49.5 52.1186 49.5699 52.106 49.7631 52.071L49.7631 52.071C49.9191 52.0428 50.1553 52 50.5 52H66.5C66.8447 52 67.081 52.0428 67.2369 52.071C67.4301 52.106 67.5 52.1186 67.5 52V64C67.5 63.8814 67.4301 63.894 67.2369 63.929C67.081 63.9572 66.8447 64 66.5 64H50.5C50.1553 64 49.9191 63.9572 49.7631 63.929Z"
          fill="black"/>
</svg>
