<svg width="105" height="105" viewBox="0 0 105 105" fill="none" xmlns="http://www.w3.org/2000/svg">
    <circle cx="52.5" cy="52.5" r="52.5" fill="#F4F5F6"/>
    <path fill-rule="evenodd" clip-rule="evenodd"
          d="M52 28.4223L49.7762 30.5719C49.3707 30.967 48.7118 30.967 48.3051 30.5719C47.8983 30.1768 47.8983 29.5367 48.3051 29.1428L52.2643 25.2969C52.3594 25.2045 52.4748 25.1294 52.602 25.0786C52.7305 25.0277 52.8649 25 53.0004 25C53.136 25 53.2716 25.0277 53.3977 25.0786C53.5261 25.1294 53.6403 25.2045 53.7366 25.2969L57.6958 29.1428C58.1014 29.5367 58.1014 30.1768 57.6958 30.5719C57.2891 30.967 56.6302 30.967 56.2235 30.5719L54 28.4223V39C54.0411 39.5471 53.5761 40 53.0004 40C52.426 40 51.9598 39.5471 52 39V28.4223ZM56.7885 35L58.8944 43.999H47.1056L49.2655 35H37.0211L31.5765 44.0858C31.2334 44.2321 31.0293 44.5575 31.0293 45L31.0212 44.9943C31.0163 44.9952 31.0121 45.0053 31.0089 45.0246L31.0017 45.1102L31 45.2507L31.008 45.5642L31.0293 46V75C31.0293 76 31.9525 76.9941 33 77H73C74.9632 77 74.9707 76.0163 74.9707 75V46L74.992 45.5642L75 45.2507L74.9983 45.1102L74.9911 45.0246L74.9856 45.0026L74.9788 44.9943L74.9707 45L74.9632 44.8569C74.9236 44.4874 74.7285 44.2158 74.4235 44.0858L68.9789 35H56.7885ZM73 46L72.9996 75H33.0004L33 46H45.9994L45.9998 56.4855C45.9998 56.7695 46.2277 57 46.5062 57H59.4938L59.5845 56.9917C59.8202 56.9481 60.0002 56.738 60.0002 56.4855L60.0006 46H73ZM58.9811 55.9711L58.9813 46H47.0187L47.0189 55.9711H58.9811ZM38.0197 37L47.806 36.999L46.1069 43.999L34.0252 44L38.0197 37ZM58.194 36.999L59.8931 43.999L71.9748 44L67.9803 37L58.194 36.999Z"
          fill="#000000"/>
</svg>
