<svg width="105" height="105" viewBox="0 0 105 105" fill="none" xmlns="http://www.w3.org/2000/svg">
<circle cx="52.5" cy="52.5" r="52.5" fill="#F4F5F6"/>
<path fill-rule="evenodd" clip-rule="evenodd" d="M59.1299 35.0002C59.6102 35.0002 60 35.3869 60 35.8655V38.9992L68.0033 39C71.515 39 72.6558 41.2025 73.9751 43.7529L77.8913 51.8664C77.9612 51.9976 78 52.1447 78 52.2937V65.1303C78 65.6104 77.6197 66 77.1512 66L71.9724 65.9999C71.7229 68.2464 69.8121 70 67.5005 70C65.189 70 63.2773 68.2464 63.0276 65.9999L42.9723 66.0009C42.7223 68.2469 40.8115 70 38.5 70C36.1885 70 34.2777 68.2469 34.0277 66.0009L27.8701 66.0002C27.3898 66.0002 27 65.6125 27 65.1348V35.8655C27 35.3869 27.3898 35.0002 27.8701 35.0002H59.1299ZM67.5005 63C66.1228 63 65 64.1221 65 65.5C65 66.8789 66.1228 68 67.5005 68C68.8772 68 70 66.8789 70 65.5C70 64.1221 68.8772 63 67.5005 63ZM36 65.5C36 64.1221 37.1211 63 38.5 63C39.8789 63 41 64.1221 41 65.5C41 66.8789 39.8789 68 38.5 68C37.1211 68 36 66.8789 36 65.5ZM58.259 63.1312L42.3247 63.1311C42.5425 63.4815 42.7135 63.8638 42.829 64.2693L58.2598 64.2695L58.259 63.1312ZM28.74 63.1312L34.6753 63.1311L34.5503 63.3451C34.3913 63.6353 34.2634 63.9449 34.171 64.2693L28.7402 64.2695L28.74 63.1312ZM64 40.7392H60V64.2602L63.1737 64.2603C63.6949 62.4446 65.3311 61.0959 67.2891 61.0049L67.5005 61C69.5514 61 71.2868 62.3796 71.8264 64.2603L76.3024 64.2606V52.5214L75.5677 50.9964L75.5086 51H64.4918C64.2203 51 64 50.7761 64 50.5002V40.7392ZM28.7402 36.7309H58.2598L58.259 62.1312L41.4804 62.1312C40.686 61.4276 39.6419 61 38.5 61L38.2885 61.0049C37.2295 61.0541 36.2647 61.4713 35.5196 62.1312L28.74 62.1312L28.7402 36.7309ZM66.5502 52C66.7985 52 67 52.224 67 52.5C67 52.776 66.7985 53 66.5502 53H65.4498C65.2024 53 65 52.776 65 52.5C65 52.224 65.2024 52 65.4498 52H66.5502ZM65 41H69.3925C69.4788 41 69.5621 41.0037 69.6419 41.0122C70.5626 41.3874 71.1588 42.1591 71.8448 43.3848L75 50H65V41Z" fill="black"/>
</svg>
