<svg width="105" height="105" viewBox="0 0 105 105" fill="none" xmlns="http://www.w3.org/2000/svg">
    <circle cx="52.5" cy="52.5" r="52.5" fill="white"/>
    <path fill-rule="evenodd" clip-rule="evenodd"
          d="M38.5917 50.7191V45.0441L57.5625 33.3355L57.0271 32.4693L38.0892 44.1582H37.5738V44.4763L37.3821 44.5946L37.5738 44.9055V51.0173C37.5738 51.2005 37.6726 51.3705 37.8334 51.4611L43.2055 54.481C43.2828 54.5247 43.3693 54.5461 43.4548 54.5461C43.5434 54.5461 43.6329 54.5227 43.7123 54.4769C43.8681 54.3853 43.9637 54.2184 43.9637 54.0372V48.0644L62.9348 36.3566L62.3995 35.4904L43.4603 47.1791H42.9459V47.4966L42.7545 47.6147L42.9459 47.9251V53.168L38.5917 50.7191Z"
          fill="black"/>
    <circle cx="70" cy="62" r="11" stroke="black" stroke-width="2"/>
    <path d="M70 54.5V62H77.5" stroke="black" stroke-linecap="round"/>
    <path d="M50.5 51.5V74M50.5 51.5L31 40.5M50.5 51.5L69.5 40.5M50.5 74L31.1017 63.0574C31.0389 63.0219 31 62.9554 31 62.8832V40.5M50.5 74L56.5 71M31 40.5L50.3971 29.0607C50.4605 29.0233 50.5393 29.0238 50.6022 29.0619L69.5 40.5M69.5 40.5V46"
          stroke="black" stroke-width="2" stroke-linecap="round" stroke-linejoin="round"/>
</svg>
