<svg width="105" height="105" viewBox="0 0 105 105" fill="none" xmlns="http://www.w3.org/2000/svg">
    <circle cx="52.5" cy="52.5" r="52.5" fill="#F4F5F6"/>
    <path fill-rule="evenodd" clip-rule="evenodd"
          d="M65.3187 48.3472H61.2904V39.5042H65.3187V48.3472ZM60.2438 48.5892C60.2589 48.5748 60.2744 48.5611 60.2904 48.5479V39.3042C60.2744 39.2911 60.2589 39.2774 60.2438 39.2632C59.2068 38.2722 56.6218 36.7512 55.3938 36.7502H39.6638H39.6078L39.4098 36.7516C37.5399 36.7651 35.8872 36.777 34.7908 37.5392C34.0078 38.0842 32.9648 39.2902 32.9648 43.4482V44.4052C32.9648 48.5612 34.0058 49.7672 34.7898 50.3132C35.7685 50.9927 37.1562 51.0922 38.8369 51.1016H39.5565L39.6638 51.1012H55.3928C56.6218 51.0992 59.2068 49.5792 60.2438 48.5892ZM66.3187 47.9734V39.8778L69.5378 42.2602V42.428C69.5376 42.4356 69.5375 42.4433 69.5375 42.451V45.4C69.5375 45.4077 69.5376 45.4153 69.5378 45.423V45.5902L66.3187 47.9734ZM55.3938 52.8512H52.0929C51.9829 53.4452 51.7171 55.4685 52.6007 57.7764C52.7027 58.0434 52.6677 58.3464 52.5047 58.5844C52.3407 58.8214 52.0717 58.9634 51.7837 58.9634H49.1946L47.5978 65.9596C47.6681 66.1695 47.9168 66.6235 48.1052 66.9674L48.1108 66.9776C48.8128 68.2606 49.6078 69.7136 48.9598 70.8076C48.6098 71.3986 47.9488 71.6986 46.9978 71.6986H37.1258C36.5688 71.6986 36.0438 71.4436 35.6508 70.9816C35.1238 70.3646 34.8938 69.4656 35.0358 68.5756C35.0428 68.5256 35.0558 68.4766 35.0728 68.4306L38.0918 59.6526L38.2018 59.1136C38.6878 56.7646 39.1458 54.5446 37.9828 52.8986L37.9359 52.8317C36.3918 52.7763 34.9629 52.5636 33.7908 51.7472C32.0348 50.5262 31.2148 48.1912 31.2148 44.4052V43.4482C31.2148 39.6592 32.0348 37.3262 33.7908 36.1032C35.3638 35.0092 37.3988 35.0002 39.5558 35.0002H39.6078H39.6638H55.3968C57.2048 35.0022 59.9068 36.6592 61.1838 37.7542H66.1018C66.2898 37.7542 66.4718 37.8152 66.6228 37.9262L70.9318 41.1182C71.1558 41.2822 71.2878 41.5422 71.2878 41.8202V41.8785L73.4755 42.836C73.7945 42.976 74.0005 43.291 74.0005 43.638V44.212C74.0005 44.56 73.7945 44.874 73.4755 45.014L71.2878 45.9723V46.0312C71.2878 46.3092 71.1558 46.5692 70.9318 46.7342L66.6228 49.9252C66.4718 50.0362 66.2898 50.0972 66.1018 50.0972H61.1838C59.9068 51.1932 57.2048 52.8482 55.3938 52.8512ZM71.5985 43.925L71.2878 43.7891V44.0619L71.5985 43.925ZM36.5726 40.8979H39.4386C39.7146 40.8979 39.9386 40.6739 39.9386 40.3979C39.9386 40.1219 39.7146 39.8979 39.4386 39.8979H36.5726C36.2976 39.8979 36.0726 40.1219 36.0726 40.3979C36.0726 40.6739 36.2976 40.8979 36.5726 40.8979ZM47.4388 69.9136C47.4268 69.9136 47.4075 69.9164 47.3799 69.9205L47.3799 69.9205L47.3798 69.9205C47.3102 69.9307 47.188 69.9486 46.9978 69.9486H37.1258C37.0918 69.9486 37.0348 69.9086 36.9808 69.8466C36.8318 69.6716 36.7098 69.3216 36.7548 68.9186L39.7638 60.1686C39.7768 60.1326 39.7888 60.0966 39.7938 60.0576L39.9158 59.4686L39.916 59.4676C40.3599 57.3179 40.8547 54.9223 39.9548 52.8516H48.7938L45.8638 65.6966C45.7448 66.3006 46.0758 66.9046 46.5768 67.8176L46.598 67.8566C46.8893 68.3934 47.5122 69.5409 47.4488 69.9146L47.4471 69.914L47.445 69.9137C47.4432 69.9136 47.441 69.9136 47.4388 69.9136ZM50.2172 54.483C50.2273 55.2611 50.3196 56.1958 50.5847 57.2134H49.594L50.2172 54.483ZM39.4386 43.2505H36.5726C36.2976 43.2505 36.0726 43.0255 36.0726 42.7505C36.0726 42.4735 36.2976 42.2505 36.5726 42.2505H39.4386C39.7146 42.2505 39.9386 42.4735 39.9386 42.7505C39.9386 43.0255 39.7146 43.2505 39.4386 43.2505ZM36.5726 45.6011H39.4386C39.7146 45.6011 39.9386 45.3771 39.9386 45.1011C39.9386 44.8261 39.7146 44.6011 39.4386 44.6011H36.5726C36.2976 44.6011 36.0726 44.8261 36.0726 45.1011C36.0726 45.3771 36.2976 45.6011 36.5726 45.6011ZM39.4386 47.9546H36.5726C36.2976 47.9546 36.0726 47.7296 36.0726 47.4546C36.0726 47.1776 36.2976 46.9546 36.5726 46.9546H39.4386C39.7146 46.9546 39.9386 47.1776 39.9386 47.4546C39.9386 47.7296 39.7146 47.9546 39.4386 47.9546ZM44.1729 45.3132H54.8049V42.5392H44.1729V45.3132ZM55.3049 46.3132H43.6729C43.3969 46.3132 43.1729 46.0882 43.1729 45.8132V42.0382C43.1729 41.7632 43.3969 41.5382 43.6729 41.5382H55.3049C55.5819 41.5382 55.8049 41.7632 55.8049 42.0382V45.8132C55.8049 46.0882 55.5819 46.3132 55.3049 46.3132Z"
          fill="#000000"/>
</svg>
