<svg width="106" height="105" viewBox="0 0 106 105" fill="none" xmlns="http://www.w3.org/2000/svg">
    <circle cx="53" cy="52.5" r="52.5" fill="#F4F5F6"/>
    <path fill-rule="evenodd" clip-rule="evenodd"
          d="M41.0547 45.8706L34.9372 42.3389L52.9995 31.9113L58.5136 35.0946L41.0547 45.8706ZM40.0733 47.3606L34.2807 44.0163V64.8613L52.0792 75.1372V54.2922L46.4632 51.0499V56.0373C46.4632 56.2184 46.3676 56.3854 46.2118 56.477C46.1324 56.5228 46.0429 56.5462 45.9543 56.5462C45.8688 56.5462 45.7823 56.5248 45.705 56.481L40.3329 53.4611C40.1721 53.3706 40.0733 53.2006 40.0733 53.0174V47.3606ZM45.4454 50.4622V55.168L41.0912 52.7192V47.9483L45.4454 50.4622ZM46.359 48.9328L42.056 46.4487L59.5153 35.6729L63.8186 38.1573L46.359 48.9328ZM47.3602 49.5109L52.9995 52.7665L71.0618 42.3389L64.8203 38.7356L47.3602 49.5109ZM53.8604 54.3266V75.1715L71.7183 64.8613V44.0163L53.8604 54.3266ZM32.9453 66.1468L52.5445 77.4619C52.6799 77.5403 52.8539 77.581 53.0097 77.581C53.1654 77.581 53.3201 77.5403 53.4545 77.4619L73.0537 66.1468C73.3295 65.988 73.4995 65.6939 73.4995 65.3753V42.4743C73.4995 42.4284 73.4964 42.3837 73.4893 42.3389C73.5432 41.9867 73.3814 41.6213 73.0537 41.432L53.4545 30.1169C53.1847 29.9611 52.8143 29.9611 52.5445 30.1169L32.9453 41.432C32.6695 41.5918 32.4995 41.8859 32.4995 42.2035V65.3753C32.4995 65.6939 32.6695 65.988 32.9453 66.1468Z"
          fill="black"/>
</svg>
