<svg width="80" height="80" viewBox="0 0 80 80" fill="none" xmlns="http://www.w3.org/2000/svg">
<path fill-rule="evenodd" clip-rule="evenodd" d="M26 60.7904C26 60.887 25.9337 60.9682 25.8436 60.9925L25.7871 61H23.2138C23.116 61 23.0327 60.935 23.0077 60.8462L23 60.7904V59H19.8286C19.3705 59 19 58.6373 19 58.1899V20.8111C19 20.3627 19.3705 20 19.8286 20H61.1714C61.6285 20 62 20.3627 62 20.8111V58.1899C62 58.6373 61.6285 59 61.1714 59H58V60.7904C58 60.887 57.933 60.9682 57.8428 60.9925L57.7862 61H55.2129C55.1151 61 55.0324 60.935 55.0076 60.8462L55 60.7904V59H26V60.7904ZM60 45.97H21V57H60V45.97ZM42 51.03V51.97H39V51.03H42ZM60 33.97H21V45.03H60V33.97ZM42 39.03V39.97H39V39.03H42ZM60 22H21V33.03H60V22ZM42 27.03V27.97H39V27.03H42Z" fill="black"/>
</svg>
