<svg width="80" height="80" viewBox="0 0 80 80" fill="none" xmlns="http://www.w3.org/2000/svg">
<path fill-rule="evenodd" clip-rule="evenodd" d="M59.2226 37C59.6782 37 60.0476 37.369 60.0476 37.825V46L61.2552 46.0039C61.7118 46.0039 62.0813 46.3729 62.0813 46.8289L62.0803 48.999L64.1749 49C64.6305 49 65 49.369 65 49.825V60.221C65 60.676 64.6305 61.045 64.1749 61.045L60.7966 61.044L60.7976 62.764C60.7976 62.8723 60.7239 62.964 60.624 62.9915L60.5613 63H57.975C57.8665 63 57.7747 62.9264 57.7471 62.8266L57.7387 62.764L57.7377 61.044H30.796L30.797 62.764C30.797 62.8723 30.7233 62.964 30.6234 62.9915L30.5607 63H27.9744C27.8659 63 27.7741 62.9264 27.7466 62.8266L27.7381 62.764L27.7371 61.044L23.8261 61.045C23.3705 61.045 23 60.676 23 60.221V49.825C23 49.369 23.3705 49 23.8261 49L26.0344 48.999L26.0354 46.8289C26.0354 46.3729 26.4049 46.0039 26.8615 46.0039L28.0064 46.0029L28.0074 37.825C28.0074 37.369 28.3769 37 28.8325 37H59.2226ZM63.0515 51H25.0026V59H63.0515V51ZM59.9265 47.9805L28.0064 48V49L59.9265 48.9805V47.9805ZM58.0451 38.9675H30.009V46.0039L36.0167 45.9675V41C36.185 41.0425 50.7246 41.0425 51.036 41V45.9675L58.0451 46.0039V38.9675ZM50.0348 42H37.018V46.0039H50.0348V42Z" fill="black"/>
<path d="M18 31.5H22L20 25H16L14 31.5H18Z" stroke="black" stroke-width="2" stroke-linejoin="round"/>
<path d="M18 31.5V61.5V62" stroke="black" stroke-width="2" stroke-linejoin="round"/>
<path d="M15 32V36" stroke="black"/>
<path d="M33 34L39.0968 28L44.5161 33.9999L49.2581 29.5L54 34" stroke="black" stroke-linejoin="round"/>
<path d="M29 22V34H59V22H29Z" stroke="black" stroke-width="2" stroke-linejoin="round"/>
<path d="M45 28.5C45.8284 28.5 46.5 27.8284 46.5 27C46.5 26.1716 45.8284 25.5 45 25.5C44.1716 25.5 43.5 26.1716 43.5 27C43.5 27.8284 44.1716 28.5 45 28.5Z" stroke="black"/>
</svg>
