<svg width="29" height="24" viewBox="0 0 29 24" fill="none" xmlns="http://www.w3.org/2000/svg">
<path fill-rule="evenodd" clip-rule="evenodd" d="M20.0652 5.0003C20.0652 2.83036 21.831 1.06519 24.0003 1.06519C26.1696 1.06519 27.9348 2.83036 27.9348 5.0003C27.9348 7.16964 26.1696 8.93481 24.0003 8.93481C21.831 8.93481 20.0652 7.16964 20.0652 5.0003ZM24.0003 0C21.2436 0 19 2.24299 19 5.0003C19 7.75702 21.2436 10 24.0003 10C26.757 10 29 7.75702 29 5.0003C29 2.24299 26.757 0 24.0003 0ZM23.2179 6.63258C23.3114 6.74406 23.4441 6.81108 23.585 6.81734H23.6057C23.7395 6.81734 23.8674 6.76285 23.9639 6.66452L26.1282 4.55479C26.3349 4.34498 26.3414 3.99802 26.1436 3.77945C25.9452 3.5615 25.6166 3.55461 25.4111 3.76379L23.6057 5.56727L22.7669 4.84078C22.5774 4.61469 22.2499 4.59402 22.0356 4.79381C21.8218 4.99422 21.8017 5.34118 21.9912 5.56727L23.2179 6.63258Z" fill="white"/>
<path d="M22 12L21.4558 13.6325C21.1836 14.4491 20.4193 15 19.5585 15H10.392C9.55536 15 8.80711 14.4792 8.51653 13.6946L4.40278 2.58751C4.15368 1.91495 3.56353 1.42725 2.85608 1.30935L1 1" stroke="white" stroke-width="2" stroke-linecap="round"/>
<circle cx="10" cy="21" r="2" stroke="white" stroke-width="2"/>
<circle cx="19" cy="21" r="2" stroke="white" stroke-width="2"/>
<path d="M6 6H17" stroke="white" stroke-width="2" stroke-linecap="round"/>
</svg>
