<svg width="25" height="24" viewBox="0 0 25 24" fill="none" xmlns="http://www.w3.org/2000/svg">
<path fill-rule="evenodd" clip-rule="evenodd" d="M0.999962 2H1.99992C2.76549 2.00187 3.44756 2.48392 3.70486 3.20496L7.58471 13.9995C8.00806 15.197 9.13956 15.998 10.4096 15.9995H19.5593C20.8498 15.9992 21.9955 15.1736 22.4042 13.9495L24.9491 6.31484C25.0503 6.00983 24.9988 5.67477 24.8106 5.41427C24.6224 5.15377 24.3205 4.9996 23.9991 4.99989H6.49975L5.61979 2.52998C5.07232 1.00394 3.62116 -0.0102678 1.99992 7.8426e-05H0.999962C0.447698 7.8426e-05 0 0.447777 0 1.00004C0 1.5523 0.447698 2 0.999962 2ZM22.6142 6.99981L20.4993 13.3146C20.3646 13.7204 19.9868 13.9957 19.5593 13.9995H10.4096C9.9873 13.9986 9.61111 13.7325 9.46964 13.3346L7.20473 6.99981H22.6142ZM6.99973 20.9993C6.99973 22.6561 8.34283 23.9992 9.99962 23.9992C11.6564 23.9992 12.9995 22.6561 12.9995 20.9993C12.9995 19.3425 11.6564 17.9994 9.99962 17.9994C8.34283 17.9994 6.99973 19.3425 6.99973 20.9993ZM10.9996 20.9993C10.9996 21.5515 10.5519 21.9992 9.99962 21.9992C9.44736 21.9992 8.99966 21.5515 8.99966 20.9993C8.99966 20.447 9.44736 19.9993 9.99962 19.9993C10.5519 19.9993 10.9996 20.447 10.9996 20.9993ZM15.9994 20.9993C15.9994 22.6561 17.3425 23.9992 18.9993 23.9992C20.6561 23.9992 21.9992 22.6561 21.9992 20.9993C21.9992 19.3425 20.6561 17.9994 18.9993 17.9994C17.3425 17.9994 15.9994 19.3425 15.9994 20.9993ZM18.9993 21.9992C18.4471 21.9992 17.9994 21.5515 17.9994 20.9993C17.9994 20.447 18.4471 19.9993 18.9993 19.9993C19.5516 19.9993 19.9993 20.447 19.9993 20.9993C19.9993 21.5515 19.5516 21.9992 18.9993 21.9992Z" fill="white"/>
</svg>
