<svg width="48" height="48" viewBox="0 0 48 48" fill="none" xmlns="http://www.w3.org/2000/svg">
<circle cx="24" cy="24" r="24" fill="#25D366"/>
<path fill-rule="evenodd" clip-rule="evenodd" d="M31.8026 15.5969C29.6539 13.4563 26.7963 12.2769 23.752 12.2756C17.479 12.2756 12.3737 17.3557 12.3711 23.5995C12.3703 25.5955 12.8943 27.5438 13.8903 29.2612L12.2757 35.1295L18.3089 33.5547C19.9713 34.4571 21.8428 34.9326 23.7474 34.9331H23.7522C30.0245 34.9331 35.1304 29.8527 35.1328 23.6086C35.1341 20.5825 33.9514 17.7373 31.8026 15.5969ZM23.7523 33.0206H23.7484C22.0511 33.0199 20.3864 32.566 18.9339 31.7086L18.5886 31.5045L15.0084 32.4391L15.964 28.9656L15.7391 28.6095C14.7921 27.1109 14.2921 25.3787 14.293 23.6002C14.2949 18.4105 18.5384 14.1883 23.7561 14.1883C26.2827 14.1891 28.6577 15.1695 30.4436 16.9487C32.2295 18.7278 33.2125 21.0927 33.2116 23.6079C33.2094 28.798 28.9661 33.0206 23.7523 33.0206ZM28.9419 25.9713C28.6576 25.8295 27.2594 25.1452 26.9987 25.0506C26.7382 24.9562 26.5484 24.9092 26.3591 25.1924C26.1694 25.4755 25.6245 26.113 25.4585 26.3017C25.2926 26.4906 25.1269 26.5143 24.8424 26.3726C24.558 26.231 23.6418 25.9321 22.5556 24.9681C21.7103 24.2177 21.1396 23.2911 20.9736 23.008C20.8079 22.7245 20.9722 22.5861 21.0984 22.4305C21.4062 22.0501 21.7145 21.6513 21.8092 21.4626C21.9041 21.2737 21.8566 21.1084 21.7854 20.9668C21.7145 20.8252 21.1458 19.4324 20.9089 18.8657C20.6778 18.3141 20.4436 18.3886 20.2689 18.38C20.1033 18.3718 19.9136 18.3701 19.7239 18.3701C19.5344 18.3701 19.2263 18.4408 18.9656 18.7242C18.705 19.0075 17.9704 19.692 17.9704 21.0848C17.9704 22.4776 18.9894 23.8231 19.1315 24.012C19.2737 24.2009 21.1368 27.059 23.9893 28.2846C24.6678 28.5764 25.1974 28.7503 25.6105 28.8807C26.2918 29.0961 26.9115 29.0657 27.4016 28.9929C27.948 28.9116 29.0839 28.3083 29.321 27.6474C29.558 26.9863 29.558 26.4199 29.4867 26.3017C29.4158 26.1837 29.2261 26.113 28.9419 25.9713Z" fill="white"/>
</svg>
