<svg width="18" height="16" viewBox="0 0 18 16" fill="none" xmlns="http://www.w3.org/2000/svg">
<path d="M13 4L5 7" stroke="#7F7F7F" stroke-width="1.2" stroke-linecap="round"/>
<path d="M13 12L5 9" stroke="#7F7F7F" stroke-width="1.2" stroke-linecap="round"/>
<path fill-rule="evenodd" clip-rule="evenodd" d="M3 10C4.10457 10 5 9.10457 5 8C5 6.89543 4.10457 6 3 6C1.89543 6 1 6.89543 1 8C1 9.10457 1.89543 10 3 10Z" stroke="#7F7F7F" stroke-width="1.2"/>
<path fill-rule="evenodd" clip-rule="evenodd" d="M15 5C16.1046 5 17 4.10457 17 3C17 1.89543 16.1046 1 15 1C13.8954 1 13 1.89543 13 3C13 4.10457 13.8954 5 15 5Z" stroke="#7F7F7F" stroke-width="1.2"/>
<path fill-rule="evenodd" clip-rule="evenodd" d="M15 15C16.1046 15 17 14.1046 17 13C17 11.8954 16.1046 11 15 11C13.8954 11 13 11.8954 13 13C13 14.1046 13.8954 15 15 15Z" stroke="#7F7F7F" stroke-width="1.2"/>
</svg>
