<svg width="48" height="48" viewBox="0 0 48 48" fill="none" xmlns="http://www.w3.org/2000/svg">
<circle cx="24" cy="24" r="24" fill="#0077FF"/>
<path fill-rule="evenodd" clip-rule="evenodd" d="M23.0259 31.4711H24.477C24.477 31.4711 24.9157 31.4225 25.1389 31.1811C25.3453 30.9595 25.3377 30.5436 25.3377 30.5436C25.3377 30.5436 25.3089 28.596 26.2136 28.3091C27.1046 28.0268 28.2492 30.1914 29.462 31.0248C30.3789 31.6547 31.0756 31.5166 31.0756 31.5166L34.3195 31.4711C34.3195 31.4711 36.0166 31.3663 35.2121 30.032C35.1468 29.9227 34.7431 29.0454 32.8001 27.242C30.766 25.3537 31.0392 25.6603 33.4892 22.3951C34.9814 20.4066 35.5779 19.1922 35.3912 18.6731C35.2136 18.1782 34.1161 18.3088 34.1161 18.3088L30.4669 18.33C30.4669 18.33 30.1967 18.2936 29.9949 18.4135C29.799 18.5319 29.673 18.8051 29.673 18.8051C29.673 18.8051 29.0947 20.3444 28.3236 21.6528C26.6978 24.414 26.0466 24.5598 25.781 24.3882C25.1632 23.989 25.318 22.7822 25.318 21.9261C25.318 19.2499 25.7233 18.1342 24.5271 17.8458C24.1294 17.7502 23.838 17.6864 22.8224 17.6758C21.52 17.6621 20.4165 17.6803 19.7926 17.9854C19.3767 18.1888 19.0564 18.6427 19.2522 18.6685C19.4935 18.7004 20.04 18.8158 20.3299 19.2104C20.7049 19.719 20.6912 20.8635 20.6912 20.8635C20.6912 20.8635 20.9068 24.0133 20.1888 24.4049C19.6954 24.6736 19.0199 24.1256 17.5703 21.6195C16.828 20.3368 16.2663 18.9175 16.2663 18.9175C16.2663 18.9175 16.1586 18.6533 15.9658 18.5122C15.732 18.3406 15.4041 18.286 15.4041 18.286L11.9341 18.3072C11.9341 18.3072 11.4134 18.3224 11.2221 18.5486C11.0521 18.7505 11.2085 19.1664 11.2085 19.1664C11.2085 19.1664 13.9256 25.5222 17.001 28.7266C19.8229 31.6639 23.0259 31.4711 23.0259 31.4711Z" fill="white"/>
</svg>
