<svg width="80" height="40" viewBox="0 0 80 40" fill="none" xmlns="http://www.w3.org/2000/svg">
<rect width="80" height="40" rx="3" fill="#83C150"/>
<path fill-rule="evenodd" clip-rule="evenodd" d="M28 10H28.9999C29.7655 10.0019 30.4476 10.4839 30.7049 11.205L34.5847 21.9995C35.0081 23.197 36.1396 23.998 37.4096 23.9995H46.5593C47.8498 23.9992 48.9955 23.1736 49.4042 21.9495L51.9491 14.3148C52.0503 14.0098 51.9988 13.6748 51.8106 13.4143C51.6224 13.1538 51.3205 12.9996 50.9991 12.9999H33.4998L32.6198 10.53C32.0723 9.00394 30.6212 7.98973 28.9999 8.00008H28C27.4477 8.00008 27 8.44778 27 9.00004C27 9.5523 27.4477 10 28 10ZM49.6142 14.9998L47.4993 21.3146C47.3646 21.7204 46.9868 21.9957 46.5593 21.9995H37.4096C36.9873 21.9986 36.6111 21.7325 36.4696 21.3346L34.2047 14.9998H49.6142ZM33.9997 28.9993C33.9997 30.6561 35.3428 31.9992 36.9996 31.9992C38.6564 31.9992 39.9995 30.6561 39.9995 28.9993C39.9995 27.3425 38.6564 25.9994 36.9996 25.9994C35.3428 25.9994 33.9997 27.3425 33.9997 28.9993ZM37.9996 28.9993C37.9996 29.5515 37.5519 29.9992 36.9996 29.9992C36.4474 29.9992 35.9997 29.5515 35.9997 28.9993C35.9997 28.447 36.4474 27.9993 36.9996 27.9993C37.5519 27.9993 37.9996 28.447 37.9996 28.9993ZM42.9994 28.9993C42.9994 30.6561 44.3425 31.9992 45.9993 31.9992C47.6561 31.9992 48.9992 30.6561 48.9992 28.9993C48.9992 27.3425 47.6561 25.9994 45.9993 25.9994C44.3425 25.9994 42.9994 27.3425 42.9994 28.9993ZM45.9993 29.9992C45.4471 29.9992 44.9994 29.5515 44.9994 28.9993C44.9994 28.447 45.4471 27.9993 45.9993 27.9993C46.5516 27.9993 46.9993 28.447 46.9993 28.9993C46.9993 29.5515 46.5516 29.9992 45.9993 29.9992Z" fill="white"/>
</svg>
