<svg width="80" height="40" viewBox="0 0 80 40" fill="none" xmlns="http://www.w3.org/2000/svg">
<g clip-path="url(#clip0_2638_56821)">
<rect width="80" height="40" rx="3" fill="#FFA22A"/>
<path fill-rule="evenodd" clip-rule="evenodd" d="M47.0654 13.0003C47.0654 10.8304 48.8312 9.06519 51.0005 9.06519C53.1699 9.06519 54.9351 10.8304 54.9351 13.0003C54.9351 15.1696 53.1699 16.9348 51.0005 16.9348C48.8312 16.9348 47.0654 15.1696 47.0654 13.0003ZM51.0003 8C48.2436 8 46 10.243 46 13.0003C46 15.757 48.2436 18 51.0003 18C53.757 18 56 15.757 56 13.0003C56 10.243 53.757 8 51.0003 8ZM50.2179 14.6326C50.3114 14.7441 50.4441 14.8111 50.585 14.8173H50.6057C50.7395 14.8173 50.8674 14.7629 50.9639 14.6645L53.1282 12.5548C53.3349 12.345 53.3414 11.998 53.1436 11.7794C52.9452 11.5615 52.6166 11.5546 52.4111 11.7638L50.6057 13.5673L49.7669 12.8408C49.5774 12.6147 49.2499 12.594 49.0356 12.7938C48.8218 12.9942 48.8017 13.3412 48.9912 13.5673L50.2179 14.6326Z" fill="white"/>
<path d="M49 19L48.3787 21.4851C48.1561 22.3754 47.3562 23 46.4384 23H37.392C36.5554 23 35.8071 22.4792 35.5165 21.6946L31.4028 10.5875C31.1537 9.91495 30.5635 9.42725 29.8561 9.30935L28 9" stroke="white" stroke-width="2" stroke-linecap="round"/>
<circle cx="37" cy="29" r="2" stroke="white" stroke-width="2"/>
<circle cx="46" cy="29" r="2" stroke="white" stroke-width="2"/>
<path d="M33 14H44.5" stroke="white" stroke-width="2" stroke-linecap="round"/>
</g>
<defs>
<clipPath id="clip0_2638_56821">
<rect width="80" height="40" fill="white"/>
</clipPath>
</defs>
</svg>
