<svg width="40" height="40" viewBox="0 0 40 40" fill="none" xmlns="http://www.w3.org/2000/svg">
<path fill-rule="evenodd" clip-rule="evenodd" d="M21.6001 12.8C22.4838 12.8 23.2001 13.5164 23.2001 14.4H26.4001V16H25.6001V24.8C25.6001 26.1255 24.5256 27.2 23.2001 27.2H16.8001C15.4746 27.2 14.4001 26.1255 14.4001 24.8V16H13.6001V14.4H16.8001C16.8001 13.5164 17.5164 12.8 18.4001 12.8H21.6001ZM24.0001 16H16.0001V24.8C16.0001 25.2103 16.3089 25.5485 16.7068 25.5947L16.8001 25.6H23.2001C23.6104 25.6 23.9485 25.2912 23.9947 24.8933L24.0001 24.8V16Z" fill="#A1A1A1"/>
</svg>
