<svg width="126" height="125" viewBox="0 0 126 125" fill="none" xmlns="http://www.w3.org/2000/svg">
<circle cx="63" cy="62.5" r="62.5" fill="#F4F5F6"/>
<path fill-rule="evenodd" clip-rule="evenodd" d="M81.797 64.2563C81.3022 64.2563 80.9006 63.855 80.9006 63.3605C80.9006 53.9261 73.5066 46.225 64.0668 45.8278C63.572 45.8073 63.1879 45.3906 63.2084 44.8961C63.2299 44.4016 63.6489 44.0238 64.1416 44.0381C74.5443 44.4753 82.6933 52.9627 82.6933 63.3605C82.6933 63.855 82.2918 64.2563 81.797 64.2563ZM43.4318 55.0033C43.5814 55.9268 46.7805 74.2202 64.1122 80.9814C67.171 82.3185 69.1092 82.4373 72.6013 79.631C74.9441 77.7482 76.075 76.1142 75.9634 74.7741C75.8722 73.6878 74.941 72.6425 73.1975 71.6668C66.6793 68.021 66.3546 68.5984 64.7914 71.3709L64.5302 71.848C64.4083 72.0753 64.1931 72.2391 63.9411 72.2964C63.6891 72.3538 63.4238 72.2995 63.2148 72.148C58.3746 68.6384 54.5229 63.7937 52.0756 58.1382C51.9783 57.9119 51.9783 57.657 52.0746 57.4318C52.1709 57.2055 52.3553 57.0294 52.5858 56.9434L52.9955 56.7898C54.4686 56.2165 55.3178 55.7793 55.5862 55.1159C55.9755 54.1525 55.4377 52.2114 53.7874 48.626C53.0734 47.0739 52.1934 46.1596 51.1742 45.9078C49.4204 45.4716 47.2477 46.9111 45.5533 48.2113C43.7914 49.5638 43.0036 51.7803 43.3929 54.2948L43.4318 55.0033ZM75.0939 64.2563C74.5991 64.2563 74.1975 63.855 74.1975 63.3605C74.1975 57.662 69.7373 52.9023 64.0448 52.5255C63.551 52.4938 63.1771 52.0669 63.2099 51.5734C63.2427 51.0799 63.673 50.7062 64.1636 50.738C70.7955 51.1772 75.9902 56.7211 75.9902 63.3605C75.9902 63.855 75.5887 64.2563 75.0939 64.2563ZM67.6494 83.6822C66.3587 83.6822 65.0014 83.326 63.4269 82.6359C44.7758 75.3617 41.6822 55.4261 41.6525 55.2254C41.6484 55.1978 41.6453 55.1691 41.6443 55.1405L41.6115 54.475C41.1362 51.4343 42.1985 48.5267 44.4613 46.7903C46.4753 45.2454 49.1049 43.552 51.6044 44.1673C53.1799 44.5574 54.4625 45.8054 55.4162 47.8776C57.3932 52.1735 57.8726 54.2436 57.2478 55.7875C56.7376 57.0489 55.5401 57.6939 54.1029 58.2774C56.3043 63.0187 59.4471 66.986 63.4597 70.0932C65.6754 66.3655 67.505 66.429 74.0724 70.1034C76.369 71.3873 77.6055 72.9087 77.7489 74.6246C77.9169 76.622 76.6005 78.7168 73.7251 81.0275C71.4858 82.8263 69.648 83.6822 67.6494 83.6822ZM68.5109 64.2563C68.0162 64.2563 67.6146 63.855 67.6146 63.3605C67.6146 61.2361 66.0811 59.4598 63.9688 59.1373C63.4791 59.0625 63.1431 58.6049 63.2179 58.1155C63.2927 57.6272 63.7496 57.2903 64.2403 57.3661C67.2335 57.8227 69.4073 60.3444 69.4073 63.3605C69.4073 63.855 69.0057 64.2563 68.5109 64.2563Z" fill="black"/>
</svg>
