<svg width="126" height="125" viewBox="0 0 126 125" fill="none" xmlns="http://www.w3.org/2000/svg">
<circle cx="63" cy="62.5" r="62.5" fill="#F4F5F6"/>
<path fill-rule="evenodd" clip-rule="evenodd" d="M63 42.6958C52.08 42.6958 43.196 51.5808 43.196 62.5008C43.196 73.4198 52.08 82.3038 63 82.3038C73.92 82.3038 82.804 73.4198 82.804 62.5008C82.804 51.5808 73.92 42.6958 63 42.6958ZM63 83.9998C51.145 83.9998 41.5 74.3558 41.5 62.5008C41.5 50.6448 51.145 40.9998 63 40.9998C74.855 40.9998 84.5 50.6448 84.5 62.5008C84.5 74.3558 74.855 83.9998 63 83.9998ZM63 46.1255C53.971 46.1255 46.626 53.4715 46.626 62.4995C46.626 71.5285 53.971 78.8745 63 78.8745C72.028 78.8745 79.374 71.5285 79.374 62.4995C79.374 53.4715 72.028 46.1255 63 46.1255ZM63 79.8435C53.437 79.8435 45.656 72.0625 45.656 62.4995C45.656 52.9375 53.437 45.1565 63 45.1565C72.563 45.1565 80.343 52.9375 80.343 62.4995C80.343 72.0625 72.563 79.8435 63 79.8435ZM62.5158 48.665H63.4858V46.618H62.5158V48.665ZM63.4858 78.382H62.5158V76.336H63.4858V78.382ZM78.8808 62.985H76.8358V62.015H78.8808V62.985ZM47.1178 62.985H49.1638V62.015H47.1178V62.985ZM61.7689 62.4412C61.7689 62.9872 62.2109 63.4282 62.7559 63.4282C63.3019 63.4282 63.7439 62.9872 63.7439 62.4412C63.7439 61.8952 63.3019 61.4522 62.7559 61.4522C62.2109 61.4522 61.7689 61.8952 61.7689 62.4412ZM70.0559 54.5872L71.2629 55.7782L65.1119 62.0182C65.1369 62.1562 65.1549 62.2962 65.1549 62.4412C65.1549 63.7632 64.0789 64.8392 62.7569 64.8392C61.4339 64.8392 60.3579 63.7632 60.3579 62.4412C60.3579 62.2552 60.3829 62.0752 60.4239 61.9012L57.1599 59.3692L58.1989 58.0302L61.3709 60.4892C61.7629 60.2102 62.2389 60.0412 62.7569 60.0412C63.2979 60.0412 63.7929 60.2292 64.1939 60.5322L70.0559 54.5872Z" fill="black"/>
</svg>
