<svg width="126" height="125" viewBox="0 0 126 125" fill="none" xmlns="http://www.w3.org/2000/svg">
<circle cx="63" cy="62.5" r="62.5" fill="#F4F5F6"/>
<path fill-rule="evenodd" clip-rule="evenodd" d="M69.5 38C70.6046 38 71.5 38.8954 71.5 40V53C71.5 54.1046 70.6046 55 69.5 55H56.5C55.3954 55 54.5 54.1046 54.5 53V40C54.5 38.8954 55.3954 38 56.5 38H69.5ZM69.5 40H56.5V53H69.5V40ZM61.44 50V47.53H63.14C64.63 47.53 65.89 46.75 65.89 45.24C65.89 43.84 64.85 43 63.27 43H60.65V50H61.44ZM63.17 46.81H61.44V43.73H63.21C64.34 43.73 65.09 44.25 65.09 45.25C65.09 46.19 64.33 46.81 63.17 46.81ZM48.5074 78.5225C48.5074 79.9025 49.6304 81.0245 51.0104 81.0245C52.3904 81.0245 53.5134 79.9025 53.5134 78.5225C53.5134 77.1425 52.3904 76.0195 51.0104 76.0195C49.6304 76.0195 48.5074 77.1425 48.5074 78.5225ZM47.0457 76.983C47.6639 75.3966 49.2081 74.2695 51.0104 74.2695C52.8128 74.2695 54.357 75.3966 54.9752 76.983H70.8504C71.4686 75.3966 73.0128 74.2695 74.8151 74.2695C76.6175 74.2695 78.1611 75.3966 78.779 76.983H83.8284C83.4994 75.1228 82.5312 72.8891 79.8604 72.3701C79.448 72.2892 79.263 72.0179 78.895 71.4784L78.8934 71.4761C77.8594 69.9611 74.7114 65.3491 68.0734 64.8601C68.0434 64.8581 63.4224 64.6081 60.7114 64.8581C58.7864 64.8621 57.0154 65.5861 55.7714 66.8481L51.5404 71.1401C51.3974 71.2861 51.2054 71.3771 51.0014 71.3961C48.6053 71.6272 46.637 72.1794 45.1909 72.7294C45.583 72.7486 45.6671 72.8281 45.7495 72.9062L45.7502 72.9069C45.8592 73.0109 45.9242 73.1789 45.9122 73.3289C45.8452 73.6369 45.3262 75.6829 43.9812 75.8939L41.7082 76.0019C41.7012 76.0029 41.6932 76.0029 41.6852 76.0029C41.6135 76.0029 41.5433 75.9875 41.4791 75.9584C41.3889 76.2811 41.3197 76.6269 41.2824 76.983H47.0457ZM83.9536 77.983H79.0331C79.0556 78.1597 79.0671 78.3398 79.0671 78.5225C79.0671 78.6776 79.0588 78.8309 79.0425 78.9818H83.9834C83.9883 78.7083 83.9829 78.3665 83.9536 77.983ZM55.2634 78.5225C55.2634 78.3398 55.2518 78.1597 55.2294 77.983H70.5962C70.5737 78.1597 70.5621 78.3398 70.5621 78.5225C70.5621 78.6776 70.5705 78.8309 70.5868 78.9818H55.2388C55.2551 78.8309 55.2634 78.6776 55.2634 78.5225ZM46.7915 77.983H41.2689C41.2973 78.3203 41.3616 78.6565 41.4704 78.9818H46.7821C46.7658 78.8309 46.7574 78.6776 46.7574 78.5225C46.7574 78.3398 46.769 78.1597 46.7915 77.983ZM84.8044 80.9904H78.2761C77.5043 82.0698 76.2406 82.7745 74.8151 82.7745C73.3895 82.7745 72.1254 82.0697 71.3533 80.9901C71.3455 80.9903 71.3376 80.9904 71.3297 80.9904H54.4957L54.4862 80.9904L54.4723 80.9901C53.7002 82.0697 52.4361 82.7745 51.0104 82.7745C49.5845 82.7745 48.3202 82.0694 47.5482 80.9895C47.54 80.9901 47.5317 80.9904 47.5234 80.9904H40.8834C40.5474 80.9904 40.2414 80.7984 40.0954 80.4964C38.7304 77.6724 39.9694 74.0051 41.2374 72.8351C41.7684 72.3451 45.0594 70.2781 50.5154 69.6861L54.5254 65.6191C56.0954 64.0261 58.3214 63.1121 60.6314 63.1121C63.3894 62.8561 67.9914 63.1021 68.1854 63.1131C75.6824 63.6661 79.1874 68.8031 80.3384 70.4901C80.3974 70.5771 80.4484 70.6521 80.4924 70.7161C85.3354 71.8541 86.0064 76.9961 85.6724 79.6051C85.6164 80.0421 85.2444 80.9904 84.8044 80.9904ZM42.4244 74.1201C42.4635 74.0842 42.5507 74.0201 42.684 73.9346C42.6967 73.9339 42.7094 73.9326 42.7222 73.9309C43.4222 73.8419 44.2322 73.7609 44.7482 73.7319C44.5472 74.2519 44.2242 74.8439 43.8802 74.8999L41.8374 74.9951C42.0253 74.6024 42.234 74.2957 42.4244 74.1201ZM72.3121 78.5225C72.3121 79.9025 73.4351 81.0245 74.8151 81.0245C76.1951 81.0245 77.3171 79.9025 77.3171 78.5225C77.3171 77.1425 76.1951 76.0195 74.8151 76.0195C73.4351 76.0195 72.3121 77.1425 72.3121 78.5225ZM63.4997 71H55.4997L57.4997 68C57.6617 67.9329 57.8214 67.8657 57.9782 67.7998C58.9886 67.375 59.8807 67 60.4997 67H63.4997V71ZM53.4923 71.2688C53.4837 71.4543 53.4741 71.6637 53.4997 72H64.4997V67C64.5074 66.7203 64.5009 66.5427 64.4956 66.3997C64.4903 66.2545 64.4863 66.1448 64.4997 66H60.4997C59.3421 66 57.9753 66.6006 56.4997 68L53.4997 71C53.5004 71.092 53.4965 71.1775 53.4923 71.2688ZM66.4997 71H73.4997L73.5854 71.0002L73.769 71.001H73.7702H73.7708C74.0272 71.0022 74.3027 71.0035 74.4997 71C74.378 70.8141 74.1408 70.5328 73.4997 70C71.8835 68.1295 70.2326 67.102 66.4997 67V71ZM65.9495 71.9797H65.9494C65.7476 71.9675 65.6416 71.9611 65.4997 72C65.5224 71.851 65.5175 71.7423 65.5099 71.5763C65.5037 71.4405 65.4957 71.2662 65.4997 71V66C65.7405 66.1334 65.9189 66.0947 66.1233 66.0505C66.236 66.0261 66.3565 66 66.4997 66C70.2647 66.0163 72.2697 67.1472 74.4997 69C74.7122 69.3812 74.8997 69.7014 75.0549 69.9661C75.4355 70.6159 75.6209 70.9323 75.4997 71C75.2244 71.9429 74.6494 72 73.4997 72H66.4997C66.252 71.998 66.0807 71.9876 65.9497 71.9797H65.9496H65.9496H65.9495H65.9495ZM50.0844 78.5227C50.0844 79.0327 50.4994 79.4487 51.0104 79.4487C51.5214 79.4487 51.9364 79.0327 51.9364 78.5227C51.9364 78.0107 51.5214 77.5957 51.0104 77.5957C50.4994 77.5957 50.0844 78.0107 50.0844 78.5227ZM74.8151 79.4487C74.3041 79.4487 73.8881 79.0327 73.8881 78.5227C73.8881 78.0107 74.3041 77.5957 74.8151 77.5957C75.3251 77.5957 75.7411 78.0107 75.7411 78.5227C75.7411 79.0327 75.3251 79.4487 74.8151 79.4487Z" fill="black"/>
</svg>
