<svg width="126" height="125" viewBox="0 0 126 125" fill="none" xmlns="http://www.w3.org/2000/svg">
<circle cx="63" cy="62.5" r="62.5" fill="#F4F5F6"/>
<path fill-rule="evenodd" clip-rule="evenodd" d="M57.035 43.7488C53.457 43.7488 49.882 45.1288 47.186 47.8788C41.863 53.3098 41.949 62.0588 47.379 67.3818C52.809 72.7048 61.559 72.6178 66.882 67.1878C72.205 61.7578 72.118 53.0088 66.688 47.6858H66.689C64.009 45.0588 60.521 43.7488 57.035 43.7488ZM57.032 73.0668C53.104 73.0668 49.174 71.5918 46.154 68.6318C40.035 62.6318 39.937 52.7728 45.936 46.6538C51.935 40.5348 61.795 40.4368 67.913 46.4358H67.914C73.4212 51.835 74.0504 60.3608 69.7485 66.4727L83.3233 78.1424C84.8123 79.5994 84.8353 81.9294 83.4173 83.3754C82.6983 84.1084 81.7463 84.4764 80.7933 84.4764C79.8643 84.4764 78.9353 84.1264 78.2213 83.4274L66.249 70.0495C63.5217 72.0596 60.2772 73.0668 57.032 73.0668ZM68.132 68.4128C68.3142 68.227 68.4907 68.0377 68.6616 67.8452L71.6613 70.4235L70.2336 71.8804L67.5967 68.9335C67.7783 68.7651 67.9568 68.5915 68.132 68.4128ZM70.9018 72.6271L79.4853 82.2194C80.2033 82.9194 81.4253 82.9084 82.1673 82.1514C82.9093 81.3934 82.8973 80.1724 82.1403 79.4304L72.4212 71.0766L70.9018 72.6271ZM57.0369 46.8201H56.9279C54.0659 46.8481 51.3869 47.9901 49.3829 50.0331C47.3799 52.0771 46.2919 54.7781 46.3209 57.6391C46.3489 60.5021 47.4899 63.1801 49.5339 65.1831C51.5779 67.1871 54.2849 68.2301 57.1409 68.2471C60.0019 68.2181 62.6809 67.0771 64.6839 65.0341C66.6879 62.9901 67.7749 60.2891 67.7469 57.4271C67.7189 54.5651 66.5779 51.8861 64.5339 49.8831C62.5159 47.9051 59.8579 46.8201 57.0369 46.8201ZM57.0309 69.2471C53.9469 69.2481 51.0399 68.0601 48.8339 65.8981C46.5989 63.7081 45.3519 60.7781 45.3209 57.6491C45.2899 54.5211 46.4789 51.5671 48.6689 49.3341C50.8599 47.0981 53.7889 45.8511 56.9179 45.8201C60.0219 45.7931 62.9999 46.9781 65.2339 49.1691C67.4689 51.3591 68.7159 54.2891 68.7469 57.4181C68.7779 60.5461 67.5889 63.5001 65.3979 65.7331C63.2079 67.9671 60.2789 69.2161 57.1499 69.2471H57.0309ZM62.0408 64.0014L62.3978 64.3514L62.5728 64.1724C66.1318 60.5424 66.0738 54.6944 62.4438 51.1354L62.2658 50.9604L61.9158 51.3184L62.0938 51.4934C65.5268 54.8584 65.5818 60.3894 62.2158 63.8234L62.0408 64.0014Z" fill="black"/>
</svg>
